<ttFont>
<head>
    <!-- Most of this table will be recalculated by the compiler -->
    <tableVersion value="1.0"/>
    <fontRevision value="1.301"/>
    <checkSumAdjustment value="0x993a8eb7"/>
    <magicNumber value="0x5f0f3cf5"/>
    <flags value="00000000 00001011"/>
    <unitsPerEm value="1000"/>
    <created value="Tue Oct  2 22:59:00 2007"/>
    <modified value="Thu Mar  6 18:36:06 2014"/>
    <xMin value="-44"/>
    <yMin value="-230"/>
    <xMax value="671"/>
    <yMax value="999"/>
    <macStyle value="00000000 00000000"/>
    <lowestRecPPEM value="9"/>
    <fontDirectionHint value="2"/>
    <indexToLocFormat value="0"/>
    <glyphDataFormat value="0"/>
  </head>
    <TTGlyph name="A" xMin="14" yMin="0" xMax="372" yMax="740">
      <contour>
        <pt x="320" y="0" on="1"/>
        <pt x="275" y="206" on="1"/>
        <pt x="110" y="206" on="1"/>
        <pt x="64" y="0" on="1"/>
        <pt x="14" y="0" on="1"/>
        <pt x="182" y="740" on="1"/>
        <pt x="205" y="740" on="1"/>
        <pt x="372" y="0" on="1"/>
      </contour>
      <contour>
        <pt x="192" y="602" on="1"/>
        <pt x="120" y="252" on="1"/>
        <pt x="264" y="252" on="1"/>
      </contour>
    </TTGlyph>
    <TTGlyph name="AE" xMin="15" yMin="0" xMax="536" yMax="733">
      <contour>
        <pt x="290" y="0" on="1"/>
        <pt x="290" y="206" on="1"/>
        <pt x="140" y="206" on="1"/>
        <pt x="66" y="0" on="1"/>
        <pt x="15" y="0" on="1"/>
        <pt x="278" y="733" on="1"/>
        <pt x="536" y="733" on="1"/>
        <pt x="536" y="686" on="1"/>
        <pt x="340" y="686" on="1"/>
        <pt x="340" y="400" on="1"/>
        <pt x="523" y="400" on="1"/>
        <pt x="523" y="352" on="1"/>
        <pt x="340" y="352" on="1"/>
        <pt x="340" y="48" on="1"/>
        <pt x="536" y="48" on="1"/>
        <pt x="536" y="0" on="1"/>
      </contour>
      <contour>
        <pt x="290" y="626" on="1"/>
        <pt x="156" y="252" on="1"/>
        <pt x="290" y="252" on="1"/>
      </contour>
    </TTGlyph>
    <TTGlyph name="AEacute" xMin="15" yMin="0" xMax="536" yMax="888">
      <component glyphName="acute" x="208" y="283" flags="0x4"/>
      <component glyphName="AE" x="0" y="0" flags="0x4"/>
    </TTGlyph>
    <TTGlyph name="Aacute" xMin="14" yMin="0" xMax="372" yMax="898">
      <component glyphName="A" x="0" y="0" flags="0x204"/>
      <component glyphName="acute" x="38" y="293" flags="0x4"/>
    </TTGlyph>
    <TTGlyph name="Abreve" xMin="14" yMin="0" xMax="372" yMax="877">
      <component glyphName="A" x="0" y="0" flags="0x204"/>
      <component glyphName="breve" x="-5" y="293" flags="0x4"/>
    </TTGlyph>
    <TTGlyph name="Acircumflex" xMin="14" yMin="0" xMax="372" yMax="890">
      <component glyphName="A" x="0" y="0" flags="0x204"/>
      <component glyphName="circumflex" x="-7" y="293" flags="0x4"/>
    </TTGlyph>
    <TTGlyph name="Adieresis" xMin="14" yMin="0" xMax="372" yMax="851">
      <component glyphName="A" x="0" y="0" flags="0x204"/>
      <component glyphName="dieresis" x="-5" y="293" flags="0x4"/>
    </TTGlyph>
    <TTGlyph name="Agrave" xMin="14" yMin="0" xMax="372" yMax="898">
      <component glyphName="A" x="0" y="0" flags="0x204"/>
      <component glyphName="grave" x="-53" y="293" flags="0x4"/>
    </TTGlyph>
    <TTGlyph name="Amacron" xMin="14" yMin="0" xMax="372" yMax="831">
      <component glyphName="A" x="0" y="0" flags="0x204"/>
      <component glyphName="macron" x="-5" y="293" flags="0x4"/>
    </TTGlyph>
    <TTGlyph name="Aogonek" xMin="14" yMin="-189" xMax="376" yMax="740">
      <contour>
        <pt x="376" y="-165" on="1"/>
        <pt x="367" y="-175" on="0"/>
        <pt x="340" y="-189" on="0"/>
        <pt x="323" y="-189" on="1"/>
        <pt x="296" y="-189" on="0"/>
        <pt x="264" y="-152" on="0"/>
        <pt x="264" y="-122" on="1"/>
        <pt x="264" y="-97" on="0"/>
        <pt x="287" y="-40" on="0"/>
        <pt x="319" y="1" on="1"/>
        <pt x="275" y="206" on="1"/>
        <pt x="110" y="206" on="1"/>
        <pt x="64" y="0" on="1"/>
        <pt x="14" y="0" on="1"/>
        <pt x="182" y="740" on="1"/>
        <pt x="205" y="740" on="1"/>
        <pt x="372" y="0" on="1"/>
        <pt x="355" y="0" on="1"/>
        <pt x="325" y="-38" on="0"/>
        <pt x="304" y="-92" on="0"/>
        <pt x="304" y="-114" on="1"/>
        <pt x="304" y="-131" on="0"/>
        <pt x="319" y="-151" on="0"/>
        <pt x="331" y="-151" on="1"/>
        <pt x="348" y="-151" on="0"/>
        <pt x="360" y="-139" on="1"/>
      </contour>
      <contour>
        <pt x="192" y="602" on="1"/>
        <pt x="120" y="252" on="1"/>
        <pt x="264" y="252" on="1"/>
      </contour>
    </TTGlyph>
    <TTGlyph name="Aring" xMin="14" yMin="0" xMax="372" yMax="849">
      <contour>
        <pt x="272" y="773" on="1"/>
        <pt x="272" y="747" on="0"/>
        <pt x="241" y="706" on="0"/>
        <pt x="214" y="700" on="1"/>
        <pt x="372" y="0" on="1"/>
        <pt x="320" y="0" on="1"/>
        <pt x="275" y="206" on="1"/>
        <pt x="110" y="206" on="1"/>
        <pt x="64" y="0" on="1"/>
        <pt x="14" y="0" on="1"/>
        <pt x="173" y="700" on="1"/>
        <pt x="147" y="707" on="0"/>
        <pt x="118" y="748" on="0"/>
        <pt x="118" y="773" on="1"/>
        <pt x="118" y="803" on="0"/>
        <pt x="159" y="849" on="0"/>
        <pt x="195" y="849" on="1"/>
        <pt x="231" y="849" on="0"/>
        <pt x="272" y="803" on="0"/>
      </contour>
      <contour>
        <pt x="192" y="602" on="1"/>
        <pt x="120" y="252" on="1"/>
        <pt x="264" y="252" on="1"/>
      </contour>
      <contour>
        <pt x="238" y="774" on="1"/>
        <pt x="238" y="793" on="0"/>
        <pt x="215" y="821" on="0"/>
        <pt x="195" y="821" on="1"/>
        <pt x="175" y="821" on="0"/>
        <pt x="152" y="793" on="0"/>
        <pt x="152" y="774" on="1"/>
        <pt x="152" y="754" on="0"/>
        <pt x="175" y="725" on="0"/>
        <pt x="195" y="725" on="1"/>
        <pt x="215" y="725" on="0"/>
        <pt x="238" y="754" on="0"/>
      </contour>
    </TTGlyph>
    <TTGlyph name="Aringacute" xMin="14" yMin="0" xMax="372" yMax="999">
      <component glyphName="acute" x="39" y="394" flags="0x4"/>
      <component glyphName="Aring" x="0" y="0" flags="0x4"/>
    </TTGlyph>
    <TTGlyph name="Atilde" xMin="14" yMin="0" xMax="372" yMax="853">
      <component glyphName="A" x="0" y="0" flags="0x204"/>
      <component glyphName="tilde" x="-4" y="293" flags="0x4"/>
    </TTGlyph>
    <TTGlyph name="B" xMin="53" yMin="-6" xMax="343" yMax="739">
      <contour>
        <pt x="343" y="198" on="1"/>
        <pt x="343" y="102" on="0"/>
        <pt x="234" y="-6" on="0"/>
        <pt x="138" y="-6" on="1"/>
        <pt x="118" y="-6" on="0"/>
        <pt x="67" y="-1" on="0"/>
        <pt x="53" y="2" on="1"/>
        <pt x="53" y="731" on="1"/>
        <pt x="74" y="736" on="0"/>
        <pt x="122" y="739" on="0"/>
        <pt x="142" y="739" on="1"/>
        <pt x="191" y="739" on="0"/>
        <pt x="263" y="709" on="0"/>
        <pt x="310" y="658" on="0"/>
        <pt x="333" y="592" on="0"/>
        <pt x="333" y="556" on="1"/>
        <pt x="333" y="488" on="0"/>
        <pt x="271" y="398" on="0"/>
        <pt x="221" y="378" on="1"/>
        <pt x="277" y="361" on="0"/>
        <pt x="343" y="266" on="0"/>
      </contour>
      <contour>
        <pt x="282" y="550" on="1"/>
        <pt x="282" y="616" on="0"/>
        <pt x="209" y="693" on="0"/>
        <pt x="141" y="693" on="1"/>
        <pt x="133" y="693" on="0"/>
        <pt x="112" y="692" on="0"/>
        <pt x="103" y="690" on="1"/>
        <pt x="103" y="400" on="1"/>
        <pt x="109" y="399" on="0"/>
        <pt x="131" y="399" on="0"/>
        <pt x="141" y="399" on="1"/>
        <pt x="204" y="399" on="0"/>
        <pt x="282" y="480" on="0"/>
      </contour>
      <contour>
        <pt x="292" y="201" on="1"/>
        <pt x="292" y="273" on="0"/>
        <pt x="208" y="357" on="0"/>
        <pt x="141" y="357" on="1"/>
        <pt x="134" y="357" on="0"/>
        <pt x="109" y="356" on="0"/>
        <pt x="103" y="355" on="1"/>
        <pt x="103" y="45" on="1"/>
        <pt x="113" y="43" on="0"/>
        <pt x="137" y="41" on="0"/>
        <pt x="147" y="41" on="1"/>
        <pt x="178" y="41" on="0"/>
        <pt x="231" y="60" on="0"/>
        <pt x="270" y="100" on="0"/>
        <pt x="292" y="160" on="0"/>
      </contour>
    </TTGlyph>
    <TTGlyph name="C" xMin="34" yMin="-10" xMax="331" yMax="743">
      <contour>
        <pt x="329" y="35" on="1"/>
        <pt x="307" y="16" on="0"/>
        <pt x="255" y="-10" on="0"/>
        <pt x="224" y="-10" on="1"/>
        <pt x="140" y="-10" on="0"/>
        <pt x="34" y="177" on="0"/>
        <pt x="34" y="364" on="1"/>
        <pt x="34" y="453" on="0"/>
        <pt x="62" y="594" on="0"/>
        <pt x="112" y="691" on="0"/>
        <pt x="182" y="743" on="0"/>
        <pt x="225" y="743" on="1"/>
        <pt x="259" y="743" on="0"/>
        <pt x="309" y="720" on="0"/>
        <pt x="331" y="701" on="1"/>
        <pt x="306" y="660" on="1"/>
        <pt x="288" y="676" on="0"/>
        <pt x="247" y="696" on="0"/>
        <pt x="222" y="696" on="1"/>
        <pt x="192" y="696" on="0"/>
        <pt x="142" y="652" on="0"/>
        <pt x="106" y="567" on="0"/>
        <pt x="86" y="445" on="0"/>
        <pt x="86" y="367" on="1"/>
        <pt x="86" y="203" on="0"/>
        <pt x="166" y="37" on="0"/>
        <pt x="226" y="37" on="1"/>
        <pt x="249" y="37" on="0"/>
        <pt x="288" y="57" on="0"/>
        <pt x="306" y="73" on="1"/>
        <pt x="329" y="35" on="1"/>
      </contour>
    </TTGlyph>
    <TTGlyph name="Cacute" xMin="34" yMin="-10" xMax="331" yMax="898">
      <component glyphName="acute" x="59" y="293" flags="0x4"/>
      <component glyphName="C" x="0" y="0" flags="0x4"/>
    </TTGlyph>
    <TTGlyph name="Ccaron" xMin="34" yMin="-10" xMax="331" yMax="888">
      <component glyphName="caron" x="15" y="293" flags="0x4"/>
      <component glyphName="C" x="0" y="0" flags="0x4"/>
    </TTGlyph>
    <TTGlyph name="Ccedilla" xMin="34" yMin="-174" xMax="331" yMax="743">
      <contour>
        <pt x="277" y="-110" on="1"/>
        <pt x="277" y="-136" on="0"/>
        <pt x="240" y="-174" on="0"/>
        <pt x="204" y="-174" on="1"/>
        <pt x="185" y="-174" on="0"/>
        <pt x="147" y="-161" on="0"/>
        <pt x="128" y="-150" on="1"/>
        <pt x="143" y="-120" on="1"/>
        <pt x="175" y="-141" on="0"/>
        <pt x="205" y="-141" on="1"/>
        <pt x="222" y="-141" on="0"/>
        <pt x="241" y="-124" on="0"/>
        <pt x="241" y="-112" on="1"/>
        <pt x="241" y="-96" on="0"/>
        <pt x="206" y="-71" on="0"/>
        <pt x="167" y="-67" on="1"/>
        <pt x="165" y="-62" on="1"/>
        <pt x="180" y="-3" on="1"/>
        <pt x="114" y="19" on="0"/>
        <pt x="34" y="201" on="0"/>
        <pt x="34" y="364" on="1"/>
        <pt x="34" y="453" on="0"/>
        <pt x="62" y="594" on="0"/>
        <pt x="112" y="691" on="0"/>
        <pt x="182" y="743" on="0"/>
        <pt x="225" y="743" on="1"/>
        <pt x="259" y="743" on="0"/>
        <pt x="309" y="720" on="0"/>
        <pt x="331" y="701" on="1"/>
        <pt x="306" y="660" on="1"/>
        <pt x="288" y="676" on="0"/>
        <pt x="247" y="696" on="0"/>
        <pt x="222" y="696" on="1"/>
        <pt x="192" y="696" on="0"/>
        <pt x="142" y="652" on="0"/>
        <pt x="106" y="567" on="0"/>
        <pt x="86" y="445" on="0"/>
        <pt x="86" y="367" on="1"/>
        <pt x="86" y="203" on="0"/>
        <pt x="166" y="37" on="0"/>
        <pt x="226" y="37" on="1"/>
        <pt x="249" y="37" on="0"/>
        <pt x="288" y="57" on="0"/>
        <pt x="306" y="73" on="1"/>
        <pt x="329" y="35" on="1"/>
        <pt x="307" y="16" on="0"/>
        <pt x="255" y="-10" on="0"/>
        <pt x="224" y="-10" on="1"/>
        <pt x="215" y="-10" on="0"/>
        <pt x="211" y="-9" on="1"/>
        <pt x="203" y="-40" on="1"/>
        <pt x="244" y="-50" on="0"/>
        <pt x="277" y="-88" on="0"/>
      </contour>
    </TTGlyph>
    <TTGlyph name="Cdotaccent" xMin="34" yMin="-10" xMax="331" yMax="851">
      <component glyphName="C" x="0" y="0" flags="0x204"/>
      <component glyphName="dotaccent" x="15" y="293" flags="0x4"/>
    </TTGlyph>
    <TTGlyph name="D" xMin="56" yMin="-6" xMax="379" yMax="739">
      <contour>
        <pt x="379" y="368" on="1"/>
        <pt x="379" y="286" on="0"/>
        <pt x="346" y="149" on="0"/>
        <pt x="283" y="50" on="0"/>
        <pt x="193" y="-6" on="0"/>
        <pt x="136" y="-6" on="1"/>
        <pt x="94" y="-6" on="0"/>
        <pt x="56" y="2" on="1"/>
        <pt x="56" y="733" on="1"/>
        <pt x="73" y="736" on="0"/>
        <pt x="114" y="739" on="0"/>
        <pt x="135" y="739" on="1"/>
        <pt x="193" y="739" on="0"/>
        <pt x="284" y="682" on="0"/>
        <pt x="347" y="583" on="0"/>
        <pt x="379" y="447" on="0"/>
      </contour>
      <contour>
        <pt x="327" y="368" on="1"/>
        <pt x="327" y="438" on="0"/>
        <pt x="301" y="557" on="0"/>
        <pt x="252" y="644" on="0"/>
        <pt x="182" y="693" on="0"/>
        <pt x="138" y="693" on="1"/>
        <pt x="129" y="693" on="0"/>
        <pt x="113" y="692" on="0"/>
        <pt x="107" y="691" on="1"/>
        <pt x="107" y="43" on="1"/>
        <pt x="120" y="40" on="0"/>
        <pt x="138" y="40" on="1"/>
        <pt x="225" y="40" on="0"/>
        <pt x="327" y="211" on="0"/>
      </contour>
    </TTGlyph>
    <TTGlyph name="Dcaron" xMin="56" yMin="-6" xMax="379" yMax="878">
      <component glyphName="caron" x="-13" y="283" flags="0x4"/>
      <component glyphName="D" x="0" y="0" flags="0x4"/>
    </TTGlyph>
    <TTGlyph name="Dcroat" xMin="29" yMin="-7" xMax="388" yMax="740">
      <component glyphName="Eth" x="0" y="0" flags="0x204"/>
    </TTGlyph>
    <TTGlyph name="E" xMin="56" yMin="0" xMax="302" yMax="733">
      <contour>
        <pt x="56" y="0" on="1"/>
        <pt x="56" y="733" on="1"/>
        <pt x="302" y="733" on="1"/>
        <pt x="302" y="686" on="1"/>
        <pt x="107" y="686" on="1"/>
        <pt x="107" y="400" on="1"/>
        <pt x="289" y="400" on="1"/>
        <pt x="289" y="352" on="1"/>
        <pt x="107" y="352" on="1"/>
        <pt x="107" y="48" on="1"/>
        <pt x="302" y="48" on="1"/>
        <pt x="302" y="0" on="1"/>
      </contour>
    </TTGlyph>
    <TTGlyph name="Eacute" xMin="56" yMin="0" xMax="302" yMax="888">
      <component glyphName="acute" x="23" y="283" flags="0x4"/>
      <component glyphName="E" x="0" y="0" flags="0x4"/>
    </TTGlyph>
    <TTGlyph name="Ebreve" xMin="56" yMin="0" xMax="302" yMax="867">
      <component glyphName="E" x="0" y="0" flags="0x204"/>
      <component glyphName="breve" x="-20" y="283" flags="0x4"/>
    </TTGlyph>
    <TTGlyph name="Ecaron" xMin="56" yMin="0" xMax="302" yMax="878">
      <component glyphName="caron" x="-20" y="283" flags="0x4"/>
      <component glyphName="E" x="0" y="0" flags="0x4"/>
    </TTGlyph>
    <TTGlyph name="Ecircumflex" xMin="56" yMin="0" xMax="302" yMax="880">
      <component glyphName="circumflex" x="-22" y="283" flags="0x4"/>
      <component glyphName="E" x="0" y="0" flags="0x4"/>
    </TTGlyph>
    <TTGlyph name="Edieresis" xMin="56" yMin="0" xMax="302" yMax="841">
      <component glyphName="dieresis" x="-20" y="283" flags="0x4"/>
      <component glyphName="E" x="0" y="0" flags="0x4"/>
    </TTGlyph>
    <TTGlyph name="Edotaccent" xMin="56" yMin="0" xMax="302" yMax="841">
      <component glyphName="E" x="0" y="0" flags="0x204"/>
      <component glyphName="dotaccent" x="-20" y="283" flags="0x4"/>
    </TTGlyph>
    <TTGlyph name="Egrave" xMin="56" yMin="0" xMax="302" yMax="888">
      <component glyphName="E" x="0" y="0" flags="0x204"/>
      <component glyphName="grave" x="-68" y="283" flags="0x4"/>
    </TTGlyph>
    <TTGlyph name="Emacron" xMin="56" yMin="0" xMax="302" yMax="821">
      <component glyphName="E" x="0" y="0" flags="0x204"/>
      <component glyphName="macron" x="-20" y="283" flags="0x4"/>
    </TTGlyph>
    <TTGlyph name="Eogonek" xMin="56" yMin="-189" xMax="307" yMax="733">
      <contour>
        <pt x="286" y="0" on="1"/>
        <pt x="256" y="-38" on="0"/>
        <pt x="235" y="-92" on="0"/>
        <pt x="235" y="-114" on="1"/>
        <pt x="235" y="-131" on="0"/>
        <pt x="250" y="-151" on="0"/>
        <pt x="262" y="-151" on="1"/>
        <pt x="279" y="-151" on="0"/>
        <pt x="291" y="-139" on="1"/>
        <pt x="307" y="-165" on="1"/>
        <pt x="298" y="-175" on="0"/>
        <pt x="271" y="-189" on="0"/>
        <pt x="254" y="-189" on="1"/>
        <pt x="227" y="-189" on="0"/>
        <pt x="195" y="-152" on="0"/>
        <pt x="195" y="-122" on="1"/>
        <pt x="195" y="-98" on="0"/>
        <pt x="218" y="-41" on="0"/>
        <pt x="250" y="0" on="1"/>
        <pt x="56" y="0" on="1"/>
        <pt x="56" y="733" on="1"/>
        <pt x="302" y="733" on="1"/>
        <pt x="302" y="686" on="1"/>
        <pt x="107" y="686" on="1"/>
        <pt x="107" y="400" on="1"/>
        <pt x="289" y="400" on="1"/>
        <pt x="289" y="352" on="1"/>
        <pt x="107" y="352" on="1"/>
        <pt x="107" y="48" on="1"/>
        <pt x="302" y="48" on="1"/>
        <pt x="302" y="0" on="1"/>
      </contour>
    </TTGlyph>
    <TTGlyph name="Eth" xMin="29" yMin="-7" xMax="388" yMax="740">
      <contour>
        <pt x="388" y="368" on="1"/>
        <pt x="388" y="286" on="0"/>
        <pt x="355" y="148" on="0"/>
        <pt x="292" y="49" on="0"/>
        <pt x="202" y="-7" on="0"/>
        <pt x="145" y="-7" on="1"/>
        <pt x="103" y="-7" on="0"/>
        <pt x="65" y="1" on="1"/>
        <pt x="65" y="349" on="1"/>
        <pt x="29" y="349" on="1"/>
        <pt x="29" y="396" on="1"/>
        <pt x="65" y="396" on="1"/>
        <pt x="65" y="733" on="1"/>
        <pt x="82" y="736" on="0"/>
        <pt x="123" y="740" on="0"/>
        <pt x="144" y="740" on="1"/>
        <pt x="202" y="740" on="0"/>
        <pt x="293" y="683" on="0"/>
        <pt x="356" y="583" on="0"/>
        <pt x="388" y="447" on="0"/>
      </contour>
      <contour>
        <pt x="336" y="368" on="1"/>
        <pt x="336" y="438" on="0"/>
        <pt x="310" y="558" on="0"/>
        <pt x="261" y="645" on="0"/>
        <pt x="191" y="694" on="0"/>
        <pt x="147" y="694" on="1"/>
        <pt x="128" y="694" on="0"/>
        <pt x="116" y="691" on="1"/>
        <pt x="116" y="396" on="1"/>
        <pt x="215" y="396" on="1"/>
        <pt x="215" y="349" on="1"/>
        <pt x="116" y="349" on="1"/>
        <pt x="116" y="42" on="1"/>
        <pt x="129" y="39" on="0"/>
        <pt x="147" y="39" on="1"/>
        <pt x="234" y="39" on="0"/>
        <pt x="336" y="211" on="0"/>
      </contour>
    </TTGlyph>
    <TTGlyph name="Euro" xMin="14" yMin="-10" xMax="351" yMax="730">
      <contour>
        <pt x="14" y="417" on="1"/>
        <pt x="14" y="459" on="1"/>
        <pt x="67" y="459" on="1"/>
        <pt x="81" y="590" on="0"/>
        <pt x="176" y="730" on="0"/>
        <pt x="247" y="730" on="1"/>
        <pt x="280" y="730" on="0"/>
        <pt x="329" y="707" on="0"/>
        <pt x="351" y="688" on="1"/>
        <pt x="326" y="647" on="1"/>
        <pt x="309" y="663" on="0"/>
        <pt x="268" y="683" on="0"/>
        <pt x="244" y="683" on="1"/>
        <pt x="195" y="683" on="0"/>
        <pt x="129" y="568" on="0"/>
        <pt x="118" y="459" on="1"/>
        <pt x="300" y="459" on="1"/>
        <pt x="300" y="417" on="1"/>
        <pt x="114" y="417" on="1"/>
        <pt x="113" y="403" on="0"/>
        <pt x="113" y="376" on="0"/>
        <pt x="113" y="361" on="1"/>
        <pt x="113" y="343" on="0"/>
        <pt x="114" y="311" on="0"/>
        <pt x="115" y="296" on="1"/>
        <pt x="300" y="296" on="1"/>
        <pt x="300" y="254" on="1"/>
        <pt x="119" y="254" on="1"/>
        <pt x="129" y="146" on="0"/>
        <pt x="201" y="37" on="0"/>
        <pt x="249" y="37" on="1"/>
        <pt x="270" y="37" on="0"/>
        <pt x="309" y="57" on="0"/>
        <pt x="326" y="73" on="1"/>
        <pt x="349" y="35" on="1"/>
        <pt x="328" y="16" on="0"/>
        <pt x="276" y="-10" on="0"/>
        <pt x="246" y="-10" on="1"/>
        <pt x="177" y="-10" on="0"/>
        <pt x="81" y="120" on="0"/>
        <pt x="67" y="254" on="1"/>
        <pt x="14" y="254" on="1"/>
        <pt x="14" y="296" on="1"/>
        <pt x="63" y="296" on="1"/>
        <pt x="62" y="310" on="0"/>
        <pt x="62" y="340" on="0"/>
        <pt x="62" y="357" on="1"/>
        <pt x="62" y="373" on="0"/>
        <pt x="62" y="403" on="0"/>
        <pt x="63" y="417" on="1"/>
      </contour>
    </TTGlyph>
    <TTGlyph name="Euro.lin" xMin="14" yMin="-10" xMax="351" yMax="730">
      <contour>
        <pt x="14" y="417" on="1"/>
        <pt x="14" y="459" on="1"/>
        <pt x="67" y="459" on="1"/>
        <pt x="81" y="590" on="0"/>
        <pt x="176" y="730" on="0"/>
        <pt x="247" y="730" on="1"/>
        <pt x="280" y="730" on="0"/>
        <pt x="329" y="707" on="0"/>
        <pt x="351" y="688" on="1"/>
        <pt x="326" y="647" on="1"/>
        <pt x="309" y="663" on="0"/>
        <pt x="268" y="683" on="0"/>
        <pt x="244" y="683" on="1"/>
        <pt x="195" y="683" on="0"/>
        <pt x="129" y="568" on="0"/>
        <pt x="118" y="459" on="1"/>
        <pt x="300" y="459" on="1"/>
        <pt x="300" y="417" on="1"/>
        <pt x="114" y="417" on="1"/>
        <pt x="113" y="403" on="0"/>
        <pt x="113" y="376" on="0"/>
        <pt x="113" y="361" on="1"/>
        <pt x="113" y="343" on="0"/>
        <pt x="114" y="311" on="0"/>
        <pt x="115" y="296" on="1"/>
        <pt x="300" y="296" on="1"/>
        <pt x="300" y="254" on="1"/>
        <pt x="119" y="254" on="1"/>
        <pt x="129" y="146" on="0"/>
        <pt x="201" y="37" on="0"/>
        <pt x="249" y="37" on="1"/>
        <pt x="270" y="37" on="0"/>
        <pt x="309" y="57" on="0"/>
        <pt x="326" y="73" on="1"/>
        <pt x="349" y="35" on="1"/>
        <pt x="328" y="16" on="0"/>
        <pt x="276" y="-10" on="0"/>
        <pt x="246" y="-10" on="1"/>
        <pt x="177" y="-10" on="0"/>
        <pt x="81" y="120" on="0"/>
        <pt x="67" y="254" on="1"/>
        <pt x="14" y="254" on="1"/>
        <pt x="14" y="296" on="1"/>
        <pt x="63" y="296" on="1"/>
        <pt x="62" y="310" on="0"/>
        <pt x="62" y="340" on="0"/>
        <pt x="62" y="357" on="1"/>
        <pt x="62" y="373" on="0"/>
        <pt x="62" y="403" on="0"/>
        <pt x="63" y="417" on="1"/>
      </contour>
    </TTGlyph>
    <TTGlyph name="F" xMin="56" yMin="0" xMax="298" yMax="733">
      <contour>
        <pt x="107" y="686" on="1"/>
        <pt x="107" y="402" on="1"/>
        <pt x="280" y="402" on="1"/>
        <pt x="280" y="354" on="1"/>
        <pt x="107" y="354" on="1"/>
        <pt x="107" y="0" on="1"/>
        <pt x="56" y="0" on="1"/>
        <pt x="56" y="733" on="1"/>
        <pt x="298" y="733" on="1"/>
        <pt x="298" y="686" on="1"/>
      </contour>
    </TTGlyph>
    <TTGlyph name="G" xMin="34" yMin="-9" xMax="349" yMax="743">
      <contour>
        <pt x="349" y="385" on="1"/>
        <pt x="349" y="31" on="1"/>
        <pt x="327" y="11" on="0"/>
        <pt x="267" y="-9" on="0"/>
        <pt x="235" y="-9" on="1"/>
        <pt x="140" y="-9" on="0"/>
        <pt x="34" y="182" on="0"/>
        <pt x="34" y="366" on="1"/>
        <pt x="34" y="456" on="0"/>
        <pt x="63" y="597" on="0"/>
        <pt x="116" y="693" on="0"/>
        <pt x="191" y="743" on="0"/>
        <pt x="236" y="743" on="1"/>
        <pt x="273" y="743" on="0"/>
        <pt x="329" y="713" on="0"/>
        <pt x="349" y="693" on="1"/>
        <pt x="321" y="654" on="1"/>
        <pt x="301" y="673" on="0"/>
        <pt x="262" y="696" on="0"/>
        <pt x="235" y="696" on="1"/>
        <pt x="169" y="696" on="0"/>
        <pt x="86" y="531" on="0"/>
        <pt x="86" y="369" on="1"/>
        <pt x="86" y="204" on="0"/>
        <pt x="165" y="37" on="0"/>
        <pt x="237" y="37" on="1"/>
        <pt x="274" y="37" on="0"/>
        <pt x="299" y="56" on="1"/>
        <pt x="299" y="338" on="1"/>
        <pt x="199" y="338" on="1"/>
        <pt x="199" y="385" on="1"/>
      </contour>
    </TTGlyph>
    <TTGlyph name="G.alt" xMin="34" yMin="-9" xMax="361" yMax="743">
      <contour>
        <pt x="361" y="385" on="1"/>
        <pt x="361" y="299" on="0"/>
        <pt x="347" y="155" on="0"/>
        <pt x="312" y="50" on="0"/>
        <pt x="252" y="-9" on="0"/>
        <pt x="205" y="-9" on="1"/>
        <pt x="162" y="-9" on="0"/>
        <pt x="98" y="46" on="0"/>
        <pt x="55" y="146" on="0"/>
        <pt x="34" y="283" on="0"/>
        <pt x="34" y="366" on="1"/>
        <pt x="34" y="454" on="0"/>
        <pt x="59" y="594" on="0"/>
        <pt x="107" y="692" on="0"/>
        <pt x="176" y="743" on="0"/>
        <pt x="219" y="743" on="1"/>
        <pt x="255" y="743" on="0"/>
        <pt x="318" y="699" on="0"/>
        <pt x="338" y="663" on="1"/>
        <pt x="303" y="631" on="1"/>
        <pt x="286" y="660" on="0"/>
        <pt x="245" y="697" on="0"/>
        <pt x="216" y="697" on="1"/>
        <pt x="157" y="697" on="0"/>
        <pt x="86" y="528" on="0"/>
        <pt x="86" y="369" on="1"/>
        <pt x="86" y="208" on="0"/>
        <pt x="151" y="36" on="0"/>
        <pt x="207" y="36" on="1"/>
        <pt x="261" y="36" on="0"/>
        <pt x="311" y="191" on="0"/>
        <pt x="312" y="338" on="1"/>
        <pt x="194" y="338" on="1"/>
        <pt x="194" y="385" on="1"/>
      </contour>
    </TTGlyph>
    <TTGlyph name="Gbreve" xMin="34" yMin="-9" xMax="349" yMax="877">
      <component glyphName="G" x="0" y="0" flags="0x204"/>
      <component glyphName="breve" x="23" y="293" flags="0x4"/>
    </TTGlyph>
    <TTGlyph name="Gbreve.alt" xMin="34" yMin="-9" xMax="361" yMax="877">
      <component glyphName="G.alt" x="0" y="0" flags="0x204"/>
      <component glyphName="breve" x="13" y="293" flags="0x4"/>
    </TTGlyph>
    <TTGlyph name="Gcommaaccent" xMin="34" yMin="-222" xMax="349" yMax="743">
      <component glyphName="commaaccent" x="159" y="0" flags="0x4"/>
      <component glyphName="G" x="0" y="0" flags="0x4"/>
    </TTGlyph>
    <TTGlyph name="Gcommaaccent.alt" xMin="34" yMin="-222" xMax="361" yMax="743">
      <component glyphName="commaaccent" x="141" y="0" flags="0x4"/>
      <component glyphName="G.alt" x="0" y="0" flags="0x4"/>
    </TTGlyph>
    <TTGlyph name="Gdotaccent" xMin="34" yMin="-9" xMax="349" yMax="851">
      <component glyphName="G" x="0" y="0" flags="0x204"/>
      <component glyphName="dotaccent" x="23" y="293" flags="0x4"/>
    </TTGlyph>
    <TTGlyph name="Gdotaccent.alt" xMin="34" yMin="-9" xMax="361" yMax="851">
      <component glyphName="G.alt" x="0" y="0" flags="0x4"/>
      <component glyphName="dotaccent" x="13" y="293" flags="0x4"/>
    </TTGlyph>
    <TTGlyph name="H" xMin="56" yMin="0" xMax="363" yMax="733">
      <contour>
        <pt x="313" y="0" on="1"/>
        <pt x="313" y="350" on="1"/>
        <pt x="107" y="350" on="1"/>
        <pt x="107" y="0" on="1"/>
        <pt x="56" y="0" on="1"/>
        <pt x="56" y="733" on="1"/>
        <pt x="107" y="733" on="1"/>
        <pt x="107" y="398" on="1"/>
        <pt x="313" y="398" on="1"/>
        <pt x="313" y="733" on="1"/>
        <pt x="363" y="733" on="1"/>
        <pt x="363" y="0" on="1"/>
      </contour>
    </TTGlyph>
    <TTGlyph name="Hbar" xMin="6" yMin="0" xMax="413" yMax="733">
      <contour>
        <pt x="313" y="0" on="1"/>
        <pt x="313" y="350" on="1"/>
        <pt x="107" y="350" on="1"/>
        <pt x="107" y="0" on="1"/>
        <pt x="56" y="0" on="1"/>
        <pt x="56" y="558" on="1"/>
        <pt x="6" y="558" on="1"/>
        <pt x="6" y="598" on="1"/>
        <pt x="56" y="598" on="1"/>
        <pt x="56" y="733" on="1"/>
        <pt x="107" y="733" on="1"/>
        <pt x="107" y="598" on="1"/>
        <pt x="313" y="598" on="1"/>
        <pt x="313" y="733" on="1"/>
        <pt x="363" y="733" on="1"/>
        <pt x="363" y="598" on="1"/>
        <pt x="413" y="598" on="1"/>
        <pt x="413" y="558" on="1"/>
        <pt x="363" y="558" on="1"/>
        <pt x="363" y="0" on="1"/>
      </contour>
      <contour>
        <pt x="313" y="398" on="1"/>
        <pt x="313" y="558" on="1"/>
        <pt x="107" y="558" on="1"/>
        <pt x="107" y="398" on="1"/>
      </contour>
    </TTGlyph>
    <TTGlyph name="I" xMin="60" yMin="0" xMax="111" yMax="733">
      <contour>
        <pt x="60" y="0" on="1"/>
        <pt x="60" y="733" on="1"/>
        <pt x="111" y="733" on="1"/>
        <pt x="111" y="0" on="1"/>
      </contour>
    </TTGlyph>
    <TTGlyph name="Iacute" xMin="53" yMin="0" xMax="198" yMax="888">
      <component glyphName="I" x="0" y="0" flags="0x204"/>
      <component glyphName="acute" x="-69" y="283" flags="0x4"/>
    </TTGlyph>
    <TTGlyph name="Ibreve" xMin="-2" yMin="0" xMax="175" yMax="867">
      <component glyphName="I" x="0" y="0" flags="0x204"/>
      <component glyphName="breve" x="-114" y="283" flags="0x4"/>
    </TTGlyph>
    <TTGlyph name="Icircumflex" xMin="-13" yMin="0" xMax="185" yMax="880">
      <component glyphName="I" x="0" y="0" flags="0x204"/>
      <component glyphName="circumflex" x="-116" y="283" flags="0x4"/>
    </TTGlyph>
    <TTGlyph name="Idieresis" xMin="-1" yMin="0" xMax="174" yMax="841">
      <component glyphName="I" x="0" y="0" flags="0x204"/>
      <component glyphName="dieresis" x="-114" y="283" flags="0x4"/>
    </TTGlyph>
    <TTGlyph name="Idotaccent" xMin="54" yMin="0" xMax="119" yMax="841">
      <component glyphName="I" x="0" y="0" flags="0x204"/>
      <component glyphName="dotaccent" x="-114" y="283" flags="0x4"/>
    </TTGlyph>
    <TTGlyph name="Igrave" xMin="-29" yMin="0" xMax="116" yMax="888">
      <component glyphName="I" x="0" y="0" flags="0x204"/>
      <component glyphName="grave" x="-161" y="283" flags="0x4"/>
    </TTGlyph>
    <TTGlyph name="Imacron" xMin="-11" yMin="0" xMax="184" yMax="821">
      <component glyphName="I" x="0" y="0" flags="0x204"/>
      <component glyphName="macron" x="-114" y="283" flags="0x4"/>
    </TTGlyph>
    <TTGlyph name="Iogonek" xMin="18" yMin="-189" xMax="128" yMax="733">
      <contour>
        <pt x="128" y="-165" on="1"/>
        <pt x="119" y="-175" on="0"/>
        <pt x="93" y="-189" on="0"/>
        <pt x="76" y="-189" on="1"/>
        <pt x="49" y="-189" on="0"/>
        <pt x="18" y="-152" on="0"/>
        <pt x="18" y="-120" on="1"/>
        <pt x="18" y="-96" on="0"/>
        <pt x="37" y="-42" on="0"/>
        <pt x="66" y="0" on="1"/>
        <pt x="60" y="0" on="1"/>
        <pt x="60" y="733" on="1"/>
        <pt x="111" y="733" on="1"/>
        <pt x="111" y="0" on="1"/>
        <pt x="102" y="0" on="1"/>
        <pt x="74" y="-40" on="0"/>
        <pt x="56" y="-92" on="0"/>
        <pt x="56" y="-113" on="1"/>
        <pt x="56" y="-152" on="0"/>
        <pt x="84" y="-152" on="1"/>
        <pt x="92" y="-152" on="0"/>
        <pt x="108" y="-146" on="0"/>
        <pt x="114" y="-140" on="1"/>
        <pt x="128" y="-165" on="1"/>
      </contour>
    </TTGlyph>
    <TTGlyph name="J" xMin="3" yMin="-11" xMax="225" yMax="735">
      <contour>
        <pt x="225" y="128" on="1"/>
        <pt x="225" y="62" on="0"/>
        <pt x="162" y="-11" on="0"/>
        <pt x="108" y="-11" on="1"/>
        <pt x="76" y="-11" on="0"/>
        <pt x="24" y="14" on="0"/>
        <pt x="3" y="32" on="1"/>
        <pt x="29" y="72" on="1"/>
        <pt x="70" y="36" on="0"/>
        <pt x="108" y="36" on="1"/>
        <pt x="140" y="36" on="0"/>
        <pt x="175" y="85" on="0"/>
        <pt x="175" y="132" on="1"/>
        <pt x="175" y="735" on="1"/>
        <pt x="225" y="735" on="1"/>
      </contour>
    </TTGlyph>
    <TTGlyph name="K" xMin="56" yMin="0" xMax="348" yMax="733">
      <contour>
        <pt x="291" y="0" on="1"/>
        <pt x="107" y="362" on="1"/>
        <pt x="107" y="0" on="1"/>
        <pt x="56" y="0" on="1"/>
        <pt x="56" y="733" on="1"/>
        <pt x="107" y="733" on="1"/>
        <pt x="107" y="387" on="1"/>
        <pt x="287" y="733" on="1"/>
        <pt x="343" y="733" on="1"/>
        <pt x="153" y="379" on="1"/>
        <pt x="348" y="0" on="1"/>
      </contour>
    </TTGlyph>
    <TTGlyph name="Kcommaaccent" xMin="56" yMin="-212" xMax="348" yMax="733">
      <component glyphName="commaaccent" x="127" y="10" flags="0x4"/>
      <component glyphName="K" x="0" y="0" flags="0x4"/>
    </TTGlyph>
    <TTGlyph name="L" xMin="56" yMin="0" xMax="293" yMax="733">
      <contour>
        <pt x="56" y="0" on="1"/>
        <pt x="56" y="733" on="1"/>
        <pt x="107" y="733" on="1"/>
        <pt x="107" y="47" on="1"/>
        <pt x="293" y="47" on="1"/>
        <pt x="293" y="0" on="1"/>
      </contour>
    </TTGlyph>
    <TTGlyph name="Lacute" xMin="56" yMin="0" xMax="293" yMax="888">
      <component glyphName="acute" x="-60" y="283" flags="0x4"/>
      <component glyphName="L" x="0" y="0" flags="0x4"/>
    </TTGlyph>
    <TTGlyph name="Lcaron" xMin="56" yMin="0" xMax="293" yMax="735">
      <component glyphName="caron.alt" x="101" y="-3" flags="0x4"/>
      <component glyphName="L" x="0" y="0" flags="0x4"/>
    </TTGlyph>
    <TTGlyph name="Lcommaaccent" xMin="56" yMin="-222" xMax="293" yMax="733">
      <component glyphName="commaaccent" x="110" y="0" flags="0x4"/>
      <component glyphName="L" x="0" y="0" flags="0x4"/>
    </TTGlyph>
    <TTGlyph name="Ldot" xMin="56" yMin="0" xMax="293" yMax="733">
      <component glyphName="L" x="0" y="0" flags="0x204"/>
      <component glyphName="dotaccent" x="32" y="-158" flags="0x4"/>
    </TTGlyph>
    <TTGlyph name="Lslash" xMin="8" yMin="0" xMax="303" yMax="733">
      <contour>
        <pt x="67" y="0" on="1"/>
        <pt x="67" y="324" on="1"/>
        <pt x="8" y="298" on="1"/>
        <pt x="8" y="350" on="1"/>
        <pt x="67" y="376" on="1"/>
        <pt x="67" y="733" on="1"/>
        <pt x="117" y="733" on="1"/>
        <pt x="117" y="399" on="1"/>
        <pt x="215" y="444" on="1"/>
        <pt x="215" y="391" on="1"/>
        <pt x="117" y="347" on="1"/>
        <pt x="117" y="47" on="1"/>
        <pt x="303" y="47" on="1"/>
        <pt x="303" y="0" on="1"/>
      </contour>
    </TTGlyph>
    <TTGlyph name="M" xMin="51" yMin="0" xMax="437" yMax="736">
      <contour>
        <pt x="387" y="0" on="1"/>
        <pt x="381" y="549" on="1"/>
        <pt x="251" y="158" on="1"/>
        <pt x="238" y="158" on="1"/>
        <pt x="104" y="551" on="1"/>
        <pt x="100" y="0" on="1"/>
        <pt x="51" y="0" on="1"/>
        <pt x="64" y="735" on="1"/>
        <pt x="88" y="736" on="1"/>
        <pt x="245" y="270" on="1"/>
        <pt x="400" y="736" on="1"/>
        <pt x="423" y="735" on="1"/>
        <pt x="437" y="0" on="1"/>
      </contour>
    </TTGlyph>
    <TTGlyph name="M.alt" xMin="51" yMin="0" xMax="437" yMax="736">
      <contour>
        <pt x="387" y="0" on="1"/>
        <pt x="381" y="549" on="1"/>
        <pt x="251" y="158" on="1"/>
        <pt x="238" y="158" on="1"/>
        <pt x="104" y="551" on="1"/>
        <pt x="100" y="0" on="1"/>
        <pt x="51" y="0" on="1"/>
        <pt x="64" y="735" on="1"/>
        <pt x="88" y="736" on="1"/>
        <pt x="245" y="270" on="1"/>
        <pt x="400" y="736" on="1"/>
        <pt x="423" y="735" on="1"/>
        <pt x="437" y="0" on="1"/>
      </contour>
    </TTGlyph>
    <TTGlyph name="N" xMin="56" yMin="-2" xMax="365" yMax="735">
      <contour>
        <pt x="344" y="-2" on="1"/>
        <pt x="105" y="560" on="1"/>
        <pt x="106" y="0" on="1"/>
        <pt x="56" y="0" on="1"/>
        <pt x="56" y="733" on="1"/>
        <pt x="78" y="735" on="1"/>
        <pt x="316" y="173" on="1"/>
        <pt x="316" y="733" on="1"/>
        <pt x="365" y="733" on="1"/>
        <pt x="365" y="-1" on="1"/>
      </contour>
    </TTGlyph>
    <TTGlyph name="Nacute" xMin="56" yMin="-2" xMax="365" yMax="888">
      <component glyphName="acute" x="55" y="283" flags="0x4"/>
      <component glyphName="N" x="0" y="0" flags="0x4"/>
    </TTGlyph>
    <TTGlyph name="Ncaron" xMin="56" yMin="-2" xMax="365" yMax="878">
      <component glyphName="caron" x="10" y="283" flags="0x4"/>
      <component glyphName="N" x="0" y="0" flags="0x4"/>
    </TTGlyph>
    <TTGlyph name="Ncommaaccent" xMin="56" yMin="-212" xMax="365" yMax="735">
      <component glyphName="commaaccent" x="146" y="10" flags="0x4"/>
      <component glyphName="N" x="0" y="0" flags="0x4"/>
    </TTGlyph>
    <TTGlyph name="Ntilde" xMin="56" yMin="-2" xMax="365" yMax="843">
      <component glyphName="N" x="0" y="0" flags="0x204"/>
      <component glyphName="tilde" x="11" y="283" flags="0x4"/>
    </TTGlyph>
    <TTGlyph name="O" xMin="34" yMin="-10" xMax="389" yMax="743">
      <contour>
        <pt x="389" y="369" on="1"/>
        <pt x="389" y="294" on="0"/>
        <pt x="367" y="157" on="0"/>
        <pt x="323" y="52" on="0"/>
        <pt x="256" y="-10" on="0"/>
        <pt x="211" y="-10" on="1"/>
        <pt x="166" y="-10" on="0"/>
        <pt x="99" y="52" on="0"/>
        <pt x="56" y="156" on="0"/>
        <pt x="34" y="292" on="0"/>
        <pt x="34" y="367" on="1"/>
        <pt x="34" y="441" on="0"/>
        <pt x="56" y="577" on="0"/>
        <pt x="101" y="681" on="0"/>
        <pt x="168" y="743" on="0"/>
        <pt x="214" y="743" on="1"/>
        <pt x="259" y="743" on="0"/>
        <pt x="324" y="682" on="0"/>
        <pt x="368" y="579" on="0"/>
        <pt x="389" y="443" on="0"/>
      </contour>
      <contour>
        <pt x="337" y="368" on="1"/>
        <pt x="337" y="441" on="0"/>
        <pt x="319" y="563" on="0"/>
        <pt x="286" y="650" on="0"/>
        <pt x="240" y="698" on="0"/>
        <pt x="212" y="698" on="1"/>
        <pt x="185" y="698" on="0"/>
        <pt x="138" y="650" on="0"/>
        <pt x="105" y="563" on="0"/>
        <pt x="86" y="441" on="0"/>
        <pt x="86" y="368" on="1"/>
        <pt x="86" y="295" on="0"/>
        <pt x="105" y="173" on="0"/>
        <pt x="138" y="85" on="0"/>
        <pt x="185" y="36" on="0"/>
        <pt x="212" y="36" on="1"/>
        <pt x="240" y="36" on="0"/>
        <pt x="286" y="85" on="0"/>
        <pt x="319" y="173" on="0"/>
        <pt x="337" y="295" on="0"/>
      </contour>
    </TTGlyph>
    <TTGlyph name="OE" xMin="33" yMin="-6" xMax="551" yMax="738">
      <contour>
        <pt x="342" y="0" on="1"/>
        <pt x="309" y="-6" on="0"/>
        <pt x="276" y="-6" on="1"/>
        <pt x="219" y="-6" on="0"/>
        <pt x="129" y="49" on="0"/>
        <pt x="66" y="148" on="0"/>
        <pt x="33" y="285" on="0"/>
        <pt x="33" y="366" on="1"/>
        <pt x="33" y="445" on="0"/>
        <pt x="66" y="581" on="0"/>
        <pt x="128" y="681" on="0"/>
        <pt x="219" y="738" on="0"/>
        <pt x="277" y="738" on="1"/>
        <pt x="294" y="738" on="0"/>
        <pt x="332" y="735" on="0"/>
        <pt x="345" y="733" on="1"/>
        <pt x="551" y="733" on="1"/>
        <pt x="551" y="686" on="1"/>
        <pt x="356" y="686" on="1"/>
        <pt x="356" y="400" on="1"/>
        <pt x="538" y="400" on="1"/>
        <pt x="538" y="352" on="1"/>
        <pt x="356" y="352" on="1"/>
        <pt x="356" y="48" on="1"/>
        <pt x="551" y="48" on="1"/>
        <pt x="551" y="0" on="1"/>
      </contour>
      <contour>
        <pt x="305" y="690" on="1"/>
        <pt x="293" y="693" on="0"/>
        <pt x="274" y="693" on="1"/>
        <pt x="230" y="693" on="0"/>
        <pt x="160" y="646" on="0"/>
        <pt x="111" y="561" on="0"/>
        <pt x="85" y="440" on="0"/>
        <pt x="85" y="366" on="1"/>
        <pt x="85" y="292" on="0"/>
        <pt x="112" y="171" on="0"/>
        <pt x="161" y="86" on="0"/>
        <pt x="231" y="40" on="0"/>
        <pt x="274" y="40" on="1"/>
        <pt x="283" y="40" on="0"/>
        <pt x="299" y="41" on="0"/>
        <pt x="305" y="42" on="1"/>
      </contour>
    </TTGlyph>
    <TTGlyph name="Oacute" xMin="34" yMin="-10" xMax="389" yMax="898">
      <component glyphName="acute" x="56" y="293" flags="0x4"/>
      <component glyphName="O" x="0" y="0" flags="0x4"/>
    </TTGlyph>
    <TTGlyph name="Obreve" xMin="34" yMin="-10" xMax="389" yMax="877">
      <component glyphName="O" x="0" y="0" flags="0x204"/>
      <component glyphName="breve" x="12" y="293" flags="0x4"/>
    </TTGlyph>
    <TTGlyph name="Ocircumflex" xMin="34" yMin="-10" xMax="389" yMax="890">
      <component glyphName="circumflex" x="10" y="293" flags="0x4"/>
      <component glyphName="O" x="0" y="0" flags="0x4"/>
    </TTGlyph>
    <TTGlyph name="Odieresis" xMin="34" yMin="-10" xMax="389" yMax="851">
      <component glyphName="dieresis" x="12" y="293" flags="0x4"/>
      <component glyphName="O" x="0" y="0" flags="0x4"/>
    </TTGlyph>
    <TTGlyph name="Ograve" xMin="34" yMin="-10" xMax="389" yMax="898">
      <component glyphName="O" x="0" y="0" flags="0x204"/>
      <component glyphName="grave" x="-34" y="293" flags="0x4"/>
    </TTGlyph>
    <TTGlyph name="Ohungarumlaut" xMin="34" yMin="-10" xMax="389" yMax="938">
      <component glyphName="hungarumlaut" x="42" y="293" flags="0x4"/>
      <component glyphName="O" x="0" y="0" flags="0x4"/>
    </TTGlyph>
    <TTGlyph name="Omacron" xMin="34" yMin="-10" xMax="389" yMax="831">
      <component glyphName="macron" x="12" y="293" flags="0x4"/>
      <component glyphName="O" x="0" y="0" flags="0x4"/>
    </TTGlyph>
    <TTGlyph name="Oslash" xMin="9" yMin="-10" xMax="412" yMax="745">
      <contour>
        <pt x="389" y="369" on="1"/>
        <pt x="389" y="294" on="0"/>
        <pt x="367" y="157" on="0"/>
        <pt x="323" y="52" on="0"/>
        <pt x="256" y="-10" on="0"/>
        <pt x="211" y="-10" on="1"/>
        <pt x="171" y="-10" on="0"/>
        <pt x="110" y="40" on="0"/>
        <pt x="88" y="83" on="1"/>
        <pt x="42" y="-10" on="1"/>
        <pt x="9" y="8" on="1"/>
        <pt x="69" y="128" on="1"/>
        <pt x="52" y="178" on="0"/>
        <pt x="34" y="300" on="0"/>
        <pt x="34" y="367" on="1"/>
        <pt x="34" y="441" on="0"/>
        <pt x="56" y="577" on="0"/>
        <pt x="101" y="681" on="0"/>
        <pt x="168" y="743" on="0"/>
        <pt x="214" y="743" on="1"/>
        <pt x="252" y="743" on="0"/>
        <pt x="312" y="696" on="0"/>
        <pt x="333" y="655" on="1"/>
        <pt x="379" y="745" on="1"/>
        <pt x="412" y="727" on="1"/>
        <pt x="353" y="610" on="1"/>
        <pt x="371" y="560" on="0"/>
        <pt x="389" y="436" on="0"/>
      </contour>
      <contour>
        <pt x="305" y="598" on="1"/>
        <pt x="288" y="646" on="0"/>
        <pt x="241" y="698" on="0"/>
        <pt x="212" y="698" on="1"/>
        <pt x="185" y="698" on="0"/>
        <pt x="138" y="650" on="0"/>
        <pt x="105" y="563" on="0"/>
        <pt x="86" y="441" on="0"/>
        <pt x="86" y="368" on="1"/>
        <pt x="86" y="319" on="0"/>
        <pt x="94" y="231" on="0"/>
        <pt x="102" y="194" on="1"/>
      </contour>
      <contour>
        <pt x="337" y="368" on="1"/>
        <pt x="337" y="468" on="0"/>
        <pt x="320" y="544" on="1"/>
        <pt x="117" y="141" on="1"/>
        <pt x="134" y="91" on="0"/>
        <pt x="183" y="36" on="0"/>
        <pt x="212" y="36" on="1"/>
        <pt x="240" y="36" on="0"/>
        <pt x="286" y="85" on="0"/>
        <pt x="319" y="173" on="0"/>
        <pt x="337" y="295" on="0"/>
      </contour>
    </TTGlyph>
    <TTGlyph name="Oslashacute" xMin="9" yMin="-10" xMax="412" yMax="898">
      <component glyphName="Oslash" x="0" y="0" flags="0x204"/>
      <component glyphName="acute" x="54" y="293" flags="0x4"/>
    </TTGlyph>
    <TTGlyph name="Otilde" xMin="34" yMin="-10" xMax="389" yMax="853">
      <component glyphName="O" x="0" y="0" flags="0x204"/>
      <component glyphName="tilde" x="13" y="293" flags="0x4"/>
    </TTGlyph>
    <TTGlyph name="P" xMin="56" yMin="0" xMax="339" yMax="739">
      <contour>
        <pt x="339" y="502" on="1"/>
        <pt x="339" y="454" on="0"/>
        <pt x="314" y="369" on="0"/>
        <pt x="266" y="305" on="0"/>
        <pt x="195" y="267" on="0"/>
        <pt x="149" y="267" on="1"/>
        <pt x="126" y="267" on="0"/>
        <pt x="107" y="270" on="1"/>
        <pt x="107" y="0" on="1"/>
        <pt x="56" y="0" on="1"/>
        <pt x="56" y="732" on="1"/>
        <pt x="91" y="739" on="0"/>
        <pt x="141" y="739" on="1"/>
        <pt x="192" y="739" on="0"/>
        <pt x="267" y="700" on="0"/>
        <pt x="316" y="634" on="0"/>
        <pt x="339" y="548" on="0"/>
      </contour>
      <contour>
        <pt x="287" y="501" on="1"/>
        <pt x="287" y="541" on="0"/>
        <pt x="269" y="612" on="0"/>
        <pt x="232" y="663" on="0"/>
        <pt x="177" y="693" on="0"/>
        <pt x="141" y="693" on="1"/>
        <pt x="128" y="693" on="0"/>
        <pt x="117" y="692" on="0"/>
        <pt x="107" y="691" on="1"/>
        <pt x="107" y="316" on="1"/>
        <pt x="128" y="313" on="0"/>
        <pt x="148" y="313" on="1"/>
        <pt x="180" y="313" on="0"/>
        <pt x="232" y="341" on="0"/>
        <pt x="268" y="391" on="0"/>
        <pt x="287" y="460" on="0"/>
      </contour>
    </TTGlyph>
    <TTGlyph name="Q" xMin="34" yMin="-18" xMax="405" yMax="743">
      <contour>
        <pt x="370" y="-18" on="1"/>
        <pt x="318" y="56" on="1"/>
        <pt x="297" y="25" on="0"/>
        <pt x="244" y="-10" on="0"/>
        <pt x="211" y="-10" on="1"/>
        <pt x="166" y="-10" on="0"/>
        <pt x="99" y="52" on="0"/>
        <pt x="56" y="156" on="0"/>
        <pt x="34" y="292" on="0"/>
        <pt x="34" y="367" on="1"/>
        <pt x="34" y="441" on="0"/>
        <pt x="56" y="577" on="0"/>
        <pt x="101" y="681" on="0"/>
        <pt x="168" y="743" on="0"/>
        <pt x="214" y="743" on="1"/>
        <pt x="259" y="743" on="0"/>
        <pt x="324" y="682" on="0"/>
        <pt x="368" y="579" on="0"/>
        <pt x="389" y="443" on="0"/>
        <pt x="389" y="369" on="1"/>
        <pt x="389" y="291" on="0"/>
        <pt x="366" y="152" on="0"/>
        <pt x="342" y="98" on="1"/>
        <pt x="405" y="10" on="1"/>
      </contour>
      <contour>
        <pt x="337" y="368" on="1"/>
        <pt x="337" y="441" on="0"/>
        <pt x="319" y="563" on="0"/>
        <pt x="286" y="650" on="0"/>
        <pt x="240" y="698" on="0"/>
        <pt x="212" y="698" on="1"/>
        <pt x="185" y="698" on="0"/>
        <pt x="138" y="650" on="0"/>
        <pt x="105" y="563" on="0"/>
        <pt x="86" y="441" on="0"/>
        <pt x="86" y="368" on="1"/>
        <pt x="86" y="295" on="0"/>
        <pt x="105" y="173" on="0"/>
        <pt x="138" y="85" on="0"/>
        <pt x="185" y="36" on="0"/>
        <pt x="212" y="36" on="1"/>
        <pt x="235" y="36" on="0"/>
        <pt x="274" y="68" on="0"/>
        <pt x="288" y="97" on="1"/>
        <pt x="280" y="108" on="0"/>
        <pt x="272" y="120" on="1"/>
        <pt x="265" y="131" on="0"/>
        <pt x="247" y="156" on="0"/>
        <pt x="238" y="170" on="1"/>
        <pt x="216" y="202" on="0"/>
        <pt x="187" y="242" on="1"/>
        <pt x="222" y="273" on="1"/>
        <pt x="309" y="146" on="1"/>
        <pt x="323" y="189" on="0"/>
        <pt x="337" y="301" on="0"/>
      </contour>
    </TTGlyph>
    <TTGlyph name="R" xMin="56" yMin="0" xMax="361" yMax="739">
      <contour>
        <pt x="306" y="0" on="1"/>
        <pt x="187" y="306" on="1"/>
        <pt x="179" y="305" on="0"/>
        <pt x="160" y="304" on="0"/>
        <pt x="151" y="304" on="1"/>
        <pt x="139" y="304" on="0"/>
        <pt x="117" y="305" on="0"/>
        <pt x="107" y="306" on="1"/>
        <pt x="107" y="0" on="1"/>
        <pt x="56" y="0" on="1"/>
        <pt x="56" y="732" on="1"/>
        <pt x="75" y="735" on="0"/>
        <pt x="116" y="739" on="0"/>
        <pt x="138" y="739" on="1"/>
        <pt x="191" y="739" on="0"/>
        <pt x="269" y="703" on="0"/>
        <pt x="320" y="643" on="0"/>
        <pt x="344" y="564" on="0"/>
        <pt x="344" y="521" on="1"/>
        <pt x="344" y="445" on="0"/>
        <pt x="281" y="345" on="0"/>
        <pt x="233" y="322" on="1"/>
        <pt x="361" y="0" on="1"/>
      </contour>
      <contour>
        <pt x="292" y="521" on="1"/>
        <pt x="292" y="599" on="0"/>
        <pt x="214" y="693" on="0"/>
        <pt x="138" y="693" on="1"/>
        <pt x="128" y="693" on="0"/>
        <pt x="117" y="692" on="0"/>
        <pt x="107" y="691" on="1"/>
        <pt x="107" y="350" on="1"/>
        <pt x="115" y="349" on="0"/>
        <pt x="137" y="348" on="0"/>
        <pt x="150" y="348" on="1"/>
        <pt x="213" y="348" on="0"/>
        <pt x="292" y="435" on="0"/>
      </contour>
    </TTGlyph>
    <TTGlyph name="Racute" xMin="56" yMin="0" xMax="361" yMax="888">
      <component glyphName="acute" x="37" y="283" flags="0x4"/>
      <component glyphName="R" x="0" y="0" flags="0x4"/>
    </TTGlyph>
    <TTGlyph name="Rcaron" xMin="56" yMin="0" xMax="361" yMax="878">
      <component glyphName="caron" x="-6" y="283" flags="0x4"/>
      <component glyphName="R" x="0" y="0" flags="0x4"/>
    </TTGlyph>
    <TTGlyph name="Rcommaaccent" xMin="56" yMin="-212" xMax="361" yMax="739">
      <component glyphName="commaaccent" x="128" y="10" flags="0x4"/>
      <component glyphName="R" x="0" y="0" flags="0x4"/>
    </TTGlyph>
    <TTGlyph name="S" xMin="13" yMin="-10" xMax="309" yMax="743">
      <contour>
        <pt x="309" y="165" on="1"/>
        <pt x="309" y="126" on="0"/>
        <pt x="285" y="61" on="0"/>
        <pt x="245" y="15" on="0"/>
        <pt x="189" y="-10" on="0"/>
        <pt x="158" y="-10" on="1"/>
        <pt x="117" y="-10" on="0"/>
        <pt x="45" y="25" on="0"/>
        <pt x="13" y="51" on="1"/>
        <pt x="38" y="93" on="1"/>
        <pt x="64" y="70" on="0"/>
        <pt x="125" y="37" on="0"/>
        <pt x="157" y="37" on="1"/>
        <pt x="203" y="37" on="0"/>
        <pt x="258" y="104" on="0"/>
        <pt x="258" y="163" on="1"/>
        <pt x="258" y="194" on="0"/>
        <pt x="240" y="245" on="0"/>
        <pt x="210" y="292" on="0"/>
        <pt x="170" y="338" on="0"/>
        <pt x="148" y="362" on="1"/>
        <pt x="126" y="385" on="0"/>
        <pt x="85" y="432" on="0"/>
        <pt x="52" y="484" on="0"/>
        <pt x="32" y="542" on="0"/>
        <pt x="32" y="577" on="1"/>
        <pt x="32" y="614" on="0"/>
        <pt x="54" y="675" on="0"/>
        <pt x="93" y="719" on="0"/>
        <pt x="145" y="743" on="0"/>
        <pt x="176" y="743" on="1"/>
        <pt x="220" y="743" on="0"/>
        <pt x="278" y="712" on="0"/>
        <pt x="303" y="689" on="1"/>
        <pt x="278" y="646" on="1"/>
        <pt x="255" y="668" on="0"/>
        <pt x="207" y="696" on="0"/>
        <pt x="175" y="696" on="1"/>
        <pt x="133" y="696" on="0"/>
        <pt x="83" y="631" on="0"/>
        <pt x="83" y="579" on="1"/>
        <pt x="83" y="552" on="0"/>
        <pt x="101" y="503" on="0"/>
        <pt x="131" y="457" on="0"/>
        <pt x="170" y="414" on="0"/>
        <pt x="191" y="392" on="1"/>
        <pt x="213" y="368" on="0"/>
        <pt x="255" y="319" on="0"/>
        <pt x="288" y="264" on="0"/>
        <pt x="309" y="202" on="0"/>
      </contour>
    </TTGlyph>
    <TTGlyph name="Sacute" xMin="13" yMin="-10" xMax="309" yMax="898">
      <component glyphName="acute" x="16" y="293" flags="0x4"/>
      <component glyphName="S" x="0" y="0" flags="0x4"/>
    </TTGlyph>
    <TTGlyph name="Scaron" xMin="13" yMin="-10" xMax="309" yMax="888">
      <component glyphName="caron" x="-27" y="293" flags="0x4"/>
      <component glyphName="S" x="0" y="0" flags="0x4"/>
    </TTGlyph>
    <TTGlyph name="Scedilla" xMin="13" yMin="-174" xMax="309" yMax="743">
      <contour>
        <pt x="242" y="-110" on="1"/>
        <pt x="242" y="-136" on="0"/>
        <pt x="205" y="-174" on="0"/>
        <pt x="169" y="-174" on="1"/>
        <pt x="150" y="-174" on="0"/>
        <pt x="112" y="-161" on="0"/>
        <pt x="93" y="-150" on="1"/>
        <pt x="108" y="-120" on="1"/>
        <pt x="140" y="-141" on="0"/>
        <pt x="170" y="-141" on="1"/>
        <pt x="187" y="-141" on="0"/>
        <pt x="206" y="-124" on="0"/>
        <pt x="206" y="-112" on="1"/>
        <pt x="206" y="-96" on="0"/>
        <pt x="171" y="-71" on="0"/>
        <pt x="132" y="-67" on="1"/>
        <pt x="130" y="-62" on="1"/>
        <pt x="144" y="-9" on="1"/>
        <pt x="107" y="-6" on="0"/>
        <pt x="42" y="28" on="0"/>
        <pt x="13" y="51" on="1"/>
        <pt x="38" y="93" on="1"/>
        <pt x="64" y="70" on="0"/>
        <pt x="125" y="37" on="0"/>
        <pt x="157" y="37" on="1"/>
        <pt x="203" y="37" on="0"/>
        <pt x="258" y="104" on="0"/>
        <pt x="258" y="163" on="1"/>
        <pt x="258" y="194" on="0"/>
        <pt x="240" y="245" on="0"/>
        <pt x="210" y="292" on="0"/>
        <pt x="170" y="338" on="0"/>
        <pt x="148" y="362" on="1"/>
        <pt x="126" y="385" on="0"/>
        <pt x="85" y="432" on="0"/>
        <pt x="52" y="484" on="0"/>
        <pt x="32" y="542" on="0"/>
        <pt x="32" y="577" on="1"/>
        <pt x="32" y="614" on="0"/>
        <pt x="54" y="675" on="0"/>
        <pt x="93" y="719" on="0"/>
        <pt x="145" y="743" on="0"/>
        <pt x="176" y="743" on="1"/>
        <pt x="220" y="743" on="0"/>
        <pt x="278" y="712" on="0"/>
        <pt x="303" y="689" on="1"/>
        <pt x="278" y="646" on="1"/>
        <pt x="255" y="668" on="0"/>
        <pt x="207" y="696" on="0"/>
        <pt x="175" y="696" on="1"/>
        <pt x="133" y="696" on="0"/>
        <pt x="83" y="631" on="0"/>
        <pt x="83" y="579" on="1"/>
        <pt x="83" y="552" on="0"/>
        <pt x="101" y="503" on="0"/>
        <pt x="131" y="457" on="0"/>
        <pt x="170" y="414" on="0"/>
        <pt x="191" y="392" on="1"/>
        <pt x="213" y="368" on="0"/>
        <pt x="255" y="319" on="0"/>
        <pt x="288" y="264" on="0"/>
        <pt x="309" y="202" on="0"/>
        <pt x="309" y="165" on="1"/>
        <pt x="309" y="128" on="0"/>
        <pt x="289" y="67" on="0"/>
        <pt x="253" y="22" on="0"/>
        <pt x="204" y="-6" on="0"/>
        <pt x="176" y="-9" on="1"/>
        <pt x="168" y="-40" on="1"/>
        <pt x="209" y="-50" on="0"/>
        <pt x="242" y="-88" on="0"/>
      </contour>
    </TTGlyph>
    <TTGlyph name="Scommaaccent" xMin="13" yMin="-222" xMax="309" yMax="743">
      <component glyphName="commaaccent" x="108" y="0" flags="0x4"/>
      <component glyphName="S" x="0" y="0" flags="0x4"/>
    </TTGlyph>
    <TTGlyph name="T" xMin="14" yMin="0" xMax="304" yMax="733">
      <contour>
        <pt x="184" y="686" on="1"/>
        <pt x="184" y="0" on="1"/>
        <pt x="134" y="0" on="1"/>
        <pt x="134" y="686" on="1"/>
        <pt x="14" y="686" on="1"/>
        <pt x="14" y="733" on="1"/>
        <pt x="304" y="733" on="1"/>
        <pt x="304" y="686" on="1"/>
      </contour>
    </TTGlyph>
    <TTGlyph name="Tcaron" xMin="14" yMin="0" xMax="304" yMax="878">
      <component glyphName="caron" x="-40" y="283" flags="0x4"/>
      <component glyphName="T" x="0" y="0" flags="0x4"/>
    </TTGlyph>
    <TTGlyph name="Tcommaaccent" xMin="14" yMin="-222" xMax="304" yMax="733">
      <component glyphName="commaaccent" x="94" y="0" flags="0x4"/>
      <component glyphName="T" x="0" y="0" flags="0x4"/>
    </TTGlyph>
    <TTGlyph name="Thorn" xMin="56" yMin="0" xMax="339" yMax="733">
      <contour>
        <pt x="339" y="391" on="1"/>
        <pt x="339" y="343" on="0"/>
        <pt x="314" y="258" on="0"/>
        <pt x="266" y="193" on="0"/>
        <pt x="195" y="155" on="0"/>
        <pt x="149" y="155" on="1"/>
        <pt x="137" y="155" on="0"/>
        <pt x="117" y="157" on="0"/>
        <pt x="107" y="159" on="1"/>
        <pt x="107" y="0" on="1"/>
        <pt x="56" y="0" on="1"/>
        <pt x="56" y="733" on="1"/>
        <pt x="107" y="733" on="1"/>
        <pt x="107" y="628" on="1"/>
        <pt x="114" y="629" on="0"/>
        <pt x="131" y="629" on="0"/>
        <pt x="141" y="629" on="1"/>
        <pt x="192" y="629" on="0"/>
        <pt x="267" y="589" on="0"/>
        <pt x="316" y="523" on="0"/>
        <pt x="339" y="437" on="0"/>
      </contour>
      <contour>
        <pt x="287" y="390" on="1"/>
        <pt x="287" y="430" on="0"/>
        <pt x="269" y="501" on="0"/>
        <pt x="232" y="553" on="0"/>
        <pt x="177" y="583" on="0"/>
        <pt x="141" y="583" on="1"/>
        <pt x="129" y="583" on="0"/>
        <pt x="117" y="582" on="0"/>
        <pt x="107" y="581" on="1"/>
        <pt x="107" y="205" on="1"/>
        <pt x="117" y="203" on="0"/>
        <pt x="136" y="201" on="0"/>
        <pt x="148" y="201" on="1"/>
        <pt x="180" y="201" on="0"/>
        <pt x="232" y="229" on="0"/>
        <pt x="268" y="279" on="0"/>
        <pt x="287" y="349" on="0"/>
      </contour>
    </TTGlyph>
    <TTGlyph name="U" xMin="53" yMin="-9" xMax="358" yMax="733">
      <contour>
        <pt x="358" y="182" on="1"/>
        <pt x="358" y="84" on="0"/>
        <pt x="272" y="-9" on="0"/>
        <pt x="204" y="-9" on="1"/>
        <pt x="135" y="-9" on="0"/>
        <pt x="53" y="85" on="0"/>
        <pt x="53" y="182" on="1"/>
        <pt x="53" y="733" on="1"/>
        <pt x="104" y="733" on="1"/>
        <pt x="104" y="174" on="1"/>
        <pt x="104" y="102" on="0"/>
        <pt x="161" y="36" on="0"/>
        <pt x="206" y="36" on="1"/>
        <pt x="251" y="36" on="0"/>
        <pt x="307" y="103" on="0"/>
        <pt x="307" y="176" on="1"/>
        <pt x="307" y="733" on="1"/>
        <pt x="358" y="733" on="1"/>
        <pt x="358" y="182" on="1"/>
      </contour>
    </TTGlyph>
    <TTGlyph name="Uacute" xMin="53" yMin="-9" xMax="358" yMax="888">
      <component glyphName="acute" x="49" y="283" flags="0x4"/>
      <component glyphName="U" x="0" y="0" flags="0x4"/>
    </TTGlyph>
    <TTGlyph name="Ubreve" xMin="53" yMin="-9" xMax="358" yMax="867">
      <component glyphName="U" x="0" y="0" flags="0x204"/>
      <component glyphName="breve" x="5" y="283" flags="0x4"/>
    </TTGlyph>
    <TTGlyph name="Ucircumflex" xMin="53" yMin="-9" xMax="358" yMax="880">
      <component glyphName="circumflex" x="3" y="283" flags="0x4"/>
      <component glyphName="U" x="0" y="0" flags="0x4"/>
    </TTGlyph>
    <TTGlyph name="Udieresis" xMin="53" yMin="-9" xMax="358" yMax="841">
      <component glyphName="dieresis" x="5" y="283" flags="0x4"/>
      <component glyphName="U" x="0" y="0" flags="0x4"/>
    </TTGlyph>
    <TTGlyph name="Ugrave" xMin="53" yMin="-9" xMax="358" yMax="888">
      <component glyphName="U" x="0" y="0" flags="0x204"/>
      <component glyphName="grave" x="-41" y="283" flags="0x4"/>
    </TTGlyph>
    <TTGlyph name="Uhungarumlaut" xMin="53" yMin="-9" xMax="358" yMax="928">
      <component glyphName="U" x="0" y="0" flags="0x204"/>
      <component glyphName="hungarumlaut" x="35" y="283" flags="0x4"/>
    </TTGlyph>
    <TTGlyph name="Umacron" xMin="53" yMin="-9" xMax="358" yMax="821">
      <component glyphName="U" x="0" y="0" flags="0x204"/>
      <component glyphName="macron" x="5" y="283" flags="0x4"/>
    </TTGlyph>
    <TTGlyph name="Uogonek" xMin="53" yMin="-189" xMax="358" yMax="733">
      <contour>
        <pt x="358" y="182" on="1"/>
        <pt x="358" y="96" on="0"/>
        <pt x="292" y="4" on="0"/>
        <pt x="237" y="-6" on="1"/>
        <pt x="210" y="-41" on="0"/>
        <pt x="191" y="-93" on="0"/>
        <pt x="191" y="-114" on="1"/>
        <pt x="191" y="-131" on="0"/>
        <pt x="206" y="-151" on="0"/>
        <pt x="218" y="-151" on="1"/>
        <pt x="235" y="-151" on="0"/>
        <pt x="247" y="-139" on="1"/>
        <pt x="263" y="-165" on="1"/>
        <pt x="254" y="-175" on="0"/>
        <pt x="227" y="-189" on="0"/>
        <pt x="210" y="-189" on="1"/>
        <pt x="183" y="-189" on="0"/>
        <pt x="151" y="-152" on="0"/>
        <pt x="151" y="-122" on="1"/>
        <pt x="151" y="-99" on="0"/>
        <pt x="171" y="-46" on="0"/>
        <pt x="199" y="-9" on="1"/>
        <pt x="132" y="-7" on="0"/>
        <pt x="53" y="86" on="0"/>
        <pt x="53" y="182" on="1"/>
        <pt x="53" y="733" on="1"/>
        <pt x="104" y="733" on="1"/>
        <pt x="104" y="174" on="1"/>
        <pt x="104" y="102" on="0"/>
        <pt x="161" y="36" on="0"/>
        <pt x="206" y="36" on="1"/>
        <pt x="251" y="36" on="0"/>
        <pt x="307" y="103" on="0"/>
        <pt x="307" y="176" on="1"/>
        <pt x="307" y="733" on="1"/>
        <pt x="358" y="733" on="1"/>
        <pt x="358" y="182" on="1"/>
      </contour>
    </TTGlyph>
    <TTGlyph name="Uring" xMin="53" yMin="-9" xMax="358" yMax="925">
      <component glyphName="ring" x="5" y="283" flags="0x4"/>
      <component glyphName="U" x="0" y="0" flags="0x4"/>
    </TTGlyph>
    <TTGlyph name="V" xMin="19" yMin="-9" xMax="364" yMax="733">
      <contour>
        <pt x="204" y="-9" on="1"/>
        <pt x="181" y="-9" on="1"/>
        <pt x="19" y="733" on="1"/>
        <pt x="70" y="733" on="1"/>
        <pt x="194" y="136" on="1"/>
        <pt x="313" y="733" on="1"/>
        <pt x="364" y="733" on="1"/>
      </contour>
    </TTGlyph>
    <TTGlyph name="W" xMin="19" yMin="-5" xMax="534" yMax="733">
      <contour>
        <pt x="422" y="-5" on="1"/>
        <pt x="397" y="-5" on="1"/>
        <pt x="277" y="583" on="1"/>
        <pt x="157" y="-5" on="1"/>
        <pt x="132" y="-5" on="1"/>
        <pt x="19" y="733" on="1"/>
        <pt x="70" y="733" on="1"/>
        <pt x="150" y="160" on="1"/>
        <pt x="266" y="733" on="1"/>
        <pt x="290" y="733" on="1"/>
        <pt x="404" y="159" on="1"/>
        <pt x="482" y="733" on="1"/>
        <pt x="534" y="733" on="1"/>
      </contour>
    </TTGlyph>
    <TTGlyph name="Wacute" xMin="19" yMin="-5" xMax="534" yMax="888">
      <component glyphName="acute" x="121" y="283" flags="0x4"/>
      <component glyphName="W" x="0" y="0" flags="0x4"/>
    </TTGlyph>
    <TTGlyph name="Wcircumflex" xMin="19" yMin="-5" xMax="534" yMax="880">
      <component glyphName="circumflex" x="74" y="283" flags="0x4"/>
      <component glyphName="W" x="0" y="0" flags="0x4"/>
    </TTGlyph>
    <TTGlyph name="Wdieresis" xMin="19" yMin="-5" xMax="534" yMax="841">
      <component glyphName="dieresis" x="76" y="283" flags="0x4"/>
      <component glyphName="W" x="0" y="0" flags="0x4"/>
    </TTGlyph>
    <TTGlyph name="Wgrave" xMin="19" yMin="-5" xMax="534" yMax="888">
      <component glyphName="W" x="0" y="0" flags="0x204"/>
      <component glyphName="grave" x="29" y="283" flags="0x4"/>
    </TTGlyph>
    <TTGlyph name="X" xMin="9" yMin="0" xMax="344" yMax="733">
      <contour>
        <pt x="290" y="0" on="1"/>
        <pt x="175" y="319" on="1"/>
        <pt x="61" y="0" on="1"/>
        <pt x="9" y="0" on="1"/>
        <pt x="150" y="374" on="1"/>
        <pt x="16" y="733" on="1"/>
        <pt x="68" y="733" on="1"/>
        <pt x="177" y="428" on="1"/>
        <pt x="285" y="733" on="1"/>
        <pt x="337" y="733" on="1"/>
        <pt x="203" y="374" on="1"/>
        <pt x="344" y="0" on="1"/>
      </contour>
    </TTGlyph>
    <TTGlyph name="Y" xMin="3" yMin="0" xMax="344" yMax="733">
      <contour>
        <pt x="199" y="297" on="1"/>
        <pt x="199" y="0" on="1"/>
        <pt x="148" y="0" on="1"/>
        <pt x="148" y="297" on="1"/>
        <pt x="3" y="733" on="1"/>
        <pt x="56" y="733" on="1"/>
        <pt x="173" y="362" on="1"/>
        <pt x="291" y="733" on="1"/>
        <pt x="344" y="733" on="1"/>
      </contour>
    </TTGlyph>
    <TTGlyph name="Yacute" xMin="3" yMin="0" xMax="344" yMax="888">
      <component glyphName="Y" x="0" y="0" flags="0x204"/>
      <component glyphName="acute" x="18" y="283" flags="0x4"/>
    </TTGlyph>
    <TTGlyph name="Ycircumflex" xMin="3" yMin="0" xMax="344" yMax="880">
      <component glyphName="Y" x="0" y="0" flags="0x204"/>
      <component glyphName="circumflex" x="-27" y="283" flags="0x4"/>
    </TTGlyph>
    <TTGlyph name="Ydieresis" xMin="3" yMin="0" xMax="344" yMax="841">
      <component glyphName="Y" x="0" y="0" flags="0x204"/>
      <component glyphName="dieresis" x="-25" y="283" flags="0x4"/>
    </TTGlyph>
    <TTGlyph name="Ygrave" xMin="3" yMin="0" xMax="344" yMax="888">
      <component glyphName="Y" x="0" y="0" flags="0x204"/>
      <component glyphName="grave" x="-73" y="283" flags="0x4"/>
    </TTGlyph>
    <TTGlyph name="Z" xMin="15" yMin="0" xMax="319" yMax="733">
      <contour>
        <pt x="80" y="48" on="1"/>
        <pt x="316" y="48" on="1"/>
        <pt x="316" y="0" on="1"/>
        <pt x="17" y="0" on="1"/>
        <pt x="15" y="8" on="1"/>
        <pt x="254" y="685" on="1"/>
        <pt x="31" y="685" on="1"/>
        <pt x="31" y="733" on="1"/>
        <pt x="317" y="733" on="1"/>
        <pt x="319" y="725" on="1"/>
      </contour>
    </TTGlyph>
    <TTGlyph name="Zacute" xMin="15" yMin="0" xMax="319" yMax="888">
      <component glyphName="acute" x="18" y="283" flags="0x4"/>
      <component glyphName="Z" x="0" y="0" flags="0x4"/>
    </TTGlyph>
    <TTGlyph name="Zcaron" xMin="15" yMin="0" xMax="319" yMax="878">
      <component glyphName="caron" x="-25" y="283" flags="0x4"/>
      <component glyphName="Z" x="0" y="0" flags="0x4"/>
    </TTGlyph>
    <TTGlyph name="Zdotaccent" xMin="15" yMin="0" xMax="319" yMax="841">
      <component glyphName="Z" x="0" y="0" flags="0x204"/>
      <component glyphName="dotaccent" x="-25" y="283" flags="0x4"/>
    </TTGlyph>
    <TTGlyph name="a" xMin="22" yMin="-10" xMax="255" yMax="454">
      <contour>
        <pt x="208" y="0" on="1"/>
        <pt x="208" y="47" on="1"/>
        <pt x="193" y="22" on="0"/>
        <pt x="151" y="-10" on="0"/>
        <pt x="124" y="-10" on="1"/>
        <pt x="80" y="-10" on="0"/>
        <pt x="22" y="65" on="0"/>
        <pt x="22" y="133" on="1"/>
        <pt x="22" y="165" on="0"/>
        <pt x="38" y="219" on="0"/>
        <pt x="68" y="257" on="0"/>
        <pt x="108" y="278" on="0"/>
        <pt x="132" y="278" on="1"/>
        <pt x="154" y="278" on="0"/>
        <pt x="193" y="259" on="0"/>
        <pt x="207" y="244" on="1"/>
        <pt x="207" y="335" on="1"/>
        <pt x="207" y="374" on="0"/>
        <pt x="169" y="409" on="0"/>
        <pt x="139" y="409" on="1"/>
        <pt x="119" y="409" on="0"/>
        <pt x="81" y="399" on="0"/>
        <pt x="61" y="389" on="1"/>
        <pt x="51" y="433" on="1"/>
        <pt x="74" y="443" on="0"/>
        <pt x="119" y="454" on="0"/>
        <pt x="148" y="454" on="1"/>
        <pt x="196" y="454" on="0"/>
        <pt x="255" y="399" on="0"/>
        <pt x="255" y="333" on="1"/>
        <pt x="255" y="0" on="1"/>
      </contour>
      <contour>
        <pt x="207" y="209" on="1"/>
        <pt x="193" y="221" on="0"/>
        <pt x="161" y="239" on="0"/>
        <pt x="141" y="239" on="1"/>
        <pt x="110" y="239" on="0"/>
        <pt x="71" y="184" on="0"/>
        <pt x="71" y="136" on="1"/>
        <pt x="71" y="87" on="0"/>
        <pt x="108" y="31" on="0"/>
        <pt x="139" y="31" on="1"/>
        <pt x="162" y="31" on="0"/>
        <pt x="194" y="62" on="0"/>
        <pt x="207" y="86" on="1"/>
      </contour>
    </TTGlyph>
    <TTGlyph name="aacute" xMin="22" yMin="-10" xMax="262" yMax="605">
      <component glyphName="a" x="0" y="0" flags="0x204"/>
      <component glyphName="acute" x="-5" y="0" flags="0x4"/>
    </TTGlyph>
    <TTGlyph name="abreve" xMin="22" yMin="-10" xMax="255" yMax="584">
      <component glyphName="a" x="0" y="0" flags="0x204"/>
      <component glyphName="breve" x="-50" y="0" flags="0x4"/>
    </TTGlyph>
    <TTGlyph name="acircumflex" xMin="22" yMin="-10" xMax="255" yMax="597">
      <component glyphName="a" x="0" y="0" flags="0x204"/>
      <component glyphName="circumflex" x="-52" y="0" flags="0x4"/>
    </TTGlyph>
    <TTGlyph name="acute" xMin="122" yMin="486" xMax="267" yMax="605">
      <contour>
        <pt x="139" y="486" on="1"/>
        <pt x="122" y="510" on="1"/>
        <pt x="242" y="605" on="1"/>
        <pt x="267" y="563" on="1"/>
      </contour>
    </TTGlyph>
    <TTGlyph name="adieresis" xMin="22" yMin="-10" xMax="255" yMax="558">
      <component glyphName="a" x="0" y="0" flags="0x204"/>
      <component glyphName="dieresis" x="-50" y="0" flags="0x4"/>
    </TTGlyph>
    <TTGlyph name="ae" xMin="23" yMin="-10" xMax="453" yMax="454">
      <contour>
        <pt x="208" y="335" on="1"/>
        <pt x="208" y="374" on="0"/>
        <pt x="171" y="409" on="0"/>
        <pt x="140" y="409" on="1"/>
        <pt x="120" y="409" on="0"/>
        <pt x="83" y="399" on="0"/>
        <pt x="63" y="389" on="1"/>
        <pt x="53" y="433" on="1"/>
        <pt x="76" y="443" on="0"/>
        <pt x="121" y="454" on="0"/>
        <pt x="149" y="454" on="1"/>
        <pt x="187" y="454" on="0"/>
        <pt x="235" y="422" on="0"/>
        <pt x="244" y="381" on="1"/>
        <pt x="276" y="454" on="0"/>
        <pt x="337" y="454" on="1"/>
        <pt x="364" y="454" on="0"/>
        <pt x="407" y="422" on="0"/>
        <pt x="437" y="365" on="0"/>
        <pt x="453" y="287" on="0"/>
        <pt x="453" y="240" on="1"/>
        <pt x="453" y="229" on="0"/>
        <pt x="453" y="213" on="0"/>
        <pt x="451" y="205" on="1"/>
        <pt x="257" y="205" on="1"/>
        <pt x="256" y="127" on="0"/>
        <pt x="305" y="33" on="0"/>
        <pt x="355" y="33" on="1"/>
        <pt x="373" y="33" on="0"/>
        <pt x="408" y="46" on="0"/>
        <pt x="428" y="59" on="1"/>
        <pt x="444" y="22" on="1"/>
        <pt x="422" y="8" on="0"/>
        <pt x="375" y="-9" on="0"/>
        <pt x="349" y="-9" on="1"/>
        <pt x="262" y="-9" on="0"/>
        <pt x="234" y="94" on="1"/>
        <pt x="221" y="39" on="0"/>
        <pt x="170" y="-10" on="0"/>
        <pt x="132" y="-10" on="1"/>
        <pt x="87" y="-10" on="0"/>
        <pt x="23" y="65" on="0"/>
        <pt x="23" y="133" on="1"/>
        <pt x="23" y="198" on="0"/>
        <pt x="85" y="278" on="0"/>
        <pt x="134" y="278" on="1"/>
        <pt x="157" y="278" on="0"/>
        <pt x="196" y="255" on="0"/>
        <pt x="208" y="238" on="1"/>
      </contour>
      <contour>
        <pt x="406" y="244" on="1"/>
        <pt x="406" y="279" on="0"/>
        <pt x="397" y="341" on="0"/>
        <pt x="379" y="386" on="0"/>
        <pt x="353" y="412" on="0"/>
        <pt x="336" y="412" on="1"/>
        <pt x="303" y="412" on="0"/>
        <pt x="260" y="322" on="0"/>
        <pt x="257" y="244" on="1"/>
      </contour>
      <contour>
        <pt x="208" y="202" on="1"/>
        <pt x="197" y="216" on="0"/>
        <pt x="164" y="239" on="0"/>
        <pt x="143" y="239" on="1"/>
        <pt x="111" y="239" on="0"/>
        <pt x="73" y="184" on="0"/>
        <pt x="73" y="136" on="1"/>
        <pt x="73" y="87" on="0"/>
        <pt x="110" y="31" on="0"/>
        <pt x="139" y="31" on="1"/>
        <pt x="175" y="31" on="0"/>
        <pt x="206" y="123" on="0"/>
      </contour>
    </TTGlyph>
    <TTGlyph name="aeacute" xMin="23" yMin="-10" xMax="453" yMax="605">
      <component glyphName="acute" x="95" y="0" flags="0x4"/>
      <component glyphName="ae" x="0" y="0" flags="0x4"/>
    </TTGlyph>
    <TTGlyph name="agrave" xMin="22" yMin="-10" xMax="255" yMax="605">
      <component glyphName="a" x="0" y="0" flags="0x204"/>
      <component glyphName="grave" x="-97" y="0" flags="0x4"/>
    </TTGlyph>
    <TTGlyph name="amacron" xMin="22" yMin="-10" xMax="255" yMax="538">
      <component glyphName="a" x="0" y="0" flags="0x204"/>
      <component glyphName="macron" x="-50" y="0" flags="0x4"/>
    </TTGlyph>
    <TTGlyph name="ampersand" xMin="23" yMin="-14" xMax="398" yMax="738">
      <contour>
        <pt x="398" y="325" on="1"/>
        <pt x="379" y="266" on="0"/>
        <pt x="341" y="164" on="0"/>
        <pt x="321" y="126" on="1"/>
        <pt x="344" y="92" on="0"/>
        <pt x="381" y="38" on="0"/>
        <pt x="398" y="15" on="1"/>
        <pt x="358" y="-14" on="1"/>
        <pt x="343" y="8" on="0"/>
        <pt x="312" y="54" on="0"/>
        <pt x="295" y="80" on="1"/>
        <pt x="269" y="38" on="0"/>
        <pt x="204" y="-11" on="0"/>
        <pt x="164" y="-11" on="1"/>
        <pt x="134" y="-11" on="0"/>
        <pt x="82" y="15" on="0"/>
        <pt x="44" y="61" on="0"/>
        <pt x="23" y="127" on="0"/>
        <pt x="23" y="168" on="1"/>
        <pt x="23" y="232" on="0"/>
        <pt x="82" y="348" on="0"/>
        <pt x="130" y="390" on="1"/>
        <pt x="111" y="438" on="0"/>
        <pt x="86" y="530" on="0"/>
        <pt x="86" y="575" on="1"/>
        <pt x="86" y="605" on="0"/>
        <pt x="100" y="663" on="0"/>
        <pt x="127" y="710" on="0"/>
        <pt x="169" y="738" on="0"/>
        <pt x="198" y="738" on="1"/>
        <pt x="223" y="738" on="0"/>
        <pt x="262" y="715" on="0"/>
        <pt x="288" y="677" on="0"/>
        <pt x="301" y="628" on="0"/>
        <pt x="301" y="602" on="1"/>
        <pt x="301" y="531" on="0"/>
        <pt x="235" y="423" on="0"/>
        <pt x="185" y="376" on="1"/>
        <pt x="208" y="324" on="0"/>
        <pt x="263" y="218" on="0"/>
        <pt x="293" y="168" on="1"/>
        <pt x="310" y="205" on="0"/>
        <pt x="340" y="291" on="0"/>
        <pt x="357" y="345" on="1"/>
      </contour>
      <contour>
        <pt x="254" y="601" on="1"/>
        <pt x="254" y="644" on="0"/>
        <pt x="224" y="693" on="0"/>
        <pt x="198" y="693" on="1"/>
        <pt x="182" y="693" on="0"/>
        <pt x="158" y="673" on="0"/>
        <pt x="141" y="640" on="0"/>
        <pt x="133" y="598" on="0"/>
        <pt x="133" y="576" on="1"/>
        <pt x="133" y="536" on="0"/>
        <pt x="152" y="459" on="0"/>
        <pt x="169" y="417" on="1"/>
        <pt x="210" y="461" on="0"/>
        <pt x="254" y="544" on="0"/>
      </contour>
      <contour>
        <pt x="268" y="120" on="1"/>
        <pt x="235" y="174" on="0"/>
        <pt x="173" y="291" on="0"/>
        <pt x="148" y="348" on="1"/>
        <pt x="113" y="313" on="0"/>
        <pt x="71" y="221" on="0"/>
        <pt x="71" y="170" on="1"/>
        <pt x="71" y="142" on="0"/>
        <pt x="84" y="93" on="0"/>
        <pt x="109" y="56" on="0"/>
        <pt x="145" y="34" on="0"/>
        <pt x="167" y="34" on="1"/>
        <pt x="196" y="34" on="0"/>
        <pt x="247" y="80" on="0"/>
      </contour>
    </TTGlyph>
    <TTGlyph name="ampersand.cap" xMin="23" yMin="-14" xMax="398" yMax="738">
      <contour>
        <pt x="169" y="417" on="1"/>
        <pt x="210" y="461" on="0"/>
        <pt x="254" y="544" on="0"/>
        <pt x="254" y="601" on="1"/>
        <pt x="254" y="644" on="0"/>
        <pt x="224" y="693" on="0"/>
        <pt x="198" y="693" on="1"/>
        <pt x="182" y="693" on="0"/>
        <pt x="158" y="673" on="0"/>
        <pt x="141" y="640" on="0"/>
        <pt x="133" y="598" on="0"/>
        <pt x="133" y="576" on="1"/>
        <pt x="133" y="536" on="0"/>
        <pt x="152" y="459" on="0"/>
      </contour>
      <contour>
        <pt x="268" y="120" on="1"/>
        <pt x="235" y="174" on="0"/>
        <pt x="173" y="291" on="0"/>
        <pt x="148" y="348" on="1"/>
        <pt x="113" y="313" on="0"/>
        <pt x="71" y="221" on="0"/>
        <pt x="71" y="170" on="1"/>
        <pt x="71" y="142" on="0"/>
        <pt x="84" y="93" on="0"/>
        <pt x="109" y="56" on="0"/>
        <pt x="145" y="34" on="0"/>
        <pt x="167" y="34" on="1"/>
        <pt x="196" y="34" on="0"/>
        <pt x="247" y="80" on="0"/>
      </contour>
      <contour>
        <pt x="185" y="376" on="1"/>
        <pt x="208" y="324" on="0"/>
        <pt x="263" y="218" on="0"/>
        <pt x="293" y="168" on="1"/>
        <pt x="310" y="205" on="0"/>
        <pt x="340" y="291" on="0"/>
        <pt x="357" y="345" on="1"/>
        <pt x="398" y="325" on="1"/>
        <pt x="379" y="266" on="0"/>
        <pt x="341" y="164" on="0"/>
        <pt x="321" y="126" on="1"/>
        <pt x="344" y="92" on="0"/>
        <pt x="381" y="38" on="0"/>
        <pt x="398" y="15" on="1"/>
        <pt x="358" y="-14" on="1"/>
        <pt x="343" y="8" on="0"/>
        <pt x="312" y="54" on="0"/>
        <pt x="295" y="80" on="1"/>
        <pt x="269" y="38" on="0"/>
        <pt x="204" y="-11" on="0"/>
        <pt x="164" y="-11" on="1"/>
        <pt x="134" y="-11" on="0"/>
        <pt x="82" y="15" on="0"/>
        <pt x="44" y="61" on="0"/>
        <pt x="23" y="127" on="0"/>
        <pt x="23" y="168" on="1"/>
        <pt x="23" y="232" on="0"/>
        <pt x="82" y="348" on="0"/>
        <pt x="130" y="390" on="1"/>
        <pt x="111" y="438" on="0"/>
        <pt x="86" y="530" on="0"/>
        <pt x="86" y="575" on="1"/>
        <pt x="86" y="605" on="0"/>
        <pt x="100" y="663" on="0"/>
        <pt x="127" y="710" on="0"/>
        <pt x="169" y="738" on="0"/>
        <pt x="198" y="738" on="1"/>
        <pt x="223" y="738" on="0"/>
        <pt x="262" y="715" on="0"/>
        <pt x="288" y="677" on="0"/>
        <pt x="301" y="628" on="0"/>
        <pt x="301" y="602" on="1"/>
        <pt x="301" y="531" on="0"/>
        <pt x="235" y="423" on="0"/>
      </contour>
    </TTGlyph>
    <TTGlyph name="aogonek" xMin="22" yMin="-189" xMax="262" yMax="454">
      <contour>
        <pt x="262" y="-165" on="1"/>
        <pt x="253" y="-175" on="0"/>
        <pt x="226" y="-189" on="0"/>
        <pt x="209" y="-189" on="1"/>
        <pt x="182" y="-189" on="0"/>
        <pt x="150" y="-152" on="0"/>
        <pt x="150" y="-122" on="1"/>
        <pt x="150" y="-97" on="0"/>
        <pt x="173" y="-38" on="0"/>
        <pt x="208" y="4" on="1"/>
        <pt x="208" y="47" on="1"/>
        <pt x="193" y="22" on="0"/>
        <pt x="151" y="-10" on="0"/>
        <pt x="124" y="-10" on="1"/>
        <pt x="80" y="-10" on="0"/>
        <pt x="22" y="65" on="0"/>
        <pt x="22" y="133" on="1"/>
        <pt x="22" y="165" on="0"/>
        <pt x="38" y="219" on="0"/>
        <pt x="68" y="257" on="0"/>
        <pt x="108" y="278" on="0"/>
        <pt x="132" y="278" on="1"/>
        <pt x="154" y="278" on="0"/>
        <pt x="193" y="259" on="0"/>
        <pt x="207" y="244" on="1"/>
        <pt x="207" y="335" on="1"/>
        <pt x="207" y="374" on="0"/>
        <pt x="169" y="409" on="0"/>
        <pt x="139" y="409" on="1"/>
        <pt x="119" y="409" on="0"/>
        <pt x="81" y="399" on="0"/>
        <pt x="61" y="389" on="1"/>
        <pt x="51" y="433" on="1"/>
        <pt x="74" y="443" on="0"/>
        <pt x="119" y="454" on="0"/>
        <pt x="148" y="454" on="1"/>
        <pt x="196" y="454" on="0"/>
        <pt x="255" y="399" on="0"/>
        <pt x="255" y="333" on="1"/>
        <pt x="255" y="0" on="1"/>
        <pt x="241" y="0" on="1"/>
        <pt x="211" y="-38" on="0"/>
        <pt x="190" y="-92" on="0"/>
        <pt x="190" y="-114" on="1"/>
        <pt x="190" y="-131" on="0"/>
        <pt x="205" y="-151" on="0"/>
        <pt x="217" y="-151" on="1"/>
        <pt x="234" y="-151" on="0"/>
        <pt x="246" y="-139" on="1"/>
      </contour>
      <contour>
        <pt x="207" y="209" on="1"/>
        <pt x="193" y="221" on="0"/>
        <pt x="161" y="239" on="0"/>
        <pt x="141" y="239" on="1"/>
        <pt x="110" y="239" on="0"/>
        <pt x="71" y="184" on="0"/>
        <pt x="71" y="136" on="1"/>
        <pt x="71" y="87" on="0"/>
        <pt x="108" y="31" on="0"/>
        <pt x="139" y="31" on="1"/>
        <pt x="162" y="31" on="0"/>
        <pt x="194" y="62" on="0"/>
        <pt x="207" y="86" on="1"/>
      </contour>
    </TTGlyph>
    <TTGlyph name="aring" xMin="22" yMin="-10" xMax="255" yMax="642">
      <component glyphName="a" x="0" y="0" flags="0x204"/>
      <component glyphName="ring" x="-50" y="0" flags="0x4"/>
    </TTGlyph>
    <TTGlyph name="aringacute" xMin="22" yMin="-10" xMax="262" yMax="792">
      <component glyphName="a" x="0" y="0" flags="0x204"/>
      <component glyphName="acute" x="-5" y="187" flags="0x4"/>
      <component glyphName="ring" x="-51" y="0" flags="0x4"/>
    </TTGlyph>
    <TTGlyph name="arrowleft" xMin="17" yMin="71" xMax="395" yMax="466">
      <contour>
        <pt x="89" y="245" on="1"/>
        <pt x="197" y="101" on="1"/>
        <pt x="160" y="71" on="1"/>
        <pt x="17" y="264" on="1"/>
        <pt x="17" y="272" on="1"/>
        <pt x="160" y="466" on="1"/>
        <pt x="197" y="436" on="1"/>
        <pt x="89" y="291" on="1"/>
        <pt x="395" y="291" on="1"/>
        <pt x="395" y="245" on="1"/>
      </contour>
    </TTGlyph>
    <TTGlyph name="arrowleft.cap" xMin="17" yMin="174" xMax="395" yMax="569">
      <component glyphName="arrowleft" x="0" y="103" flags="0x204"/>
    </TTGlyph>
    <TTGlyph name="arrowright" xMin="28" yMin="71" xMax="406" yMax="466">
      <contour>
        <pt x="334" y="291" on="1"/>
        <pt x="227" y="436" on="1"/>
        <pt x="264" y="466" on="1"/>
        <pt x="406" y="272" on="1"/>
        <pt x="406" y="264" on="1"/>
        <pt x="264" y="71" on="1"/>
        <pt x="227" y="101" on="1"/>
        <pt x="334" y="245" on="1"/>
        <pt x="28" y="245" on="1"/>
        <pt x="28" y="291" on="1"/>
      </contour>
    </TTGlyph>
    <TTGlyph name="arrowright.cap" xMin="28" yMin="174" xMax="406" yMax="569">
      <component glyphName="arrowright" x="0" y="103" flags="0x204"/>
    </TTGlyph>
    <TTGlyph name="asciicircum" xMin="103" yMin="579" xMax="301" yMax="684">
      <contour>
        <pt x="253" y="579" on="1"/>
        <pt x="200" y="639" on="1"/>
        <pt x="149" y="579" on="1"/>
        <pt x="103" y="579" on="1"/>
        <pt x="196" y="684" on="1"/>
        <pt x="209" y="684" on="1"/>
        <pt x="301" y="579" on="1"/>
      </contour>
    </TTGlyph>
    <TTGlyph name="asciitilde" xMin="97" yMin="193" xMax="302" yMax="261">
      <contour>
        <pt x="302" y="230" on="1"/>
        <pt x="289" y="213" on="0"/>
        <pt x="254" y="193" on="0"/>
        <pt x="237" y="193" on="1"/>
        <pt x="226" y="193" on="0"/>
        <pt x="205" y="202" on="0"/>
        <pt x="195" y="208" on="1"/>
        <pt x="184" y="214" on="0"/>
        <pt x="167" y="222" on="0"/>
        <pt x="159" y="222" on="1"/>
        <pt x="139" y="222" on="0"/>
        <pt x="118" y="196" on="1"/>
        <pt x="97" y="224" on="1"/>
        <pt x="109" y="241" on="0"/>
        <pt x="144" y="261" on="0"/>
        <pt x="161" y="261" on="1"/>
        <pt x="172" y="261" on="0"/>
        <pt x="194" y="252" on="0"/>
        <pt x="204" y="246" on="1"/>
        <pt x="215" y="240" on="0"/>
        <pt x="231" y="232" on="0"/>
        <pt x="239" y="232" on="1"/>
        <pt x="260" y="232" on="0"/>
        <pt x="280" y="258" on="1"/>
        <pt x="302" y="230" on="1"/>
      </contour>
    </TTGlyph>
    <TTGlyph name="asterisk" xMin="9" yMin="552" xMax="194" yMax="732">
      <contour>
        <pt x="125" y="630" on="1"/>
        <pt x="170" y="571" on="1"/>
        <pt x="142" y="552" on="1"/>
        <pt x="102" y="613" on="1"/>
        <pt x="61" y="552" on="1"/>
        <pt x="33" y="571" on="1"/>
        <pt x="79" y="630" on="1"/>
        <pt x="9" y="651" on="1"/>
        <pt x="20" y="681" on="1"/>
        <pt x="88" y="657" on="1"/>
        <pt x="85" y="732" on="1"/>
        <pt x="119" y="732" on="1"/>
        <pt x="116" y="657" on="1"/>
        <pt x="184" y="681" on="1"/>
        <pt x="194" y="651" on="1"/>
      </contour>
    </TTGlyph>
    <TTGlyph name="at" xMin="39" yMin="-9" xMax="462" yMax="627">
      <contour>
        <pt x="462" y="336" on="1"/>
        <pt x="462" y="218" on="0"/>
        <pt x="421" y="170" on="1"/>
        <pt x="403" y="146" on="0"/>
        <pt x="374" y="146" on="1"/>
        <pt x="348" y="146" on="0"/>
        <pt x="318" y="178" on="0"/>
        <pt x="311" y="205" on="1"/>
        <pt x="281" y="150" on="0"/>
        <pt x="237" y="150" on="1"/>
        <pt x="205" y="150" on="0"/>
        <pt x="162" y="201" on="0"/>
        <pt x="162" y="242" on="1"/>
        <pt x="162" y="284" on="0"/>
        <pt x="207" y="339" on="0"/>
        <pt x="242" y="339" on="1"/>
        <pt x="259" y="339" on="0"/>
        <pt x="289" y="324" on="0"/>
        <pt x="298" y="313" on="1"/>
        <pt x="298" y="357" on="1"/>
        <pt x="298" y="386" on="0"/>
        <pt x="273" y="410" on="0"/>
        <pt x="250" y="410" on="1"/>
        <pt x="220" y="410" on="0"/>
        <pt x="192" y="395" on="1"/>
        <pt x="183" y="430" on="1"/>
        <pt x="200" y="438" on="0"/>
        <pt x="235" y="447" on="0"/>
        <pt x="256" y="447" on="1"/>
        <pt x="292" y="447" on="0"/>
        <pt x="338" y="407" on="0"/>
        <pt x="338" y="356" on="1"/>
        <pt x="338" y="252" on="1"/>
        <pt x="338" y="210" on="0"/>
        <pt x="362" y="179" on="0"/>
        <pt x="376" y="179" on="1"/>
        <pt x="391" y="179" on="0"/>
        <pt x="402" y="194" on="1"/>
        <pt x="428" y="230" on="0"/>
        <pt x="428" y="331" on="1"/>
        <pt x="428" y="382" on="0"/>
        <pt x="406" y="477" on="0"/>
        <pt x="364" y="549" on="0"/>
        <pt x="302" y="593" on="0"/>
        <pt x="262" y="593" on="1"/>
        <pt x="220" y="593" on="0"/>
        <pt x="150" y="546" on="0"/>
        <pt x="100" y="466" on="0"/>
        <pt x="73" y="359" on="0"/>
        <pt x="73" y="298" on="1"/>
        <pt x="73" y="238" on="0"/>
        <pt x="98" y="138" on="0"/>
        <pt x="147" y="66" on="0"/>
        <pt x="219" y="25" on="0"/>
        <pt x="266" y="25" on="1"/>
        <pt x="315" y="25" on="0"/>
        <pt x="359" y="52" on="1"/>
        <pt x="369" y="20" on="1"/>
        <pt x="346" y="7" on="0"/>
        <pt x="293" y="-9" on="0"/>
        <pt x="265" y="-9" on="1"/>
        <pt x="211" y="-9" on="0"/>
        <pt x="127" y="35" on="0"/>
        <pt x="69" y="116" on="0"/>
        <pt x="39" y="229" on="0"/>
        <pt x="39" y="298" on="1"/>
        <pt x="39" y="368" on="0"/>
        <pt x="72" y="488" on="0"/>
        <pt x="131" y="576" on="0"/>
        <pt x="213" y="627" on="0"/>
        <pt x="263" y="627" on="1"/>
        <pt x="309" y="627" on="0"/>
        <pt x="382" y="582" on="0"/>
        <pt x="434" y="503" on="0"/>
        <pt x="462" y="397" on="0"/>
      </contour>
      <contour>
        <pt x="298" y="283" on="1"/>
        <pt x="288" y="292" on="0"/>
        <pt x="264" y="307" on="0"/>
        <pt x="248" y="307" on="1"/>
        <pt x="226" y="307" on="0"/>
        <pt x="201" y="272" on="0"/>
        <pt x="201" y="244" on="1"/>
        <pt x="201" y="217" on="0"/>
        <pt x="224" y="184" on="0"/>
        <pt x="243" y="184" on="1"/>
        <pt x="261" y="184" on="0"/>
        <pt x="289" y="209" on="0"/>
        <pt x="298" y="228" on="1"/>
      </contour>
    </TTGlyph>
    <TTGlyph name="at.cap" xMin="39" yMin="-10" xMax="462" yMax="743">
      <contour>
        <pt x="462" y="400" on="1"/>
        <pt x="462" y="333" on="0"/>
        <pt x="442" y="234" on="0"/>
        <pt x="421" y="209" on="1"/>
        <pt x="403" y="185" on="0"/>
        <pt x="373" y="185" on="1"/>
        <pt x="349" y="185" on="0"/>
        <pt x="318" y="217" on="0"/>
        <pt x="311" y="244" on="1"/>
        <pt x="281" y="189" on="0"/>
        <pt x="238" y="189" on="1"/>
        <pt x="205" y="189" on="0"/>
        <pt x="162" y="245" on="0"/>
        <pt x="162" y="296" on="1"/>
        <pt x="162" y="345" on="0"/>
        <pt x="208" y="406" on="0"/>
        <pt x="244" y="406" on="1"/>
        <pt x="261" y="406" on="0"/>
        <pt x="289" y="391" on="0"/>
        <pt x="298" y="380" on="1"/>
        <pt x="298" y="445" on="1"/>
        <pt x="298" y="474" on="0"/>
        <pt x="273" y="500" on="0"/>
        <pt x="250" y="500" on="1"/>
        <pt x="220" y="500" on="0"/>
        <pt x="192" y="485" on="1"/>
        <pt x="183" y="520" on="1"/>
        <pt x="200" y="528" on="0"/>
        <pt x="235" y="537" on="0"/>
        <pt x="256" y="537" on="1"/>
        <pt x="292" y="537" on="0"/>
        <pt x="338" y="495" on="0"/>
        <pt x="338" y="444" on="1"/>
        <pt x="338" y="292" on="1"/>
        <pt x="338" y="250" on="0"/>
        <pt x="361" y="218" on="0"/>
        <pt x="375" y="218" on="1"/>
        <pt x="391" y="218" on="0"/>
        <pt x="402" y="233" on="1"/>
        <pt x="416" y="252" on="0"/>
        <pt x="428" y="338" on="0"/>
        <pt x="428" y="395" on="1"/>
        <pt x="428" y="446" on="0"/>
        <pt x="412" y="557" on="0"/>
        <pt x="374" y="649" on="0"/>
        <pt x="310" y="709" on="0"/>
        <pt x="262" y="709" on="1"/>
        <pt x="217" y="709" on="0"/>
        <pt x="147" y="653" on="0"/>
        <pt x="99" y="559" on="0"/>
        <pt x="73" y="434" on="0"/>
        <pt x="73" y="365" on="1"/>
        <pt x="73" y="297" on="0"/>
        <pt x="95" y="173" on="0"/>
        <pt x="142" y="79" on="0"/>
        <pt x="217" y="24" on="0"/>
        <pt x="270" y="24" on="1"/>
        <pt x="293" y="24" on="0"/>
        <pt x="339" y="38" on="0"/>
        <pt x="359" y="51" on="1"/>
        <pt x="369" y="19" on="1"/>
        <pt x="346" y="5" on="0"/>
        <pt x="294" y="-10" on="0"/>
        <pt x="270" y="-10" on="1"/>
        <pt x="209" y="-10" on="0"/>
        <pt x="121" y="49" on="0"/>
        <pt x="65" y="151" on="0"/>
        <pt x="39" y="288" on="0"/>
        <pt x="39" y="365" on="1"/>
        <pt x="39" y="443" on="0"/>
        <pt x="70" y="581" on="0"/>
        <pt x="128" y="683" on="0"/>
        <pt x="211" y="743" on="0"/>
        <pt x="263" y="743" on="1"/>
        <pt x="317" y="743" on="0"/>
        <pt x="393" y="682" on="0"/>
        <pt x="441" y="585" on="0"/>
        <pt x="462" y="462" on="0"/>
      </contour>
      <contour>
        <pt x="298" y="350" on="1"/>
        <pt x="288" y="359" on="0"/>
        <pt x="266" y="374" on="0"/>
        <pt x="251" y="374" on="1"/>
        <pt x="229" y="374" on="0"/>
        <pt x="201" y="334" on="0"/>
        <pt x="201" y="298" on="1"/>
        <pt x="201" y="263" on="0"/>
        <pt x="227" y="223" on="0"/>
        <pt x="247" y="223" on="1"/>
        <pt x="264" y="223" on="0"/>
        <pt x="289" y="248" on="0"/>
        <pt x="298" y="267" on="1"/>
      </contour>
    </TTGlyph>
    <TTGlyph name="atilde" xMin="22" yMin="-10" xMax="255" yMax="560">
      <component glyphName="a" x="0" y="0" flags="0x204"/>
      <component glyphName="tilde" x="-49" y="0" flags="0x4"/>
    </TTGlyph>
    <TTGlyph name="b" xMin="45" yMin="-7" xMax="297" yMax="733">
      <contour>
        <pt x="297" y="229" on="1"/>
        <pt x="297" y="173" on="0"/>
        <pt x="276" y="85" on="0"/>
        <pt x="241" y="25" on="0"/>
        <pt x="195" y="-7" on="0"/>
        <pt x="170" y="-7" on="1"/>
        <pt x="148" y="-7" on="0"/>
        <pt x="109" y="18" on="0"/>
        <pt x="93" y="39" on="1"/>
        <pt x="93" y="0" on="1"/>
        <pt x="45" y="0" on="1"/>
        <pt x="45" y="733" on="1"/>
        <pt x="94" y="733" on="1"/>
        <pt x="94" y="404" on="1"/>
        <pt x="111" y="424" on="0"/>
        <pt x="151" y="451" on="0"/>
        <pt x="179" y="451" on="1"/>
        <pt x="202" y="451" on="0"/>
        <pt x="244" y="424" on="0"/>
        <pt x="277" y="369" on="0"/>
        <pt x="297" y="286" on="0"/>
      </contour>
      <contour>
        <pt x="248" y="228" on="1"/>
        <pt x="248" y="276" on="0"/>
        <pt x="235" y="345" on="0"/>
        <pt x="212" y="388" on="0"/>
        <pt x="182" y="408" on="0"/>
        <pt x="165" y="408" on="1"/>
        <pt x="145" y="408" on="0"/>
        <pt x="108" y="380" on="0"/>
        <pt x="94" y="363" on="1"/>
        <pt x="94" y="80" on="1"/>
        <pt x="108" y="63" on="0"/>
        <pt x="141" y="34" on="0"/>
        <pt x="162" y="34" on="1"/>
        <pt x="200" y="34" on="0"/>
        <pt x="248" y="136" on="0"/>
      </contour>
    </TTGlyph>
    <TTGlyph name="backslash" xMin="1" yMin="-216" xMax="187" yMax="733">
      <contour>
        <pt x="143" y="-216" on="1"/>
        <pt x="1" y="733" on="1"/>
        <pt x="45" y="733" on="1"/>
        <pt x="187" y="-216" on="1"/>
      </contour>
    </TTGlyph>
    <TTGlyph name="backslash.cap" xMin="7" yMin="-112" xMax="193" yMax="837">
      <component glyphName="backslash" x="6" y="104" flags="0x204"/>
    </TTGlyph>
    <TTGlyph name="bar" xMin="61" yMin="-215" xMax="102" yMax="734">
      <contour>
        <pt x="61" y="-215" on="1"/>
        <pt x="61" y="734" on="1"/>
        <pt x="102" y="734" on="1"/>
        <pt x="102" y="-215" on="1"/>
      </contour>
    </TTGlyph>
    <TTGlyph name="bar.cap" xMin="61" yMin="-112" xMax="102" yMax="837">
      <component glyphName="bar" x="0" y="103" flags="0x204"/>
    </TTGlyph>
    <TTGlyph name="braceleft" xMin="17" yMin="-223" xMax="204" yMax="740">
      <contour>
        <pt x="204" y="-223" on="1"/>
        <pt x="181" y="-223" on="0"/>
        <pt x="139" y="-210" on="0"/>
        <pt x="107" y="-181" on="0"/>
        <pt x="88" y="-137" on="0"/>
        <pt x="88" y="-106" on="1"/>
        <pt x="88" y="174" on="1"/>
        <pt x="88" y="209" on="0"/>
        <pt x="54" y="236" on="0"/>
        <pt x="31" y="236" on="1"/>
        <pt x="17" y="236" on="1"/>
        <pt x="17" y="282" on="1"/>
        <pt x="31" y="282" on="1"/>
        <pt x="54" y="282" on="0"/>
        <pt x="88" y="309" on="0"/>
        <pt x="88" y="344" on="1"/>
        <pt x="88" y="623" on="1"/>
        <pt x="88" y="654" on="0"/>
        <pt x="107" y="699" on="0"/>
        <pt x="139" y="727" on="0"/>
        <pt x="181" y="740" on="0"/>
        <pt x="204" y="740" on="1"/>
        <pt x="204" y="697" on="1"/>
        <pt x="175" y="697" on="0"/>
        <pt x="135" y="664" on="0"/>
        <pt x="135" y="624" on="1"/>
        <pt x="135" y="353" on="1"/>
        <pt x="135" y="311" on="0"/>
        <pt x="104" y="267" on="0"/>
        <pt x="78" y="258" on="1"/>
        <pt x="104" y="250" on="0"/>
        <pt x="135" y="207" on="0"/>
        <pt x="135" y="165" on="1"/>
        <pt x="135" y="-107" on="1"/>
        <pt x="135" y="-147" on="0"/>
        <pt x="175" y="-180" on="0"/>
        <pt x="204" y="-180" on="1"/>
        <pt x="204" y="-223" on="1"/>
      </contour>
    </TTGlyph>
    <TTGlyph name="braceleft.cap" xMin="17" yMin="-119" xMax="204" yMax="844">
      <component glyphName="braceleft" x="0" y="104" flags="0x204"/>
    </TTGlyph>
    <TTGlyph name="braceright" xMin="7" yMin="-223" xMax="194" yMax="740">
      <contour>
        <pt x="180" y="236" on="1"/>
        <pt x="157" y="236" on="0"/>
        <pt x="123" y="209" on="0"/>
        <pt x="123" y="174" on="1"/>
        <pt x="123" y="-106" on="1"/>
        <pt x="123" y="-137" on="0"/>
        <pt x="104" y="-181" on="0"/>
        <pt x="72" y="-210" on="0"/>
        <pt x="30" y="-223" on="0"/>
        <pt x="7" y="-223" on="1"/>
        <pt x="7" y="-180" on="1"/>
        <pt x="36" y="-180" on="0"/>
        <pt x="76" y="-147" on="0"/>
        <pt x="76" y="-107" on="1"/>
        <pt x="76" y="165" on="1"/>
        <pt x="76" y="207" on="0"/>
        <pt x="107" y="250" on="0"/>
        <pt x="133" y="258" on="1"/>
        <pt x="107" y="267" on="0"/>
        <pt x="76" y="311" on="0"/>
        <pt x="76" y="353" on="1"/>
        <pt x="76" y="624" on="1"/>
        <pt x="76" y="664" on="0"/>
        <pt x="36" y="697" on="0"/>
        <pt x="7" y="697" on="1"/>
        <pt x="7" y="740" on="1"/>
        <pt x="30" y="740" on="0"/>
        <pt x="72" y="727" on="0"/>
        <pt x="104" y="699" on="0"/>
        <pt x="123" y="654" on="0"/>
        <pt x="123" y="623" on="1"/>
        <pt x="123" y="344" on="1"/>
        <pt x="123" y="309" on="0"/>
        <pt x="157" y="282" on="0"/>
        <pt x="180" y="282" on="1"/>
        <pt x="194" y="282" on="1"/>
        <pt x="194" y="236" on="1"/>
      </contour>
    </TTGlyph>
    <TTGlyph name="braceright.cap" xMin="7" yMin="-119" xMax="194" yMax="844">
      <component glyphName="braceright" x="0" y="104" flags="0x204"/>
    </TTGlyph>
    <TTGlyph name="bracketleft" xMin="48" yMin="-217" xMax="186" yMax="733">
      <contour>
        <pt x="48" y="-217" on="1"/>
        <pt x="48" y="733" on="1"/>
        <pt x="186" y="733" on="1"/>
        <pt x="186" y="692" on="1"/>
        <pt x="93" y="692" on="1"/>
        <pt x="93" y="-175" on="1"/>
        <pt x="186" y="-175" on="1"/>
        <pt x="186" y="-217" on="1"/>
      </contour>
    </TTGlyph>
    <TTGlyph name="bracketleft.cap" xMin="48" yMin="-112" xMax="186" yMax="838">
      <component glyphName="bracketleft" x="0" y="105" flags="0x204"/>
    </TTGlyph>
    <TTGlyph name="bracketright" xMin="7" yMin="-216" xMax="145" yMax="733">
      <contour>
        <pt x="7" y="-216" on="1"/>
        <pt x="7" y="-176" on="1"/>
        <pt x="99" y="-176" on="1"/>
        <pt x="99" y="692" on="1"/>
        <pt x="7" y="692" on="1"/>
        <pt x="7" y="733" on="1"/>
        <pt x="145" y="733" on="1"/>
        <pt x="145" y="-216" on="1"/>
      </contour>
    </TTGlyph>
    <TTGlyph name="bracketright.cap" xMin="7" yMin="-112" xMax="145" yMax="837">
      <component glyphName="bracketright" x="0" y="104" flags="0x204"/>
    </TTGlyph>
    <TTGlyph name="breve" xMin="112" yMin="493" xMax="289" yMax="584">
      <contour>
        <pt x="289" y="582" on="1"/>
        <pt x="289" y="546" on="0"/>
        <pt x="243" y="493" on="0"/>
        <pt x="200" y="493" on="1"/>
        <pt x="158" y="493" on="0"/>
        <pt x="112" y="546" on="0"/>
        <pt x="112" y="582" on="1"/>
        <pt x="152" y="584" on="1"/>
        <pt x="153" y="559" on="0"/>
        <pt x="177" y="527" on="0"/>
        <pt x="200" y="527" on="1"/>
        <pt x="225" y="527" on="0"/>
        <pt x="248" y="559" on="0"/>
        <pt x="249" y="584" on="1"/>
        <pt x="289" y="582" on="1"/>
      </contour>
    </TTGlyph>
    <TTGlyph name="bullet" xMin="44" yMin="284" xMax="208" yMax="448">
      <contour>
        <pt x="208" y="366" on="1"/>
        <pt x="208" y="332" on="0"/>
        <pt x="161" y="284" on="0"/>
        <pt x="126" y="284" on="1"/>
        <pt x="92" y="284" on="0"/>
        <pt x="44" y="332" on="0"/>
        <pt x="44" y="366" on="1"/>
        <pt x="44" y="401" on="0"/>
        <pt x="92" y="448" on="0"/>
        <pt x="126" y="448" on="1"/>
        <pt x="161" y="448" on="0"/>
        <pt x="208" y="401" on="0"/>
      </contour>
    </TTGlyph>
    <TTGlyph name="c" xMin="25" yMin="-9" xMax="252" yMax="453">
      <contour>
        <pt x="249" y="26" on="1"/>
        <pt x="231" y="10" on="0"/>
        <pt x="190" y="-9" on="0"/>
        <pt x="164" y="-9" on="1"/>
        <pt x="131" y="-9" on="0"/>
        <pt x="79" y="25" on="0"/>
        <pt x="43" y="87" on="0"/>
        <pt x="25" y="170" on="0"/>
        <pt x="25" y="220" on="1"/>
        <pt x="25" y="269" on="0"/>
        <pt x="43" y="354" on="0"/>
        <pt x="79" y="417" on="0"/>
        <pt x="131" y="453" on="0"/>
        <pt x="165" y="453" on="1"/>
        <pt x="194" y="453" on="0"/>
        <pt x="234" y="434" on="0"/>
        <pt x="252" y="418" on="1"/>
        <pt x="229" y="381" on="1"/>
        <pt x="215" y="392" on="0"/>
        <pt x="185" y="410" on="0"/>
        <pt x="164" y="410" on="1"/>
        <pt x="141" y="410" on="0"/>
        <pt x="107" y="380" on="0"/>
        <pt x="85" y="328" on="0"/>
        <pt x="74" y="259" on="0"/>
        <pt x="74" y="220" on="1"/>
        <pt x="74" y="182" on="0"/>
        <pt x="85" y="115" on="0"/>
        <pt x="108" y="65" on="0"/>
        <pt x="142" y="35" on="0"/>
        <pt x="166" y="35" on="1"/>
        <pt x="185" y="35" on="0"/>
        <pt x="214" y="50" on="0"/>
        <pt x="229" y="62" on="1"/>
        <pt x="249" y="26" on="1"/>
      </contour>
    </TTGlyph>
    <TTGlyph name="cacute" xMin="25" yMin="-9" xMax="269" yMax="605">
      <component glyphName="acute" x="2" y="0" flags="0x4"/>
      <component glyphName="c" x="0" y="0" flags="0x4"/>
    </TTGlyph>
    <TTGlyph name="caron" xMin="101" yMin="490" xMax="299" yMax="595">
      <contour>
        <pt x="205" y="490" on="1"/>
        <pt x="193" y="490" on="1"/>
        <pt x="101" y="595" on="1"/>
        <pt x="149" y="595" on="1"/>
        <pt x="201" y="535" on="1"/>
        <pt x="252" y="595" on="1"/>
        <pt x="299" y="595" on="1"/>
      </contour>
    </TTGlyph>
    <TTGlyph name="caron.alt" xMin="48" yMin="535" xMax="129" yMax="738">
      <contour>
        <pt x="129" y="733" on="1"/>
        <pt x="129" y="676" on="0"/>
        <pt x="104" y="574" on="0"/>
        <pt x="69" y="535" on="1"/>
        <pt x="48" y="548" on="1"/>
        <pt x="74" y="591" on="0"/>
        <pt x="86" y="688" on="0"/>
        <pt x="86" y="738" on="1"/>
      </contour>
    </TTGlyph>
    <TTGlyph name="ccaron" xMin="25" yMin="-9" xMax="258" yMax="595">
      <component glyphName="caron" x="-41" y="0" flags="0x4"/>
      <component glyphName="c" x="0" y="0" flags="0x4"/>
    </TTGlyph>
    <TTGlyph name="ccedilla" xMin="25" yMin="-174" xMax="252" yMax="453">
      <contour>
        <pt x="234" y="-110" on="1"/>
        <pt x="234" y="-136" on="0"/>
        <pt x="197" y="-174" on="0"/>
        <pt x="161" y="-174" on="1"/>
        <pt x="142" y="-174" on="0"/>
        <pt x="104" y="-161" on="0"/>
        <pt x="85" y="-150" on="1"/>
        <pt x="100" y="-120" on="1"/>
        <pt x="132" y="-141" on="0"/>
        <pt x="162" y="-141" on="1"/>
        <pt x="179" y="-141" on="0"/>
        <pt x="198" y="-124" on="0"/>
        <pt x="198" y="-112" on="1"/>
        <pt x="198" y="-96" on="0"/>
        <pt x="163" y="-71" on="0"/>
        <pt x="124" y="-67" on="1"/>
        <pt x="122" y="-62" on="1"/>
        <pt x="137" y="-5" on="1"/>
        <pt x="83" y="8" on="0"/>
        <pt x="25" y="131" on="0"/>
        <pt x="25" y="220" on="1"/>
        <pt x="25" y="269" on="0"/>
        <pt x="43" y="354" on="0"/>
        <pt x="79" y="417" on="0"/>
        <pt x="131" y="453" on="0"/>
        <pt x="165" y="453" on="1"/>
        <pt x="194" y="453" on="0"/>
        <pt x="234" y="434" on="0"/>
        <pt x="252" y="418" on="1"/>
        <pt x="229" y="381" on="1"/>
        <pt x="215" y="392" on="0"/>
        <pt x="185" y="410" on="0"/>
        <pt x="164" y="410" on="1"/>
        <pt x="141" y="410" on="0"/>
        <pt x="107" y="380" on="0"/>
        <pt x="85" y="328" on="0"/>
        <pt x="74" y="259" on="0"/>
        <pt x="74" y="220" on="1"/>
        <pt x="74" y="182" on="0"/>
        <pt x="85" y="115" on="0"/>
        <pt x="108" y="65" on="0"/>
        <pt x="142" y="35" on="0"/>
        <pt x="166" y="35" on="1"/>
        <pt x="185" y="35" on="0"/>
        <pt x="214" y="50" on="0"/>
        <pt x="229" y="62" on="1"/>
        <pt x="249" y="26" on="1"/>
        <pt x="232" y="11" on="0"/>
        <pt x="192" y="-8" on="0"/>
        <pt x="168" y="-9" on="1"/>
        <pt x="160" y="-40" on="1"/>
        <pt x="201" y="-50" on="0"/>
        <pt x="234" y="-88" on="0"/>
      </contour>
    </TTGlyph>
    <TTGlyph name="cdotaccent" xMin="25" yMin="-9" xMax="252" yMax="558">
      <component glyphName="c" x="0" y="0" flags="0x204"/>
      <component glyphName="dotaccent" x="-41" y="0" flags="0x4"/>
    </TTGlyph>
    <TTGlyph name="cedilla" xMin="137" yMin="-174" xMax="286" yMax="14">
      <contour>
        <pt x="286" y="-110" on="1"/>
        <pt x="286" y="-136" on="0"/>
        <pt x="249" y="-174" on="0"/>
        <pt x="213" y="-174" on="1"/>
        <pt x="194" y="-174" on="0"/>
        <pt x="156" y="-161" on="0"/>
        <pt x="137" y="-150" on="1"/>
        <pt x="152" y="-120" on="1"/>
        <pt x="184" y="-141" on="0"/>
        <pt x="214" y="-141" on="1"/>
        <pt x="231" y="-141" on="0"/>
        <pt x="250" y="-124" on="0"/>
        <pt x="250" y="-112" on="1"/>
        <pt x="250" y="-96" on="0"/>
        <pt x="215" y="-71" on="0"/>
        <pt x="176" y="-67" on="1"/>
        <pt x="174" y="-62" on="1"/>
        <pt x="194" y="14" on="1"/>
        <pt x="224" y="6" on="1"/>
        <pt x="212" y="-40" on="1"/>
        <pt x="253" y="-50" on="0"/>
        <pt x="286" y="-88" on="0"/>
      </contour>
    </TTGlyph>
    <TTGlyph name="cent" xMin="25" yMin="-79" xMax="252" yMax="535">
      <contour>
        <pt x="128" y="-3" on="1"/>
        <pt x="77" y="14" on="0"/>
        <pt x="25" y="136" on="0"/>
        <pt x="25" y="220" on="1"/>
        <pt x="25" y="265" on="0"/>
        <pt x="41" y="348" on="0"/>
        <pt x="74" y="411" on="0"/>
        <pt x="124" y="451" on="0"/>
        <pt x="158" y="453" on="1"/>
        <pt x="164" y="535" on="1"/>
        <pt x="200" y="534" on="1"/>
        <pt x="194" y="450" on="1"/>
        <pt x="211" y="445" on="0"/>
        <pt x="238" y="429" on="0"/>
        <pt x="252" y="418" on="1"/>
        <pt x="229" y="381" on="1"/>
        <pt x="219" y="389" on="0"/>
        <pt x="202" y="401" on="0"/>
        <pt x="191" y="405" on="1"/>
        <pt x="166" y="35" on="1"/>
        <pt x="198" y="35" on="0"/>
        <pt x="229" y="62" on="1"/>
        <pt x="249" y="26" on="1"/>
        <pt x="211" y="-7" on="0"/>
        <pt x="163" y="-9" on="1"/>
        <pt x="159" y="-79" on="1"/>
        <pt x="123" y="-77" on="1"/>
      </contour>
      <contour>
        <pt x="74" y="220" on="1"/>
        <pt x="74" y="192" on="0"/>
        <pt x="80" y="138" on="0"/>
        <pt x="93" y="90" on="0"/>
        <pt x="115" y="54" on="0"/>
        <pt x="131" y="44" on="1"/>
        <pt x="155" y="409" on="1"/>
        <pt x="134" y="406" on="0"/>
        <pt x="103" y="372" on="0"/>
        <pt x="84" y="321" on="0"/>
        <pt x="74" y="256" on="0"/>
      </contour>
    </TTGlyph>
    <TTGlyph name="cent.lin" xMin="25" yMin="59" xMax="252" yMax="673">
      <component glyphName="cent" x="0" y="138" flags="0x204"/>
    </TTGlyph>
    <TTGlyph name="circumflex" xMin="103" yMin="492" xMax="301" yMax="597">
      <contour>
        <pt x="253" y="492" on="1"/>
        <pt x="200" y="552" on="1"/>
        <pt x="149" y="492" on="1"/>
        <pt x="103" y="492" on="1"/>
        <pt x="196" y="597" on="1"/>
        <pt x="209" y="597" on="1"/>
        <pt x="301" y="492" on="1"/>
      </contour>
    </TTGlyph>
    <TTGlyph name="colon" xMin="21" yMin="-9" xMax="95" yMax="398">
      <contour>
        <pt x="21" y="29" on="1"/>
        <pt x="21" y="45" on="0"/>
        <pt x="42" y="67" on="0"/>
        <pt x="58" y="67" on="1"/>
        <pt x="73" y="67" on="0"/>
        <pt x="95" y="45" on="0"/>
        <pt x="95" y="29" on="1"/>
        <pt x="95" y="14" on="0"/>
        <pt x="73" y="-9" on="0"/>
        <pt x="58" y="-9" on="1"/>
        <pt x="42" y="-9" on="0"/>
        <pt x="21" y="14" on="0"/>
      </contour>
      <contour>
        <pt x="21" y="360" on="1"/>
        <pt x="21" y="376" on="0"/>
        <pt x="42" y="398" on="0"/>
        <pt x="58" y="398" on="1"/>
        <pt x="73" y="398" on="0"/>
        <pt x="95" y="376" on="0"/>
        <pt x="95" y="360" on="1"/>
        <pt x="95" y="345" on="0"/>
        <pt x="73" y="322" on="0"/>
        <pt x="58" y="322" on="1"/>
        <pt x="42" y="322" on="0"/>
        <pt x="21" y="345" on="0"/>
      </contour>
    </TTGlyph>
    <TTGlyph name="comma" xMin="13" yMin="-97" xMax="96" yMax="68">
      <contour>
        <pt x="96" y="17" on="1"/>
        <pt x="96" y="0" on="0"/>
        <pt x="82" y="-35" on="0"/>
        <pt x="61" y="-66" on="0"/>
        <pt x="35" y="-91" on="0"/>
        <pt x="22" y="-97" on="1"/>
        <pt x="13" y="-86" on="1"/>
        <pt x="35" y="-66" on="0"/>
        <pt x="57" y="-28" on="0"/>
        <pt x="60" y="-8" on="1"/>
        <pt x="41" y="-6" on="0"/>
        <pt x="20" y="16" on="0"/>
        <pt x="20" y="31" on="1"/>
        <pt x="20" y="45" on="0"/>
        <pt x="41" y="68" on="0"/>
        <pt x="55" y="68" on="1"/>
        <pt x="73" y="68" on="0"/>
        <pt x="96" y="40" on="0"/>
      </contour>
    </TTGlyph>
    <TTGlyph name="commaaccent" xMin="24" yMin="-222" xMax="103" yMax="-66">
      <contour>
        <pt x="103" y="-114" on="1"/>
        <pt x="103" y="-130" on="0"/>
        <pt x="90" y="-163" on="0"/>
        <pt x="70" y="-193" on="0"/>
        <pt x="45" y="-216" on="0"/>
        <pt x="33" y="-222" on="1"/>
        <pt x="24" y="-212" on="1"/>
        <pt x="65" y="-176" on="0"/>
        <pt x="69" y="-137" on="1"/>
        <pt x="51" y="-135" on="0"/>
        <pt x="31" y="-115" on="0"/>
        <pt x="31" y="-101" on="1"/>
        <pt x="31" y="-87" on="0"/>
        <pt x="51" y="-66" on="0"/>
        <pt x="65" y="-66" on="1"/>
        <pt x="82" y="-66" on="0"/>
        <pt x="103" y="-91" on="0"/>
      </contour>
    </TTGlyph>
    <TTGlyph name="copyright" xMin="27" yMin="-12" xMax="478" yMax="745">
      <contour>
        <pt x="478" y="366" on="1"/>
        <pt x="478" y="288" on="0"/>
        <pt x="446" y="150" on="0"/>
        <pt x="387" y="47" on="0"/>
        <pt x="304" y="-12" on="0"/>
        <pt x="253" y="-12" on="1"/>
        <pt x="202" y="-12" on="0"/>
        <pt x="119" y="47" on="0"/>
        <pt x="60" y="150" on="0"/>
        <pt x="27" y="288" on="0"/>
        <pt x="27" y="366" on="1"/>
        <pt x="27" y="444" on="0"/>
        <pt x="60" y="582" on="0"/>
        <pt x="119" y="685" on="0"/>
        <pt x="202" y="745" on="0"/>
        <pt x="253" y="745" on="1"/>
        <pt x="304" y="745" on="0"/>
        <pt x="387" y="685" on="0"/>
        <pt x="446" y="582" on="0"/>
        <pt x="478" y="444" on="0"/>
      </contour>
      <contour>
        <pt x="444" y="366" on="1"/>
        <pt x="444" y="434" on="0"/>
        <pt x="417" y="560" on="0"/>
        <pt x="368" y="656" on="0"/>
        <pt x="297" y="713" on="0"/>
        <pt x="253" y="713" on="1"/>
        <pt x="209" y="713" on="0"/>
        <pt x="138" y="656" on="0"/>
        <pt x="88" y="560" on="0"/>
        <pt x="61" y="434" on="0"/>
        <pt x="61" y="366" on="1"/>
        <pt x="61" y="298" on="0"/>
        <pt x="88" y="173" on="0"/>
        <pt x="138" y="77" on="0"/>
        <pt x="209" y="20" on="0"/>
        <pt x="253" y="20" on="1"/>
        <pt x="297" y="20" on="0"/>
        <pt x="368" y="77" on="0"/>
        <pt x="417" y="173" on="0"/>
        <pt x="444" y="298" on="0"/>
      </contour>
      <contour>
        <pt x="326" y="202" on="1"/>
        <pt x="297" y="181" on="0"/>
        <pt x="268" y="181" on="1"/>
        <pt x="223" y="181" on="0"/>
        <pt x="159" y="276" on="0"/>
        <pt x="159" y="368" on="1"/>
        <pt x="159" y="411" on="0"/>
        <pt x="175" y="480" on="0"/>
        <pt x="205" y="529" on="0"/>
        <pt x="245" y="556" on="0"/>
        <pt x="269" y="556" on="1"/>
        <pt x="286" y="556" on="0"/>
        <pt x="313" y="547" on="0"/>
        <pt x="327" y="536" on="1"/>
        <pt x="309" y="502" on="1"/>
        <pt x="291" y="517" on="0"/>
        <pt x="268" y="517" on="1"/>
        <pt x="242" y="517" on="0"/>
        <pt x="202" y="442" on="0"/>
        <pt x="202" y="371" on="1"/>
        <pt x="202" y="295" on="0"/>
        <pt x="244" y="221" on="0"/>
        <pt x="272" y="221" on="1"/>
        <pt x="282" y="221" on="0"/>
        <pt x="303" y="229" on="0"/>
        <pt x="310" y="235" on="1"/>
      </contour>
    </TTGlyph>
    <TTGlyph name="d" xMin="25" yMin="-9" xMax="277" yMax="733">
      <contour>
        <pt x="229" y="0" on="1"/>
        <pt x="229" y="40" on="1"/>
        <pt x="213" y="20" on="0"/>
        <pt x="171" y="-9" on="0"/>
        <pt x="145" y="-9" on="1"/>
        <pt x="122" y="-9" on="0"/>
        <pt x="79" y="18" on="0"/>
        <pt x="45" y="74" on="0"/>
        <pt x="25" y="157" on="0"/>
        <pt x="25" y="214" on="1"/>
        <pt x="25" y="270" on="0"/>
        <pt x="46" y="358" on="0"/>
        <pt x="82" y="419" on="0"/>
        <pt x="129" y="451" on="0"/>
        <pt x="155" y="451" on="1"/>
        <pt x="177" y="451" on="0"/>
        <pt x="213" y="428" on="0"/>
        <pt x="228" y="409" on="1"/>
        <pt x="228" y="733" on="1"/>
        <pt x="277" y="733" on="1"/>
        <pt x="277" y="0" on="1"/>
      </contour>
      <contour>
        <pt x="228" y="367" on="1"/>
        <pt x="214" y="384" on="0"/>
        <pt x="183" y="410" on="0"/>
        <pt x="162" y="410" on="1"/>
        <pt x="124" y="410" on="0"/>
        <pt x="74" y="307" on="0"/>
        <pt x="74" y="215" on="1"/>
        <pt x="74" y="167" on="0"/>
        <pt x="88" y="98" on="0"/>
        <pt x="111" y="55" on="0"/>
        <pt x="142" y="35" on="0"/>
        <pt x="159" y="35" on="1"/>
        <pt x="179" y="35" on="0"/>
        <pt x="215" y="62" on="0"/>
        <pt x="228" y="79" on="1"/>
      </contour>
    </TTGlyph>
    <TTGlyph name="dagger" xMin="19" yMin="215" xMax="237" yMax="733">
      <contour>
        <pt x="151" y="585" on="1"/>
        <pt x="151" y="215" on="1"/>
        <pt x="106" y="215" on="1"/>
        <pt x="106" y="585" on="1"/>
        <pt x="19" y="585" on="1"/>
        <pt x="19" y="628" on="1"/>
        <pt x="106" y="628" on="1"/>
        <pt x="106" y="733" on="1"/>
        <pt x="151" y="733" on="1"/>
        <pt x="151" y="628" on="1"/>
        <pt x="237" y="628" on="1"/>
        <pt x="237" y="585" on="1"/>
      </contour>
    </TTGlyph>
    <TTGlyph name="daggerdbl" xMin="31" yMin="215" xMax="249" yMax="733">
      <contour>
        <pt x="163" y="345" on="1"/>
        <pt x="163" y="215" on="1"/>
        <pt x="118" y="215" on="1"/>
        <pt x="118" y="345" on="1"/>
        <pt x="31" y="345" on="1"/>
        <pt x="31" y="388" on="1"/>
        <pt x="118" y="388" on="1"/>
        <pt x="118" y="560" on="1"/>
        <pt x="31" y="560" on="1"/>
        <pt x="31" y="603" on="1"/>
        <pt x="118" y="603" on="1"/>
        <pt x="118" y="733" on="1"/>
        <pt x="163" y="733" on="1"/>
        <pt x="163" y="603" on="1"/>
        <pt x="249" y="603" on="1"/>
        <pt x="249" y="560" on="1"/>
        <pt x="163" y="560" on="1"/>
        <pt x="163" y="388" on="1"/>
        <pt x="249" y="388" on="1"/>
        <pt x="249" y="345" on="1"/>
      </contour>
    </TTGlyph>
    <TTGlyph name="dcaron" xMin="25" yMin="-9" xMax="376" yMax="736">
      <component glyphName="caron.alt" x="247" y="-2" flags="0x4"/>
      <component glyphName="d" x="0" y="0" flags="0x4"/>
    </TTGlyph>
    <TTGlyph name="dcroat" xMin="25" yMin="-9" xMax="319" yMax="733">
      <contour>
        <pt x="229" y="0" on="1"/>
        <pt x="229" y="40" on="1"/>
        <pt x="213" y="20" on="0"/>
        <pt x="171" y="-9" on="0"/>
        <pt x="145" y="-9" on="1"/>
        <pt x="122" y="-9" on="0"/>
        <pt x="79" y="18" on="0"/>
        <pt x="45" y="74" on="0"/>
        <pt x="25" y="157" on="0"/>
        <pt x="25" y="214" on="1"/>
        <pt x="25" y="270" on="0"/>
        <pt x="46" y="358" on="0"/>
        <pt x="82" y="419" on="0"/>
        <pt x="129" y="451" on="0"/>
        <pt x="155" y="451" on="1"/>
        <pt x="177" y="451" on="0"/>
        <pt x="213" y="428" on="0"/>
        <pt x="228" y="409" on="1"/>
        <pt x="228" y="573" on="1"/>
        <pt x="136" y="573" on="1"/>
        <pt x="136" y="617" on="1"/>
        <pt x="228" y="617" on="1"/>
        <pt x="228" y="733" on="1"/>
        <pt x="277" y="733" on="1"/>
        <pt x="277" y="617" on="1"/>
        <pt x="319" y="617" on="1"/>
        <pt x="319" y="573" on="1"/>
        <pt x="277" y="573" on="1"/>
        <pt x="277" y="0" on="1"/>
      </contour>
      <contour>
        <pt x="228" y="367" on="1"/>
        <pt x="214" y="384" on="0"/>
        <pt x="183" y="410" on="0"/>
        <pt x="162" y="410" on="1"/>
        <pt x="124" y="410" on="0"/>
        <pt x="74" y="307" on="0"/>
        <pt x="74" y="215" on="1"/>
        <pt x="74" y="167" on="0"/>
        <pt x="88" y="98" on="0"/>
        <pt x="111" y="55" on="0"/>
        <pt x="142" y="35" on="0"/>
        <pt x="159" y="35" on="1"/>
        <pt x="179" y="35" on="0"/>
        <pt x="215" y="62" on="0"/>
        <pt x="228" y="79" on="1"/>
      </contour>
    </TTGlyph>
    <TTGlyph name="degree" xMin="43" yMin="478" xMax="291" yMax="730">
      <contour>
        <pt x="291" y="604" on="1"/>
        <pt x="291" y="578" on="0"/>
        <pt x="273" y="532" on="0"/>
        <pt x="241" y="498" on="0"/>
        <pt x="195" y="478" on="0"/>
        <pt x="167" y="478" on="1"/>
        <pt x="138" y="478" on="0"/>
        <pt x="93" y="498" on="0"/>
        <pt x="60" y="532" on="0"/>
        <pt x="43" y="578" on="0"/>
        <pt x="43" y="604" on="1"/>
        <pt x="43" y="630" on="0"/>
        <pt x="61" y="676" on="0"/>
        <pt x="93" y="710" on="0"/>
        <pt x="139" y="730" on="0"/>
        <pt x="167" y="730" on="1"/>
        <pt x="195" y="730" on="0"/>
        <pt x="240" y="710" on="0"/>
        <pt x="273" y="676" on="0"/>
        <pt x="291" y="630" on="0"/>
      </contour>
      <contour>
        <pt x="246" y="604" on="1"/>
        <pt x="246" y="644" on="0"/>
        <pt x="201" y="692" on="0"/>
        <pt x="166" y="692" on="1"/>
        <pt x="131" y="692" on="0"/>
        <pt x="87" y="644" on="0"/>
        <pt x="87" y="604" on="1"/>
        <pt x="87" y="566" on="0"/>
        <pt x="131" y="514" on="0"/>
        <pt x="166" y="514" on="1"/>
        <pt x="201" y="514" on="0"/>
        <pt x="246" y="566" on="0"/>
      </contour>
    </TTGlyph>
    <TTGlyph name="degree.lin" xMin="43" yMin="478" xMax="291" yMax="730">
      <contour>
        <pt x="291" y="604" on="1"/>
        <pt x="291" y="578" on="0"/>
        <pt x="273" y="532" on="0"/>
        <pt x="241" y="498" on="0"/>
        <pt x="195" y="478" on="0"/>
        <pt x="167" y="478" on="1"/>
        <pt x="138" y="478" on="0"/>
        <pt x="93" y="498" on="0"/>
        <pt x="60" y="532" on="0"/>
        <pt x="43" y="578" on="0"/>
        <pt x="43" y="604" on="1"/>
        <pt x="43" y="630" on="0"/>
        <pt x="61" y="676" on="0"/>
        <pt x="93" y="710" on="0"/>
        <pt x="139" y="730" on="0"/>
        <pt x="167" y="730" on="1"/>
        <pt x="195" y="730" on="0"/>
        <pt x="240" y="710" on="0"/>
        <pt x="273" y="676" on="0"/>
        <pt x="291" y="630" on="0"/>
      </contour>
      <contour>
        <pt x="246" y="604" on="1"/>
        <pt x="246" y="644" on="0"/>
        <pt x="201" y="692" on="0"/>
        <pt x="166" y="692" on="1"/>
        <pt x="131" y="692" on="0"/>
        <pt x="87" y="644" on="0"/>
        <pt x="87" y="604" on="1"/>
        <pt x="87" y="566" on="0"/>
        <pt x="131" y="514" on="0"/>
        <pt x="166" y="514" on="1"/>
        <pt x="201" y="514" on="0"/>
        <pt x="246" y="566" on="0"/>
      </contour>
    </TTGlyph>
    <TTGlyph name="dieresis" xMin="113" yMin="493" xMax="288" yMax="558">
      <contour>
        <pt x="288" y="525" on="1"/>
        <pt x="288" y="511" on="0"/>
        <pt x="270" y="493" on="0"/>
        <pt x="256" y="493" on="1"/>
        <pt x="242" y="493" on="0"/>
        <pt x="224" y="511" on="0"/>
        <pt x="224" y="525" on="1"/>
        <pt x="224" y="539" on="0"/>
        <pt x="242" y="558" on="0"/>
        <pt x="256" y="558" on="1"/>
        <pt x="270" y="558" on="0"/>
        <pt x="288" y="539" on="0"/>
      </contour>
      <contour>
        <pt x="177" y="525" on="1"/>
        <pt x="177" y="511" on="0"/>
        <pt x="158" y="493" on="0"/>
        <pt x="144" y="493" on="1"/>
        <pt x="131" y="493" on="0"/>
        <pt x="113" y="511" on="0"/>
        <pt x="113" y="525" on="1"/>
        <pt x="113" y="539" on="0"/>
        <pt x="131" y="558" on="0"/>
        <pt x="144" y="558" on="1"/>
        <pt x="158" y="558" on="0"/>
        <pt x="177" y="539" on="0"/>
      </contour>
    </TTGlyph>
    <TTGlyph name="divide" xMin="31" yMin="227" xMax="301" yMax="515">
      <contour>
        <pt x="31" y="393" on="1"/>
        <pt x="301" y="393" on="1"/>
        <pt x="301" y="350" on="1"/>
        <pt x="31" y="350" on="1"/>
      </contour>
      <contour>
        <pt x="134" y="483" on="1"/>
        <pt x="134" y="496" on="0"/>
        <pt x="152" y="515" on="0"/>
        <pt x="166" y="515" on="1"/>
        <pt x="180" y="515" on="0"/>
        <pt x="197" y="496" on="0"/>
        <pt x="197" y="483" on="1"/>
        <pt x="197" y="469" on="0"/>
        <pt x="179" y="450" on="0"/>
        <pt x="165" y="450" on="1"/>
        <pt x="152" y="450" on="0"/>
        <pt x="134" y="469" on="0"/>
      </contour>
      <contour>
        <pt x="134" y="260" on="1"/>
        <pt x="134" y="273" on="0"/>
        <pt x="152" y="292" on="0"/>
        <pt x="166" y="292" on="1"/>
        <pt x="180" y="292" on="0"/>
        <pt x="198" y="273" on="0"/>
        <pt x="198" y="260" on="1"/>
        <pt x="198" y="246" on="0"/>
        <pt x="180" y="227" on="0"/>
        <pt x="166" y="227" on="1"/>
        <pt x="152" y="227" on="0"/>
        <pt x="134" y="246" on="0"/>
      </contour>
    </TTGlyph>
    <TTGlyph name="divide.lin" xMin="31" yMin="227" xMax="301" yMax="515">
      <component glyphName="divide" x="0" y="0" flags="0x204"/>
    </TTGlyph>
    <TTGlyph name="dollar" xMin="8" yMin="-72" xMax="304" yMax="786">
      <contour>
        <pt x="243" y="780" on="1"/>
        <pt x="234" y="720" on="1"/>
        <pt x="254" y="712" on="0"/>
        <pt x="287" y="691" on="0"/>
        <pt x="301" y="678" on="1"/>
        <pt x="278" y="638" on="1"/>
        <pt x="254" y="660" on="0"/>
        <pt x="227" y="674" on="1"/>
        <pt x="185" y="385" on="1"/>
        <pt x="206" y="362" on="0"/>
        <pt x="249" y="314" on="0"/>
        <pt x="283" y="261" on="0"/>
        <pt x="304" y="199" on="0"/>
        <pt x="304" y="162" on="1"/>
        <pt x="304" y="123" on="0"/>
        <pt x="280" y="60" on="0"/>
        <pt x="239" y="15" on="0"/>
        <pt x="184" y="-10" on="0"/>
        <pt x="153" y="-10" on="1"/>
        <pt x="146" y="-10" on="0"/>
        <pt x="134" y="-9" on="0"/>
        <pt x="127" y="-8" on="1"/>
        <pt x="118" y="-72" on="1"/>
        <pt x="82" y="-65" on="1"/>
        <pt x="91" y="1" on="1"/>
        <pt x="68" y="9" on="0"/>
        <pt x="26" y="35" on="0"/>
        <pt x="8" y="51" on="1"/>
        <pt x="31" y="91" on="1"/>
        <pt x="46" y="77" on="0"/>
        <pt x="80" y="54" on="0"/>
        <pt x="98" y="46" on="1"/>
        <pt x="144" y="360" on="1"/>
        <pt x="123" y="382" on="0"/>
        <pt x="83" y="427" on="0"/>
        <pt x="51" y="477" on="0"/>
        <pt x="32" y="534" on="0"/>
        <pt x="32" y="568" on="1"/>
        <pt x="32" y="603" on="0"/>
        <pt x="55" y="663" on="0"/>
        <pt x="94" y="706" on="0"/>
        <pt x="147" y="730" on="0"/>
        <pt x="177" y="730" on="1"/>
        <pt x="182" y="730" on="0"/>
        <pt x="193" y="730" on="0"/>
        <pt x="198" y="729" on="1"/>
        <pt x="206" y="786" on="1"/>
      </contour>
      <contour>
        <pt x="256" y="160" on="1"/>
        <pt x="256" y="211" on="0"/>
        <pt x="208" y="288" on="0"/>
        <pt x="176" y="325" on="1"/>
        <pt x="133" y="34" on="1"/>
        <pt x="138" y="33" on="0"/>
        <pt x="147" y="33" on="0"/>
        <pt x="152" y="33" on="1"/>
        <pt x="199" y="33" on="0"/>
        <pt x="256" y="103" on="0"/>
      </contour>
      <contour>
        <pt x="80" y="570" on="1"/>
        <pt x="80" y="524" on="0"/>
        <pt x="122" y="453" on="0"/>
        <pt x="153" y="419" on="1"/>
        <pt x="191" y="685" on="1"/>
        <pt x="187" y="685" on="0"/>
        <pt x="180" y="686" on="0"/>
        <pt x="176" y="686" on="1"/>
        <pt x="133" y="686" on="0"/>
        <pt x="80" y="620" on="0"/>
      </contour>
    </TTGlyph>
    <TTGlyph name="dollar.lin" xMin="8" yMin="-72" xMax="304" yMax="786">
      <contour>
        <pt x="243" y="780" on="1"/>
        <pt x="234" y="720" on="1"/>
        <pt x="254" y="712" on="0"/>
        <pt x="287" y="691" on="0"/>
        <pt x="301" y="678" on="1"/>
        <pt x="278" y="638" on="1"/>
        <pt x="254" y="660" on="0"/>
        <pt x="227" y="674" on="1"/>
        <pt x="185" y="385" on="1"/>
        <pt x="206" y="362" on="0"/>
        <pt x="249" y="314" on="0"/>
        <pt x="283" y="261" on="0"/>
        <pt x="304" y="199" on="0"/>
        <pt x="304" y="162" on="1"/>
        <pt x="304" y="123" on="0"/>
        <pt x="280" y="60" on="0"/>
        <pt x="239" y="15" on="0"/>
        <pt x="184" y="-10" on="0"/>
        <pt x="153" y="-10" on="1"/>
        <pt x="146" y="-10" on="0"/>
        <pt x="134" y="-9" on="0"/>
        <pt x="127" y="-8" on="1"/>
        <pt x="118" y="-72" on="1"/>
        <pt x="82" y="-65" on="1"/>
        <pt x="91" y="1" on="1"/>
        <pt x="68" y="9" on="0"/>
        <pt x="26" y="35" on="0"/>
        <pt x="8" y="51" on="1"/>
        <pt x="31" y="91" on="1"/>
        <pt x="46" y="77" on="0"/>
        <pt x="80" y="54" on="0"/>
        <pt x="98" y="46" on="1"/>
        <pt x="144" y="360" on="1"/>
        <pt x="123" y="382" on="0"/>
        <pt x="83" y="427" on="0"/>
        <pt x="51" y="477" on="0"/>
        <pt x="32" y="534" on="0"/>
        <pt x="32" y="568" on="1"/>
        <pt x="32" y="603" on="0"/>
        <pt x="55" y="663" on="0"/>
        <pt x="94" y="706" on="0"/>
        <pt x="147" y="730" on="0"/>
        <pt x="177" y="730" on="1"/>
        <pt x="182" y="730" on="0"/>
        <pt x="193" y="730" on="0"/>
        <pt x="198" y="729" on="1"/>
        <pt x="206" y="786" on="1"/>
      </contour>
      <contour>
        <pt x="256" y="160" on="1"/>
        <pt x="256" y="211" on="0"/>
        <pt x="208" y="288" on="0"/>
        <pt x="176" y="325" on="1"/>
        <pt x="133" y="34" on="1"/>
        <pt x="138" y="33" on="0"/>
        <pt x="147" y="33" on="0"/>
        <pt x="152" y="33" on="1"/>
        <pt x="199" y="33" on="0"/>
        <pt x="256" y="103" on="0"/>
      </contour>
      <contour>
        <pt x="80" y="570" on="1"/>
        <pt x="80" y="524" on="0"/>
        <pt x="122" y="453" on="0"/>
        <pt x="153" y="419" on="1"/>
        <pt x="191" y="685" on="1"/>
        <pt x="187" y="685" on="0"/>
        <pt x="180" y="686" on="0"/>
        <pt x="176" y="686" on="1"/>
        <pt x="133" y="686" on="0"/>
        <pt x="80" y="620" on="0"/>
      </contour>
    </TTGlyph>
    <TTGlyph name="dotaccent" xMin="168" yMin="492" xMax="233" yMax="558">
      <contour>
        <pt x="168" y="525" on="1"/>
        <pt x="168" y="539" on="0"/>
        <pt x="186" y="558" on="0"/>
        <pt x="200" y="558" on="1"/>
        <pt x="214" y="558" on="0"/>
        <pt x="233" y="539" on="0"/>
        <pt x="233" y="525" on="1"/>
        <pt x="233" y="511" on="0"/>
        <pt x="214" y="492" on="0"/>
        <pt x="200" y="492" on="1"/>
        <pt x="186" y="492" on="0"/>
        <pt x="168" y="511" on="0"/>
      </contour>
    </TTGlyph>
    <TTGlyph name="dotlessi" xMin="46" yMin="0" xMax="95" yMax="444">
      <contour>
        <pt x="46" y="0" on="1"/>
        <pt x="46" y="444" on="1"/>
        <pt x="95" y="444" on="1"/>
        <pt x="95" y="0" on="1"/>
      </contour>
    </TTGlyph>
    <TTGlyph name="e" xMin="25" yMin="-9" xMax="270" yMax="454">
      <contour>
        <pt x="270" y="240" on="1"/>
        <pt x="270" y="229" on="0"/>
        <pt x="270" y="213" on="0"/>
        <pt x="268" y="205" on="1"/>
        <pt x="74" y="205" on="1"/>
        <pt x="73" y="127" on="0"/>
        <pt x="122" y="33" on="0"/>
        <pt x="172" y="33" on="1"/>
        <pt x="190" y="33" on="0"/>
        <pt x="225" y="46" on="0"/>
        <pt x="245" y="59" on="1"/>
        <pt x="261" y="22" on="1"/>
        <pt x="239" y="8" on="0"/>
        <pt x="192" y="-9" on="0"/>
        <pt x="166" y="-9" on="1"/>
        <pt x="102" y="-9" on="0"/>
        <pt x="25" y="104" on="0"/>
        <pt x="25" y="221" on="1"/>
        <pt x="25" y="272" on="0"/>
        <pt x="44" y="358" on="0"/>
        <pt x="78" y="420" on="0"/>
        <pt x="125" y="454" on="0"/>
        <pt x="154" y="454" on="1"/>
        <pt x="181" y="454" on="0"/>
        <pt x="224" y="422" on="0"/>
        <pt x="254" y="365" on="0"/>
        <pt x="270" y="287" on="0"/>
      </contour>
      <contour>
        <pt x="223" y="244" on="1"/>
        <pt x="223" y="279" on="0"/>
        <pt x="214" y="341" on="0"/>
        <pt x="196" y="386" on="0"/>
        <pt x="170" y="412" on="0"/>
        <pt x="153" y="412" on="1"/>
        <pt x="120" y="412" on="0"/>
        <pt x="77" y="322" on="0"/>
        <pt x="74" y="244" on="1"/>
      </contour>
    </TTGlyph>
    <TTGlyph name="eacute" xMin="25" yMin="-9" xMax="270" yMax="605">
      <component glyphName="acute" x="-3" y="0" flags="0x4"/>
      <component glyphName="e" x="0" y="0" flags="0x4"/>
    </TTGlyph>
    <TTGlyph name="ebreve" xMin="25" yMin="-9" xMax="270" yMax="584">
      <component glyphName="e" x="0" y="0" flags="0x204"/>
      <component glyphName="breve" x="-48" y="0" flags="0x4"/>
    </TTGlyph>
    <TTGlyph name="ecaron" xMin="25" yMin="-9" xMax="270" yMax="595">
      <component glyphName="caron" x="-48" y="0" flags="0x4"/>
      <component glyphName="e" x="0" y="0" flags="0x4"/>
    </TTGlyph>
    <TTGlyph name="ecircumflex" xMin="25" yMin="-9" xMax="270" yMax="597">
      <component glyphName="circumflex" x="-50" y="0" flags="0x4"/>
      <component glyphName="e" x="0" y="0" flags="0x4"/>
    </TTGlyph>
    <TTGlyph name="edieresis" xMin="25" yMin="-9" xMax="270" yMax="558">
      <component glyphName="dieresis" x="-48" y="0" flags="0x4"/>
      <component glyphName="e" x="0" y="0" flags="0x4"/>
    </TTGlyph>
    <TTGlyph name="edotaccent" xMin="25" yMin="-9" xMax="270" yMax="558">
      <component glyphName="e" x="0" y="0" flags="0x204"/>
      <component glyphName="dotaccent" x="-48" y="0" flags="0x4"/>
    </TTGlyph>
    <TTGlyph name="egrave" xMin="25" yMin="-9" xMax="270" yMax="605">
      <component glyphName="e" x="0" y="0" flags="0x204"/>
      <component glyphName="grave" x="-95" y="0" flags="0x4"/>
    </TTGlyph>
    <TTGlyph name="eight" xMin="31" yMin="-10" xMax="312" yMax="730">
      <contour>
        <pt x="312" y="185" on="1"/>
        <pt x="312" y="142" on="0"/>
        <pt x="291" y="71" on="0"/>
        <pt x="253" y="19" on="0"/>
        <pt x="202" y="-10" on="0"/>
        <pt x="172" y="-10" on="1"/>
        <pt x="142" y="-10" on="0"/>
        <pt x="90" y="19" on="0"/>
        <pt x="52" y="70" on="0"/>
        <pt x="31" y="141" on="0"/>
        <pt x="31" y="184" on="1"/>
        <pt x="31" y="210" on="0"/>
        <pt x="41" y="266" on="0"/>
        <pt x="61" y="316" on="0"/>
        <pt x="93" y="357" on="0"/>
        <pt x="115" y="368" on="1"/>
        <pt x="77" y="392" on="0"/>
        <pt x="39" y="485" on="0"/>
        <pt x="39" y="541" on="1"/>
        <pt x="39" y="582" on="0"/>
        <pt x="59" y="652" on="0"/>
        <pt x="94" y="702" on="0"/>
        <pt x="143" y="730" on="0"/>
        <pt x="172" y="730" on="1"/>
        <pt x="201" y="730" on="0"/>
        <pt x="250" y="702" on="0"/>
        <pt x="285" y="652" on="0"/>
        <pt x="305" y="582" on="0"/>
        <pt x="305" y="541" on="1"/>
        <pt x="305" y="485" on="0"/>
        <pt x="266" y="392" on="0"/>
        <pt x="229" y="368" on="1"/>
        <pt x="251" y="357" on="0"/>
        <pt x="282" y="317" on="0"/>
        <pt x="302" y="266" on="0"/>
        <pt x="312" y="211" on="0"/>
      </contour>
      <contour>
        <pt x="256" y="540" on="1"/>
        <pt x="256" y="605" on="0"/>
        <pt x="211" y="685" on="0"/>
        <pt x="172" y="685" on="1"/>
        <pt x="133" y="685" on="0"/>
        <pt x="88" y="605" on="0"/>
        <pt x="88" y="540" on="1"/>
        <pt x="88" y="507" on="0"/>
        <pt x="100" y="451" on="0"/>
        <pt x="122" y="411" on="0"/>
        <pt x="153" y="388" on="0"/>
        <pt x="172" y="388" on="1"/>
        <pt x="191" y="388" on="0"/>
        <pt x="222" y="411" on="0"/>
        <pt x="244" y="451" on="0"/>
        <pt x="256" y="507" on="0"/>
      </contour>
      <contour>
        <pt x="264" y="186" on="1"/>
        <pt x="264" y="220" on="0"/>
        <pt x="251" y="278" on="0"/>
        <pt x="226" y="320" on="0"/>
        <pt x="192" y="344" on="0"/>
        <pt x="171" y="344" on="1"/>
        <pt x="150" y="344" on="0"/>
        <pt x="117" y="320" on="0"/>
        <pt x="93" y="278" on="0"/>
        <pt x="80" y="220" on="0"/>
        <pt x="80" y="186" on="1"/>
        <pt x="80" y="155" on="0"/>
        <pt x="93" y="100" on="0"/>
        <pt x="117" y="59" on="0"/>
        <pt x="151" y="35" on="0"/>
        <pt x="171" y="35" on="1"/>
        <pt x="192" y="35" on="0"/>
        <pt x="226" y="59" on="0"/>
        <pt x="250" y="101" on="0"/>
        <pt x="264" y="156" on="0"/>
      </contour>
    </TTGlyph>
    <TTGlyph name="eight.lin" xMin="31" yMin="-10" xMax="312" yMax="730">
      <contour>
        <pt x="312" y="185" on="1"/>
        <pt x="312" y="142" on="0"/>
        <pt x="291" y="71" on="0"/>
        <pt x="253" y="19" on="0"/>
        <pt x="202" y="-10" on="0"/>
        <pt x="172" y="-10" on="1"/>
        <pt x="142" y="-10" on="0"/>
        <pt x="90" y="19" on="0"/>
        <pt x="52" y="70" on="0"/>
        <pt x="31" y="141" on="0"/>
        <pt x="31" y="184" on="1"/>
        <pt x="31" y="210" on="0"/>
        <pt x="41" y="266" on="0"/>
        <pt x="61" y="316" on="0"/>
        <pt x="93" y="357" on="0"/>
        <pt x="115" y="368" on="1"/>
        <pt x="77" y="392" on="0"/>
        <pt x="39" y="485" on="0"/>
        <pt x="39" y="541" on="1"/>
        <pt x="39" y="582" on="0"/>
        <pt x="59" y="652" on="0"/>
        <pt x="94" y="702" on="0"/>
        <pt x="143" y="730" on="0"/>
        <pt x="172" y="730" on="1"/>
        <pt x="201" y="730" on="0"/>
        <pt x="250" y="702" on="0"/>
        <pt x="285" y="652" on="0"/>
        <pt x="305" y="582" on="0"/>
        <pt x="305" y="541" on="1"/>
        <pt x="305" y="485" on="0"/>
        <pt x="266" y="392" on="0"/>
        <pt x="229" y="368" on="1"/>
        <pt x="251" y="357" on="0"/>
        <pt x="282" y="317" on="0"/>
        <pt x="302" y="266" on="0"/>
        <pt x="312" y="211" on="0"/>
      </contour>
      <contour>
        <pt x="256" y="540" on="1"/>
        <pt x="256" y="605" on="0"/>
        <pt x="211" y="685" on="0"/>
        <pt x="172" y="685" on="1"/>
        <pt x="133" y="685" on="0"/>
        <pt x="88" y="605" on="0"/>
        <pt x="88" y="540" on="1"/>
        <pt x="88" y="507" on="0"/>
        <pt x="100" y="451" on="0"/>
        <pt x="122" y="411" on="0"/>
        <pt x="153" y="388" on="0"/>
        <pt x="172" y="388" on="1"/>
        <pt x="191" y="388" on="0"/>
        <pt x="222" y="411" on="0"/>
        <pt x="244" y="451" on="0"/>
        <pt x="256" y="507" on="0"/>
      </contour>
      <contour>
        <pt x="264" y="186" on="1"/>
        <pt x="264" y="220" on="0"/>
        <pt x="251" y="278" on="0"/>
        <pt x="226" y="320" on="0"/>
        <pt x="192" y="344" on="0"/>
        <pt x="171" y="344" on="1"/>
        <pt x="150" y="344" on="0"/>
        <pt x="117" y="320" on="0"/>
        <pt x="93" y="278" on="0"/>
        <pt x="80" y="220" on="0"/>
        <pt x="80" y="186" on="1"/>
        <pt x="80" y="155" on="0"/>
        <pt x="93" y="100" on="0"/>
        <pt x="117" y="59" on="0"/>
        <pt x="151" y="35" on="0"/>
        <pt x="171" y="35" on="1"/>
        <pt x="192" y="35" on="0"/>
        <pt x="226" y="59" on="0"/>
        <pt x="250" y="101" on="0"/>
        <pt x="264" y="156" on="0"/>
      </contour>
    </TTGlyph>
    <TTGlyph name="ellipsis" xMin="34" yMin="-9" xMax="395" yMax="67">
      <contour>
        <pt x="34" y="29" on="1"/>
        <pt x="34" y="45" on="0"/>
        <pt x="55" y="67" on="0"/>
        <pt x="71" y="67" on="1"/>
        <pt x="86" y="67" on="0"/>
        <pt x="108" y="45" on="0"/>
        <pt x="108" y="29" on="1"/>
        <pt x="108" y="14" on="0"/>
        <pt x="86" y="-9" on="0"/>
        <pt x="71" y="-9" on="1"/>
        <pt x="55" y="-9" on="0"/>
        <pt x="34" y="14" on="0"/>
      </contour>
      <contour>
        <pt x="177" y="29" on="1"/>
        <pt x="177" y="45" on="0"/>
        <pt x="199" y="67" on="0"/>
        <pt x="214" y="67" on="1"/>
        <pt x="230" y="67" on="0"/>
        <pt x="251" y="45" on="0"/>
        <pt x="251" y="29" on="1"/>
        <pt x="251" y="14" on="0"/>
        <pt x="230" y="-9" on="0"/>
        <pt x="214" y="-9" on="1"/>
        <pt x="199" y="-9" on="0"/>
        <pt x="177" y="14" on="0"/>
      </contour>
      <contour>
        <pt x="321" y="29" on="1"/>
        <pt x="321" y="45" on="0"/>
        <pt x="342" y="67" on="0"/>
        <pt x="358" y="67" on="1"/>
        <pt x="373" y="67" on="0"/>
        <pt x="395" y="45" on="0"/>
        <pt x="395" y="29" on="1"/>
        <pt x="395" y="14" on="0"/>
        <pt x="373" y="-9" on="0"/>
        <pt x="358" y="-9" on="1"/>
        <pt x="342" y="-9" on="0"/>
        <pt x="321" y="14" on="0"/>
      </contour>
    </TTGlyph>
    <TTGlyph name="emacron" xMin="25" yMin="-9" xMax="270" yMax="538">
      <component glyphName="e" x="0" y="0" flags="0x204"/>
      <component glyphName="macron" x="-48" y="0" flags="0x4"/>
    </TTGlyph>
    <TTGlyph name="emdash" xMin="33" yMin="245" xMax="404" yMax="291">
      <contour>
        <pt x="33" y="245" on="1"/>
        <pt x="33" y="291" on="1"/>
        <pt x="404" y="291" on="1"/>
        <pt x="404" y="245" on="1"/>
      </contour>
    </TTGlyph>
    <TTGlyph name="emdash.cap" xMin="33" yMin="348" xMax="404" yMax="394">
      <component glyphName="emdash" x="0" y="103" flags="0x204"/>
    </TTGlyph>
    <TTGlyph name="endash" xMin="33" yMin="245" xMax="261" yMax="291">
      <contour>
        <pt x="33" y="245" on="1"/>
        <pt x="33" y="291" on="1"/>
        <pt x="261" y="291" on="1"/>
        <pt x="261" y="245" on="1"/>
      </contour>
    </TTGlyph>
    <TTGlyph name="endash.cap" xMin="33" yMin="348" xMax="261" yMax="394">
      <component glyphName="endash" x="0" y="103" flags="0x204"/>
    </TTGlyph>
    <TTGlyph name="eogonek" xMin="25" yMin="-188" xMax="270" yMax="454">
      <contour>
        <pt x="270" y="240" on="1"/>
        <pt x="270" y="229" on="0"/>
        <pt x="270" y="213" on="0"/>
        <pt x="268" y="205" on="1"/>
        <pt x="74" y="205" on="1"/>
        <pt x="73" y="127" on="0"/>
        <pt x="122" y="33" on="0"/>
        <pt x="172" y="33" on="1"/>
        <pt x="190" y="33" on="0"/>
        <pt x="225" y="46" on="0"/>
        <pt x="245" y="59" on="1"/>
        <pt x="261" y="22" on="1"/>
        <pt x="228" y="-12" on="0"/>
        <pt x="193" y="-85" on="0"/>
        <pt x="193" y="-114" on="1"/>
        <pt x="193" y="-131" on="0"/>
        <pt x="208" y="-152" on="0"/>
        <pt x="220" y="-152" on="1"/>
        <pt x="237" y="-152" on="0"/>
        <pt x="250" y="-139" on="1"/>
        <pt x="265" y="-164" on="1"/>
        <pt x="256" y="-175" on="0"/>
        <pt x="229" y="-188" on="0"/>
        <pt x="212" y="-188" on="1"/>
        <pt x="186" y="-188" on="0"/>
        <pt x="154" y="-152" on="0"/>
        <pt x="154" y="-121" on="1"/>
        <pt x="154" y="-96" on="0"/>
        <pt x="177" y="-36" on="0"/>
        <pt x="202" y="-4" on="1"/>
        <pt x="184" y="-9" on="0"/>
        <pt x="166" y="-9" on="1"/>
        <pt x="102" y="-9" on="0"/>
        <pt x="25" y="104" on="0"/>
        <pt x="25" y="221" on="1"/>
        <pt x="25" y="272" on="0"/>
        <pt x="44" y="358" on="0"/>
        <pt x="78" y="420" on="0"/>
        <pt x="125" y="454" on="0"/>
        <pt x="154" y="454" on="1"/>
        <pt x="181" y="454" on="0"/>
        <pt x="224" y="422" on="0"/>
        <pt x="254" y="365" on="0"/>
        <pt x="270" y="287" on="0"/>
      </contour>
      <contour>
        <pt x="223" y="244" on="1"/>
        <pt x="223" y="279" on="0"/>
        <pt x="214" y="341" on="0"/>
        <pt x="196" y="386" on="0"/>
        <pt x="170" y="412" on="0"/>
        <pt x="153" y="412" on="1"/>
        <pt x="120" y="412" on="0"/>
        <pt x="77" y="322" on="0"/>
        <pt x="74" y="244" on="1"/>
      </contour>
    </TTGlyph>
    <TTGlyph name="equal" xMin="35" yMin="288" xMax="212" yMax="455">
      <contour>
        <pt x="35" y="412" on="1"/>
        <pt x="35" y="455" on="1"/>
        <pt x="212" y="455" on="1"/>
        <pt x="212" y="412" on="1"/>
      </contour>
      <contour>
        <pt x="35" y="288" on="1"/>
        <pt x="35" y="331" on="1"/>
        <pt x="212" y="331" on="1"/>
        <pt x="212" y="288" on="1"/>
      </contour>
    </TTGlyph>
    <TTGlyph name="equal.lin" xMin="35" yMin="288" xMax="212" yMax="455">
      <component glyphName="equal" x="0" y="0" flags="0x204"/>
    </TTGlyph>
    <TTGlyph name="eth" xMin="25" yMin="-10" xMax="292" yMax="733">
      <contour>
        <pt x="52" y="593" on="1"/>
        <pt x="113" y="645" on="1"/>
        <pt x="101" y="661" on="0"/>
        <pt x="76" y="688" on="0"/>
        <pt x="64" y="701" on="1"/>
        <pt x="95" y="733" on="1"/>
        <pt x="122" y="705" on="0"/>
        <pt x="148" y="674" on="1"/>
        <pt x="205" y="723" on="1"/>
        <pt x="231" y="692" on="1"/>
        <pt x="172" y="642" on="1"/>
        <pt x="225" y="567" on="0"/>
        <pt x="292" y="369" on="0"/>
        <pt x="292" y="237" on="1"/>
        <pt x="292" y="122" on="0"/>
        <pt x="221" y="-10" on="0"/>
        <pt x="159" y="-10" on="1"/>
        <pt x="98" y="-10" on="0"/>
        <pt x="26" y="112" on="0"/>
        <pt x="25" y="221" on="1"/>
        <pt x="25" y="273" on="0"/>
        <pt x="43" y="359" on="0"/>
        <pt x="76" y="420" on="0"/>
        <pt x="119" y="454" on="0"/>
        <pt x="145" y="454" on="1"/>
        <pt x="174" y="454" on="0"/>
        <pt x="223" y="410" on="0"/>
        <pt x="241" y="370" on="1"/>
        <pt x="227" y="442" on="0"/>
        <pt x="172" y="563" on="0"/>
        <pt x="137" y="612" on="1"/>
        <pt x="78" y="562" on="1"/>
      </contour>
      <contour>
        <pt x="243" y="223" on="1"/>
        <pt x="243" y="262" on="0"/>
        <pt x="229" y="330" on="0"/>
        <pt x="205" y="381" on="0"/>
        <pt x="171" y="410" on="0"/>
        <pt x="151" y="410" on="1"/>
        <pt x="132" y="410" on="0"/>
        <pt x="103" y="380" on="0"/>
        <pt x="84" y="329" on="0"/>
        <pt x="74" y="260" on="0"/>
        <pt x="74" y="222" on="1"/>
        <pt x="74" y="181" on="0"/>
        <pt x="85" y="112" on="0"/>
        <pt x="107" y="61" on="0"/>
        <pt x="138" y="32" on="0"/>
        <pt x="159" y="32" on="1"/>
        <pt x="180" y="32" on="0"/>
        <pt x="211" y="63" on="0"/>
        <pt x="232" y="116" on="0"/>
        <pt x="243" y="185" on="0"/>
      </contour>
    </TTGlyph>
    <TTGlyph name="exclam" xMin="33" yMin="-9" xMax="108" yMax="733">
      <contour>
        <pt x="87" y="182" on="1"/>
        <pt x="53" y="182" on="1"/>
        <pt x="43" y="733" on="1"/>
        <pt x="97" y="733" on="1"/>
      </contour>
      <contour>
        <pt x="108" y="29" on="1"/>
        <pt x="108" y="14" on="0"/>
        <pt x="86" y="-9" on="0"/>
        <pt x="70" y="-9" on="1"/>
        <pt x="55" y="-9" on="0"/>
        <pt x="33" y="14" on="0"/>
        <pt x="33" y="29" on="1"/>
        <pt x="33" y="44" on="0"/>
        <pt x="55" y="67" on="0"/>
        <pt x="70" y="67" on="1"/>
        <pt x="86" y="67" on="0"/>
        <pt x="108" y="44" on="0"/>
      </contour>
    </TTGlyph>
    <TTGlyph name="exclamdown" xMin="33" yMin="0" xMax="107" yMax="742">
      <contour>
        <pt x="33" y="704" on="1"/>
        <pt x="33" y="720" on="0"/>
        <pt x="55" y="742" on="0"/>
        <pt x="70" y="742" on="1"/>
        <pt x="86" y="742" on="0"/>
        <pt x="107" y="720" on="0"/>
        <pt x="107" y="704" on="1"/>
        <pt x="107" y="689" on="0"/>
        <pt x="86" y="666" on="0"/>
        <pt x="70" y="666" on="1"/>
        <pt x="55" y="666" on="0"/>
        <pt x="33" y="689" on="0"/>
      </contour>
      <contour>
        <pt x="53" y="551" on="1"/>
        <pt x="87" y="551" on="1"/>
        <pt x="97" y="0" on="1"/>
        <pt x="43" y="0" on="1"/>
      </contour>
    </TTGlyph>
    <TTGlyph name="f" xMin="5" yMin="0" xMax="208" yMax="740">
      <contour>
        <pt x="201" y="689" on="1"/>
        <pt x="193" y="691" on="0"/>
        <pt x="172" y="695" on="0"/>
        <pt x="164" y="695" on="1"/>
        <pt x="138" y="695" on="0"/>
        <pt x="110" y="660" on="0"/>
        <pt x="110" y="615" on="1"/>
        <pt x="110" y="444" on="1"/>
        <pt x="185" y="444" on="1"/>
        <pt x="185" y="400" on="1"/>
        <pt x="110" y="400" on="1"/>
        <pt x="110" y="0" on="1"/>
        <pt x="62" y="0" on="1"/>
        <pt x="62" y="399" on="1"/>
        <pt x="5" y="399" on="1"/>
        <pt x="5" y="414" on="1"/>
        <pt x="62" y="447" on="1"/>
        <pt x="62" y="612" on="1"/>
        <pt x="62" y="681" on="0"/>
        <pt x="114" y="740" on="0"/>
        <pt x="161" y="740" on="1"/>
        <pt x="176" y="740" on="0"/>
        <pt x="200" y="736" on="0"/>
        <pt x="208" y="734" on="1"/>
      </contour>
    </TTGlyph>
    <TTGlyph name="f_f" xMin="5" yMin="0" xMax="399" yMax="740">
      <contour>
        <pt x="201" y="689" on="1"/>
        <pt x="193" y="691" on="0"/>
        <pt x="172" y="695" on="0"/>
        <pt x="164" y="695" on="1"/>
        <pt x="138" y="695" on="0"/>
        <pt x="110" y="660" on="0"/>
        <pt x="110" y="615" on="1"/>
        <pt x="110" y="444" on="1"/>
        <pt x="185" y="444" on="1"/>
        <pt x="185" y="400" on="1"/>
        <pt x="110" y="400" on="1"/>
        <pt x="110" y="0" on="1"/>
        <pt x="62" y="0" on="1"/>
        <pt x="62" y="399" on="1"/>
        <pt x="5" y="399" on="1"/>
        <pt x="5" y="414" on="1"/>
        <pt x="62" y="447" on="1"/>
        <pt x="62" y="612" on="1"/>
        <pt x="62" y="681" on="0"/>
        <pt x="114" y="740" on="0"/>
        <pt x="161" y="740" on="1"/>
        <pt x="176" y="740" on="0"/>
        <pt x="200" y="736" on="0"/>
        <pt x="208" y="734" on="1"/>
      </contour>
      <contour>
        <pt x="392" y="689" on="1"/>
        <pt x="384" y="691" on="0"/>
        <pt x="363" y="695" on="0"/>
        <pt x="355" y="695" on="1"/>
        <pt x="329" y="695" on="0"/>
        <pt x="301" y="660" on="0"/>
        <pt x="301" y="615" on="1"/>
        <pt x="301" y="444" on="1"/>
        <pt x="376" y="444" on="1"/>
        <pt x="376" y="400" on="1"/>
        <pt x="301" y="400" on="1"/>
        <pt x="301" y="0" on="1"/>
        <pt x="253" y="0" on="1"/>
        <pt x="253" y="399" on="1"/>
        <pt x="196" y="399" on="1"/>
        <pt x="196" y="414" on="1"/>
        <pt x="253" y="447" on="1"/>
        <pt x="253" y="612" on="1"/>
        <pt x="253" y="681" on="0"/>
        <pt x="305" y="740" on="0"/>
        <pt x="352" y="740" on="1"/>
        <pt x="367" y="740" on="0"/>
        <pt x="391" y="736" on="0"/>
        <pt x="399" y="734" on="1"/>
      </contour>
    </TTGlyph>
    <TTGlyph name="f_f_i" xMin="5" yMin="0" xMax="488" yMax="740">
      <contour>
        <pt x="201" y="689" on="1"/>
        <pt x="193" y="691" on="0"/>
        <pt x="172" y="695" on="0"/>
        <pt x="164" y="695" on="1"/>
        <pt x="138" y="695" on="0"/>
        <pt x="110" y="660" on="0"/>
        <pt x="110" y="615" on="1"/>
        <pt x="110" y="444" on="1"/>
        <pt x="185" y="444" on="1"/>
        <pt x="185" y="400" on="1"/>
        <pt x="110" y="400" on="1"/>
        <pt x="110" y="0" on="1"/>
        <pt x="62" y="0" on="1"/>
        <pt x="62" y="399" on="1"/>
        <pt x="5" y="399" on="1"/>
        <pt x="5" y="414" on="1"/>
        <pt x="62" y="447" on="1"/>
        <pt x="62" y="612" on="1"/>
        <pt x="62" y="681" on="0"/>
        <pt x="114" y="740" on="0"/>
        <pt x="161" y="740" on="1"/>
        <pt x="176" y="740" on="0"/>
        <pt x="200" y="736" on="0"/>
        <pt x="208" y="734" on="1"/>
      </contour>
      <contour>
        <pt x="392" y="689" on="1"/>
        <pt x="384" y="691" on="0"/>
        <pt x="363" y="695" on="0"/>
        <pt x="355" y="695" on="1"/>
        <pt x="329" y="695" on="0"/>
        <pt x="301" y="660" on="0"/>
        <pt x="301" y="615" on="1"/>
        <pt x="301" y="444" on="1"/>
        <pt x="376" y="444" on="1"/>
        <pt x="376" y="400" on="1"/>
        <pt x="301" y="400" on="1"/>
        <pt x="301" y="0" on="1"/>
        <pt x="253" y="0" on="1"/>
        <pt x="253" y="399" on="1"/>
        <pt x="196" y="399" on="1"/>
        <pt x="196" y="414" on="1"/>
        <pt x="253" y="447" on="1"/>
        <pt x="253" y="612" on="1"/>
        <pt x="253" y="681" on="0"/>
        <pt x="305" y="740" on="0"/>
        <pt x="352" y="740" on="1"/>
        <pt x="367" y="740" on="0"/>
        <pt x="391" y="736" on="0"/>
        <pt x="399" y="734" on="1"/>
      </contour>
      <contour>
        <pt x="488" y="579" on="1"/>
        <pt x="488" y="565" on="0"/>
        <pt x="468" y="542" on="0"/>
        <pt x="453" y="542" on="1"/>
        <pt x="438" y="542" on="0"/>
        <pt x="418" y="565" on="0"/>
        <pt x="418" y="579" on="1"/>
        <pt x="418" y="594" on="0"/>
        <pt x="438" y="617" on="0"/>
        <pt x="453" y="617" on="1"/>
        <pt x="468" y="617" on="0"/>
        <pt x="488" y="594" on="0"/>
      </contour>
      <contour>
        <pt x="428" y="0" on="1"/>
        <pt x="428" y="444" on="1"/>
        <pt x="477" y="444" on="1"/>
        <pt x="477" y="0" on="1"/>
      </contour>
    </TTGlyph>
    <TTGlyph name="f_f_l" xMin="5" yMin="0" xMax="477" yMax="740">
      <contour>
        <pt x="201" y="689" on="1"/>
        <pt x="193" y="691" on="0"/>
        <pt x="172" y="695" on="0"/>
        <pt x="164" y="695" on="1"/>
        <pt x="138" y="695" on="0"/>
        <pt x="110" y="660" on="0"/>
        <pt x="110" y="615" on="1"/>
        <pt x="110" y="444" on="1"/>
        <pt x="185" y="444" on="1"/>
        <pt x="185" y="400" on="1"/>
        <pt x="110" y="400" on="1"/>
        <pt x="110" y="0" on="1"/>
        <pt x="62" y="0" on="1"/>
        <pt x="62" y="399" on="1"/>
        <pt x="5" y="399" on="1"/>
        <pt x="5" y="414" on="1"/>
        <pt x="62" y="447" on="1"/>
        <pt x="62" y="612" on="1"/>
        <pt x="62" y="681" on="0"/>
        <pt x="114" y="740" on="0"/>
        <pt x="161" y="740" on="1"/>
        <pt x="176" y="740" on="0"/>
        <pt x="200" y="736" on="0"/>
        <pt x="208" y="734" on="1"/>
      </contour>
      <contour>
        <pt x="392" y="689" on="1"/>
        <pt x="384" y="691" on="0"/>
        <pt x="363" y="695" on="0"/>
        <pt x="355" y="695" on="1"/>
        <pt x="329" y="695" on="0"/>
        <pt x="301" y="660" on="0"/>
        <pt x="301" y="615" on="1"/>
        <pt x="301" y="444" on="1"/>
        <pt x="376" y="444" on="1"/>
        <pt x="376" y="400" on="1"/>
        <pt x="301" y="400" on="1"/>
        <pt x="301" y="0" on="1"/>
        <pt x="253" y="0" on="1"/>
        <pt x="253" y="399" on="1"/>
        <pt x="196" y="399" on="1"/>
        <pt x="196" y="414" on="1"/>
        <pt x="253" y="447" on="1"/>
        <pt x="253" y="612" on="1"/>
        <pt x="253" y="681" on="0"/>
        <pt x="305" y="740" on="0"/>
        <pt x="352" y="740" on="1"/>
        <pt x="367" y="740" on="0"/>
        <pt x="391" y="736" on="0"/>
        <pt x="399" y="734" on="1"/>
      </contour>
      <contour>
        <pt x="428" y="0" on="1"/>
        <pt x="428" y="733" on="1"/>
        <pt x="477" y="733" on="1"/>
        <pt x="477" y="0" on="1"/>
      </contour>
    </TTGlyph>
    <TTGlyph name="fi" xMin="5" yMin="0" xMax="297" yMax="740">
      <contour>
        <pt x="297" y="579" on="1"/>
        <pt x="297" y="565" on="0"/>
        <pt x="277" y="542" on="0"/>
        <pt x="262" y="542" on="1"/>
        <pt x="247" y="542" on="0"/>
        <pt x="227" y="565" on="0"/>
        <pt x="227" y="579" on="1"/>
        <pt x="227" y="594" on="0"/>
        <pt x="247" y="617" on="0"/>
        <pt x="262" y="617" on="1"/>
        <pt x="277" y="617" on="0"/>
        <pt x="297" y="594" on="0"/>
      </contour>
      <contour>
        <pt x="201" y="689" on="1"/>
        <pt x="193" y="691" on="0"/>
        <pt x="172" y="695" on="0"/>
        <pt x="164" y="695" on="1"/>
        <pt x="138" y="695" on="0"/>
        <pt x="110" y="660" on="0"/>
        <pt x="110" y="615" on="1"/>
        <pt x="110" y="444" on="1"/>
        <pt x="185" y="444" on="1"/>
        <pt x="185" y="400" on="1"/>
        <pt x="110" y="400" on="1"/>
        <pt x="110" y="0" on="1"/>
        <pt x="62" y="0" on="1"/>
        <pt x="62" y="399" on="1"/>
        <pt x="5" y="399" on="1"/>
        <pt x="5" y="414" on="1"/>
        <pt x="62" y="447" on="1"/>
        <pt x="62" y="612" on="1"/>
        <pt x="62" y="681" on="0"/>
        <pt x="114" y="740" on="0"/>
        <pt x="161" y="740" on="1"/>
        <pt x="176" y="740" on="0"/>
        <pt x="200" y="736" on="0"/>
        <pt x="208" y="734" on="1"/>
      </contour>
      <contour>
        <pt x="237" y="0" on="1"/>
        <pt x="237" y="444" on="1"/>
        <pt x="286" y="444" on="1"/>
        <pt x="286" y="0" on="1"/>
      </contour>
    </TTGlyph>
    <TTGlyph name="five" xMin="27" yMin="-10" xMax="291" yMax="721">
      <contour>
        <pt x="291" y="224" on="1"/>
        <pt x="291" y="172" on="0"/>
        <pt x="269" y="86" on="0"/>
        <pt x="227" y="24" on="0"/>
        <pt x="168" y="-10" on="0"/>
        <pt x="131" y="-10" on="1"/>
        <pt x="101" y="-10" on="0"/>
        <pt x="53" y="6" on="0"/>
        <pt x="27" y="20" on="1"/>
        <pt x="47" y="64" on="1"/>
        <pt x="68" y="51" on="0"/>
        <pt x="109" y="37" on="0"/>
        <pt x="131" y="37" on="1"/>
        <pt x="179" y="37" on="0"/>
        <pt x="241" y="131" on="0"/>
        <pt x="241" y="220" on="1"/>
        <pt x="241" y="304" on="0"/>
        <pt x="179" y="385" on="0"/>
        <pt x="124" y="385" on="1"/>
        <pt x="103" y="385" on="0"/>
        <pt x="70" y="378" on="0"/>
        <pt x="56" y="373" on="1"/>
        <pt x="51" y="378" on="1"/>
        <pt x="51" y="721" on="1"/>
        <pt x="276" y="721" on="1"/>
        <pt x="276" y="675" on="1"/>
        <pt x="99" y="675" on="1"/>
        <pt x="99" y="426" on="1"/>
        <pt x="114" y="430" on="0"/>
        <pt x="137" y="430" on="1"/>
        <pt x="206" y="430" on="0"/>
        <pt x="291" y="320" on="0"/>
      </contour>
    </TTGlyph>
    <TTGlyph name="five.lin" xMin="27" yMin="-10" xMax="291" yMax="721">
      <contour>
        <pt x="291" y="224" on="1"/>
        <pt x="291" y="172" on="0"/>
        <pt x="269" y="86" on="0"/>
        <pt x="227" y="24" on="0"/>
        <pt x="168" y="-10" on="0"/>
        <pt x="131" y="-10" on="1"/>
        <pt x="101" y="-10" on="0"/>
        <pt x="53" y="6" on="0"/>
        <pt x="27" y="20" on="1"/>
        <pt x="47" y="64" on="1"/>
        <pt x="68" y="51" on="0"/>
        <pt x="109" y="37" on="0"/>
        <pt x="131" y="37" on="1"/>
        <pt x="179" y="37" on="0"/>
        <pt x="241" y="131" on="0"/>
        <pt x="241" y="220" on="1"/>
        <pt x="241" y="304" on="0"/>
        <pt x="179" y="385" on="0"/>
        <pt x="124" y="385" on="1"/>
        <pt x="103" y="385" on="0"/>
        <pt x="70" y="378" on="0"/>
        <pt x="56" y="373" on="1"/>
        <pt x="51" y="378" on="1"/>
        <pt x="51" y="721" on="1"/>
        <pt x="276" y="721" on="1"/>
        <pt x="276" y="675" on="1"/>
        <pt x="99" y="675" on="1"/>
        <pt x="99" y="426" on="1"/>
        <pt x="114" y="430" on="0"/>
        <pt x="137" y="430" on="1"/>
        <pt x="206" y="430" on="0"/>
        <pt x="291" y="320" on="0"/>
      </contour>
    </TTGlyph>
    <TTGlyph name="fl" xMin="5" yMin="0" xMax="286" yMax="740">
      <contour>
        <pt x="201" y="689" on="1"/>
        <pt x="193" y="691" on="0"/>
        <pt x="172" y="695" on="0"/>
        <pt x="164" y="695" on="1"/>
        <pt x="138" y="695" on="0"/>
        <pt x="110" y="660" on="0"/>
        <pt x="110" y="615" on="1"/>
        <pt x="110" y="444" on="1"/>
        <pt x="185" y="444" on="1"/>
        <pt x="185" y="400" on="1"/>
        <pt x="110" y="400" on="1"/>
        <pt x="110" y="0" on="1"/>
        <pt x="62" y="0" on="1"/>
        <pt x="62" y="399" on="1"/>
        <pt x="5" y="399" on="1"/>
        <pt x="5" y="414" on="1"/>
        <pt x="62" y="447" on="1"/>
        <pt x="62" y="612" on="1"/>
        <pt x="62" y="681" on="0"/>
        <pt x="114" y="740" on="0"/>
        <pt x="161" y="740" on="1"/>
        <pt x="176" y="740" on="0"/>
        <pt x="200" y="736" on="0"/>
        <pt x="208" y="734" on="1"/>
      </contour>
      <contour>
        <pt x="237" y="0" on="1"/>
        <pt x="237" y="733" on="1"/>
        <pt x="286" y="733" on="1"/>
        <pt x="286" y="0" on="1"/>
      </contour>
    </TTGlyph>
    <TTGlyph name="florin" xMin="24" yMin="0" xMax="260" yMax="730">
      <contour>
        <pt x="249" y="679" on="1"/>
        <pt x="232" y="684" on="0"/>
        <pt x="214" y="684" on="1"/>
        <pt x="184" y="684" on="0"/>
        <pt x="155" y="647" on="0"/>
        <pt x="150" y="605" on="1"/>
        <pt x="133" y="439" on="1"/>
        <pt x="213" y="439" on="1"/>
        <pt x="213" y="395" on="1"/>
        <pt x="129" y="395" on="1"/>
        <pt x="89" y="0" on="1"/>
        <pt x="41" y="0" on="1"/>
        <pt x="81" y="395" on="1"/>
        <pt x="24" y="395" on="1"/>
        <pt x="25" y="410" on="1"/>
        <pt x="85" y="443" on="1"/>
        <pt x="102" y="604" on="1"/>
        <pt x="106" y="641" on="0"/>
        <pt x="126" y="689" on="0"/>
        <pt x="156" y="718" on="0"/>
        <pt x="194" y="730" on="0"/>
        <pt x="216" y="730" on="1"/>
        <pt x="229" y="730" on="0"/>
        <pt x="252" y="725" on="0"/>
        <pt x="260" y="723" on="1"/>
      </contour>
    </TTGlyph>
    <TTGlyph name="florin.lin" xMin="24" yMin="0" xMax="260" yMax="730">
      <contour>
        <pt x="249" y="679" on="1"/>
        <pt x="232" y="684" on="0"/>
        <pt x="214" y="684" on="1"/>
        <pt x="184" y="684" on="0"/>
        <pt x="155" y="647" on="0"/>
        <pt x="150" y="605" on="1"/>
        <pt x="133" y="439" on="1"/>
        <pt x="213" y="439" on="1"/>
        <pt x="213" y="395" on="1"/>
        <pt x="129" y="395" on="1"/>
        <pt x="89" y="0" on="1"/>
        <pt x="41" y="0" on="1"/>
        <pt x="81" y="395" on="1"/>
        <pt x="24" y="395" on="1"/>
        <pt x="25" y="410" on="1"/>
        <pt x="85" y="443" on="1"/>
        <pt x="102" y="604" on="1"/>
        <pt x="106" y="641" on="0"/>
        <pt x="126" y="689" on="0"/>
        <pt x="156" y="718" on="0"/>
        <pt x="194" y="730" on="0"/>
        <pt x="216" y="730" on="1"/>
        <pt x="229" y="730" on="0"/>
        <pt x="252" y="725" on="0"/>
        <pt x="260" y="723" on="1"/>
      </contour>
    </TTGlyph>
    <TTGlyph name="four" xMin="7" yMin="0" xMax="331" yMax="726">
      <contour>
        <pt x="266" y="210" on="1"/>
        <pt x="266" y="0" on="1"/>
        <pt x="219" y="0" on="1"/>
        <pt x="219" y="210" on="1"/>
        <pt x="7" y="210" on="1"/>
        <pt x="7" y="227" on="1"/>
        <pt x="231" y="726" on="1"/>
        <pt x="266" y="726" on="1"/>
        <pt x="266" y="256" on="1"/>
        <pt x="331" y="256" on="1"/>
        <pt x="331" y="210" on="1"/>
      </contour>
      <contour>
        <pt x="219" y="601" on="1"/>
        <pt x="67" y="255" on="1"/>
        <pt x="219" y="255" on="1"/>
      </contour>
    </TTGlyph>
    <TTGlyph name="four.lin" xMin="7" yMin="0" xMax="331" yMax="726">
      <contour>
        <pt x="266" y="210" on="1"/>
        <pt x="266" y="0" on="1"/>
        <pt x="219" y="0" on="1"/>
        <pt x="219" y="210" on="1"/>
        <pt x="7" y="210" on="1"/>
        <pt x="7" y="227" on="1"/>
        <pt x="231" y="726" on="1"/>
        <pt x="266" y="726" on="1"/>
        <pt x="266" y="256" on="1"/>
        <pt x="331" y="256" on="1"/>
        <pt x="331" y="210" on="1"/>
      </contour>
      <contour>
        <pt x="219" y="601" on="1"/>
        <pt x="67" y="255" on="1"/>
        <pt x="219" y="255" on="1"/>
      </contour>
    </TTGlyph>
    <TTGlyph name="fraction" xMin="8" yMin="-9" xMax="407" yMax="752">
      <contour>
        <pt x="41" y="-9" on="1"/>
        <pt x="8" y="9" on="1"/>
        <pt x="374" y="752" on="1"/>
        <pt x="407" y="735" on="1"/>
      </contour>
    </TTGlyph>
    <TTGlyph name="fraction.lin" xMin="8" yMin="-9" xMax="407" yMax="752">
      <contour>
        <pt x="41" y="-9" on="1"/>
        <pt x="8" y="9" on="1"/>
        <pt x="374" y="752" on="1"/>
        <pt x="407" y="735" on="1"/>
      </contour>
    </TTGlyph>
    <TTGlyph name="g" xMin="25" yMin="-192" xMax="277" yMax="451">
      <contour>
        <pt x="277" y="-73" on="1"/>
        <pt x="277" y="-137" on="0"/>
        <pt x="222" y="-192" on="0"/>
        <pt x="171" y="-192" on="1"/>
        <pt x="145" y="-192" on="0"/>
        <pt x="89" y="-179" on="0"/>
        <pt x="66" y="-168" on="1"/>
        <pt x="78" y="-123" on="1"/>
        <pt x="100" y="-134" on="0"/>
        <pt x="149" y="-147" on="0"/>
        <pt x="169" y="-147" on="1"/>
        <pt x="201" y="-147" on="0"/>
        <pt x="228" y="-112" on="0"/>
        <pt x="228" y="-74" on="1"/>
        <pt x="228" y="39" on="1"/>
        <pt x="212" y="20" on="0"/>
        <pt x="171" y="-9" on="0"/>
        <pt x="145" y="-9" on="1"/>
        <pt x="122" y="-9" on="0"/>
        <pt x="79" y="18" on="0"/>
        <pt x="45" y="74" on="0"/>
        <pt x="25" y="157" on="0"/>
        <pt x="25" y="214" on="1"/>
        <pt x="25" y="270" on="0"/>
        <pt x="46" y="358" on="0"/>
        <pt x="82" y="419" on="0"/>
        <pt x="129" y="451" on="0"/>
        <pt x="155" y="451" on="1"/>
        <pt x="177" y="451" on="0"/>
        <pt x="214" y="427" on="0"/>
        <pt x="229" y="408" on="1"/>
        <pt x="229" y="444" on="1"/>
        <pt x="277" y="444" on="1"/>
      </contour>
      <contour>
        <pt x="228" y="367" on="1"/>
        <pt x="214" y="384" on="0"/>
        <pt x="183" y="410" on="0"/>
        <pt x="162" y="410" on="1"/>
        <pt x="124" y="410" on="0"/>
        <pt x="74" y="307" on="0"/>
        <pt x="74" y="215" on="1"/>
        <pt x="74" y="167" on="0"/>
        <pt x="88" y="98" on="0"/>
        <pt x="111" y="55" on="0"/>
        <pt x="142" y="35" on="0"/>
        <pt x="159" y="35" on="1"/>
        <pt x="179" y="35" on="0"/>
        <pt x="215" y="62" on="0"/>
        <pt x="228" y="79" on="1"/>
      </contour>
    </TTGlyph>
    <TTGlyph name="gbreve" xMin="25" yMin="-192" xMax="277" yMax="584">
      <component glyphName="g" x="0" y="0" flags="0x204"/>
      <component glyphName="breve" x="-36" y="0" flags="0x4"/>
    </TTGlyph>
    <TTGlyph name="gcommaaccent" xMin="25" yMin="-192" xMax="277" yMax="648">
      <contour>
        <pt x="125" y="540" on="1"/>
        <pt x="125" y="556" on="0"/>
        <pt x="138" y="589" on="0"/>
        <pt x="158" y="619" on="0"/>
        <pt x="183" y="642" on="0"/>
        <pt x="195" y="648" on="1"/>
        <pt x="204" y="638" on="1"/>
        <pt x="163" y="602" on="0"/>
        <pt x="159" y="563" on="1"/>
        <pt x="177" y="561" on="0"/>
        <pt x="197" y="541" on="0"/>
        <pt x="197" y="527" on="1"/>
        <pt x="197" y="513" on="0"/>
        <pt x="177" y="492" on="0"/>
        <pt x="163" y="492" on="1"/>
        <pt x="146" y="492" on="0"/>
        <pt x="125" y="517" on="0"/>
      </contour>
      <contour>
        <pt x="277" y="-73" on="1"/>
        <pt x="277" y="-137" on="0"/>
        <pt x="222" y="-192" on="0"/>
        <pt x="171" y="-192" on="1"/>
        <pt x="145" y="-192" on="0"/>
        <pt x="89" y="-179" on="0"/>
        <pt x="66" y="-168" on="1"/>
        <pt x="78" y="-123" on="1"/>
        <pt x="100" y="-134" on="0"/>
        <pt x="149" y="-147" on="0"/>
        <pt x="169" y="-147" on="1"/>
        <pt x="201" y="-147" on="0"/>
        <pt x="228" y="-112" on="0"/>
        <pt x="228" y="-74" on="1"/>
        <pt x="228" y="39" on="1"/>
        <pt x="212" y="20" on="0"/>
        <pt x="171" y="-9" on="0"/>
        <pt x="145" y="-9" on="1"/>
        <pt x="122" y="-9" on="0"/>
        <pt x="79" y="18" on="0"/>
        <pt x="45" y="74" on="0"/>
        <pt x="25" y="157" on="0"/>
        <pt x="25" y="214" on="1"/>
        <pt x="25" y="270" on="0"/>
        <pt x="46" y="358" on="0"/>
        <pt x="82" y="419" on="0"/>
        <pt x="129" y="451" on="0"/>
        <pt x="155" y="451" on="1"/>
        <pt x="177" y="451" on="0"/>
        <pt x="214" y="427" on="0"/>
        <pt x="229" y="408" on="1"/>
        <pt x="229" y="444" on="1"/>
        <pt x="277" y="444" on="1"/>
      </contour>
      <contour>
        <pt x="228" y="367" on="1"/>
        <pt x="214" y="384" on="0"/>
        <pt x="183" y="410" on="0"/>
        <pt x="162" y="410" on="1"/>
        <pt x="124" y="410" on="0"/>
        <pt x="74" y="307" on="0"/>
        <pt x="74" y="215" on="1"/>
        <pt x="74" y="167" on="0"/>
        <pt x="88" y="98" on="0"/>
        <pt x="111" y="55" on="0"/>
        <pt x="142" y="35" on="0"/>
        <pt x="159" y="35" on="1"/>
        <pt x="179" y="35" on="0"/>
        <pt x="215" y="62" on="0"/>
        <pt x="228" y="79" on="1"/>
      </contour>
    </TTGlyph>
    <TTGlyph name="gdotaccent" xMin="25" yMin="-192" xMax="277" yMax="558">
      <component glyphName="g" x="0" y="0" flags="0x204"/>
      <component glyphName="dotaccent" x="-36" y="0" flags="0x4"/>
    </TTGlyph>
    <TTGlyph name="germandbls" xMin="42" yMin="-94" xMax="285" yMax="740">
      <contour>
        <pt x="194" y="206" on="1"/>
        <pt x="231" y="194" on="0"/>
        <pt x="285" y="125" on="0"/>
        <pt x="285" y="65" on="1"/>
        <pt x="285" y="-10" on="0"/>
        <pt x="209" y="-94" on="0"/>
        <pt x="150" y="-94" on="1"/>
        <pt x="136" y="-94" on="0"/>
        <pt x="130" y="-92" on="1"/>
        <pt x="134" y="-50" on="1"/>
        <pt x="135" y="-50" on="0"/>
        <pt x="142" y="-51" on="0"/>
        <pt x="148" y="-51" on="1"/>
        <pt x="187" y="-51" on="0"/>
        <pt x="238" y="12" on="0"/>
        <pt x="238" y="64" on="1"/>
        <pt x="238" y="116" on="0"/>
        <pt x="182" y="170" on="0"/>
        <pt x="146" y="172" on="1"/>
        <pt x="143" y="172" on="1"/>
        <pt x="143" y="173" on="0"/>
        <pt x="141" y="180" on="0"/>
        <pt x="141" y="181" on="1"/>
        <pt x="223" y="400" on="1"/>
        <pt x="90" y="400" on="1"/>
        <pt x="90" y="0" on="1"/>
        <pt x="42" y="0" on="1"/>
        <pt x="42" y="612" on="1"/>
        <pt x="42" y="681" on="0"/>
        <pt x="94" y="740" on="0"/>
        <pt x="141" y="740" on="1"/>
        <pt x="156" y="740" on="0"/>
        <pt x="180" y="736" on="0"/>
        <pt x="188" y="734" on="1"/>
        <pt x="181" y="689" on="1"/>
        <pt x="173" y="691" on="0"/>
        <pt x="152" y="695" on="0"/>
        <pt x="144" y="695" on="1"/>
        <pt x="118" y="695" on="0"/>
        <pt x="90" y="660" on="0"/>
        <pt x="90" y="615" on="1"/>
        <pt x="90" y="444" on="1"/>
        <pt x="281" y="444" on="1"/>
        <pt x="282" y="435" on="1"/>
      </contour>
    </TTGlyph>
    <TTGlyph name="grave" xMin="132" yMin="486" xMax="277" yMax="605">
      <contour>
        <pt x="260" y="486" on="1"/>
        <pt x="132" y="563" on="1"/>
        <pt x="157" y="605" on="1"/>
        <pt x="277" y="510" on="1"/>
      </contour>
    </TTGlyph>
    <TTGlyph name="greater" xMin="23" yMin="131" xMax="205" yMax="613">
      <contour>
        <pt x="60" y="131" on="1"/>
        <pt x="23" y="158" on="1"/>
        <pt x="151" y="372" on="1"/>
        <pt x="23" y="586" on="1"/>
        <pt x="60" y="613" on="1"/>
        <pt x="205" y="372" on="1"/>
      </contour>
    </TTGlyph>
    <TTGlyph name="greater.lin" xMin="23" yMin="131" xMax="205" yMax="613">
      <component glyphName="greater" x="0" y="0" flags="0x204"/>
    </TTGlyph>
    <TTGlyph name="guillemotleft" xMin="17" yMin="60" xMax="217" yMax="387">
      <contour>
        <pt x="171" y="60" on="1"/>
        <pt x="108" y="224" on="1"/>
        <pt x="171" y="387" on="1"/>
        <pt x="217" y="387" on="1"/>
        <pt x="151" y="224" on="1"/>
        <pt x="217" y="60" on="1"/>
      </contour>
      <contour>
        <pt x="81" y="60" on="1"/>
        <pt x="17" y="224" on="1"/>
        <pt x="81" y="387" on="1"/>
        <pt x="125" y="387" on="1"/>
        <pt x="61" y="224" on="1"/>
        <pt x="125" y="60" on="1"/>
      </contour>
    </TTGlyph>
    <TTGlyph name="guillemotleft.cap" xMin="17" yMin="207" xMax="217" yMax="534">
      <component glyphName="guillemotleft" x="0" y="147" flags="0x204"/>
    </TTGlyph>
    <TTGlyph name="guillemotright" xMin="18" yMin="60" xMax="217" yMax="387">
      <contour>
        <pt x="153" y="60" on="1"/>
        <pt x="109" y="60" on="1"/>
        <pt x="174" y="224" on="1"/>
        <pt x="109" y="387" on="1"/>
        <pt x="153" y="387" on="1"/>
        <pt x="217" y="224" on="1"/>
      </contour>
      <contour>
        <pt x="63" y="60" on="1"/>
        <pt x="18" y="60" on="1"/>
        <pt x="83" y="224" on="1"/>
        <pt x="18" y="387" on="1"/>
        <pt x="63" y="387" on="1"/>
        <pt x="126" y="224" on="1"/>
      </contour>
    </TTGlyph>
    <TTGlyph name="guillemotright.cap" xMin="18" yMin="207" xMax="217" yMax="534">
      <component glyphName="guillemotright" x="0" y="147" flags="0x204"/>
    </TTGlyph>
    <TTGlyph name="guilsinglleft" xMin="17" yMin="60" xMax="125" yMax="387">
      <contour>
        <pt x="81" y="60" on="1"/>
        <pt x="17" y="224" on="1"/>
        <pt x="81" y="387" on="1"/>
        <pt x="125" y="387" on="1"/>
        <pt x="61" y="224" on="1"/>
        <pt x="125" y="60" on="1"/>
      </contour>
    </TTGlyph>
    <TTGlyph name="guilsinglleft.cap" xMin="17" yMin="207" xMax="125" yMax="534">
      <component glyphName="guilsinglleft" x="0" y="147" flags="0x204"/>
    </TTGlyph>
    <TTGlyph name="guilsinglright" xMin="18" yMin="60" xMax="127" yMax="387">
      <contour>
        <pt x="63" y="60" on="1"/>
        <pt x="18" y="60" on="1"/>
        <pt x="83" y="224" on="1"/>
        <pt x="18" y="387" on="1"/>
        <pt x="63" y="387" on="1"/>
        <pt x="127" y="224" on="1"/>
      </contour>
    </TTGlyph>
    <TTGlyph name="guilsinglright.cap" xMin="18" yMin="207" xMax="127" yMax="534">
      <component glyphName="guilsinglright" x="0" y="147" flags="0x204"/>
    </TTGlyph>
    <TTGlyph name="h" xMin="45" yMin="0" xMax="282" yMax="733">
      <contour>
        <pt x="233" y="0" on="1"/>
        <pt x="233" y="347" on="1"/>
        <pt x="233" y="376" on="0"/>
        <pt x="208" y="410" on="0"/>
        <pt x="183" y="410" on="1"/>
        <pt x="156" y="410" on="0"/>
        <pt x="111" y="372" on="0"/>
        <pt x="94" y="343" on="1"/>
        <pt x="94" y="0" on="1"/>
        <pt x="45" y="0" on="1"/>
        <pt x="45" y="733" on="1"/>
        <pt x="94" y="733" on="1"/>
        <pt x="94" y="380" on="1"/>
        <pt x="114" y="411" on="0"/>
        <pt x="164" y="453" on="0"/>
        <pt x="199" y="453" on="1"/>
        <pt x="241" y="453" on="0"/>
        <pt x="282" y="395" on="0"/>
        <pt x="282" y="350" on="1"/>
        <pt x="282" y="0" on="1"/>
      </contour>
    </TTGlyph>
    <TTGlyph name="hbar" xMin="3" yMin="0" xMax="282" yMax="733">
      <contour>
        <pt x="233" y="0" on="1"/>
        <pt x="233" y="347" on="1"/>
        <pt x="233" y="376" on="0"/>
        <pt x="208" y="410" on="0"/>
        <pt x="183" y="410" on="1"/>
        <pt x="156" y="410" on="0"/>
        <pt x="111" y="372" on="0"/>
        <pt x="94" y="343" on="1"/>
        <pt x="94" y="0" on="1"/>
        <pt x="45" y="0" on="1"/>
        <pt x="45" y="573" on="1"/>
        <pt x="3" y="573" on="1"/>
        <pt x="3" y="617" on="1"/>
        <pt x="45" y="617" on="1"/>
        <pt x="45" y="733" on="1"/>
        <pt x="94" y="733" on="1"/>
        <pt x="94" y="617" on="1"/>
        <pt x="186" y="617" on="1"/>
        <pt x="186" y="573" on="1"/>
        <pt x="94" y="573" on="1"/>
        <pt x="94" y="380" on="1"/>
        <pt x="114" y="411" on="0"/>
        <pt x="164" y="453" on="0"/>
        <pt x="199" y="453" on="1"/>
        <pt x="241" y="453" on="0"/>
        <pt x="282" y="395" on="0"/>
        <pt x="282" y="350" on="1"/>
        <pt x="282" y="0" on="1"/>
      </contour>
    </TTGlyph>
    <TTGlyph name="hcoslug" xMin="50" yMin="-100" xMax="644" yMax="700">
      <contour>
        <pt x="273" y="18" on="1"/>
        <pt x="275" y="40" on="0"/>
        <pt x="254" y="40" on="1"/>
        <pt x="245" y="40" on="0"/>
        <pt x="234" y="29" on="0"/>
        <pt x="234" y="19" on="1"/>
        <pt x="235" y="-1" on="0"/>
        <pt x="255" y="-1" on="1"/>
        <pt x="270" y="-1" on="0"/>
        <pt x="273" y="13" on="1"/>
        <pt x="266" y="13" on="1"/>
        <pt x="264" y="6" on="0"/>
        <pt x="257" y="6" on="1"/>
        <pt x="247" y="6" on="0"/>
        <pt x="247" y="18" on="1"/>
      </contour>
      <contour>
        <pt x="254" y="35" on="1"/>
        <pt x="261" y="35" on="0"/>
        <pt x="261" y="23" on="1"/>
        <pt x="247" y="23" on="1"/>
        <pt x="247" y="35" on="0"/>
      </contour>
      <contour>
        <pt x="195" y="78" on="1"/>
        <pt x="187" y="78" on="0"/>
        <pt x="187" y="94" on="1"/>
        <pt x="187" y="109" on="0"/>
        <pt x="195" y="109" on="1"/>
        <pt x="203" y="109" on="0"/>
        <pt x="203" y="94" on="1"/>
        <pt x="203" y="78" on="0"/>
      </contour>
      <contour>
        <pt x="210" y="4" on="1"/>
        <pt x="202" y="4" on="0"/>
        <pt x="202" y="20" on="1"/>
        <pt x="202" y="35" on="0"/>
        <pt x="210" y="35" on="1"/>
        <pt x="218" y="35" on="0"/>
        <pt x="218" y="20" on="1"/>
        <pt x="218" y="4" on="0"/>
      </contour>
      <contour>
        <pt x="210" y="-1" on="1"/>
        <pt x="219" y="-1" on="0"/>
        <pt x="231" y="11" on="0"/>
        <pt x="231" y="20" on="1"/>
        <pt x="231" y="29" on="0"/>
        <pt x="219" y="40" on="0"/>
        <pt x="210" y="40" on="1"/>
        <pt x="201" y="40" on="0"/>
        <pt x="189" y="29" on="0"/>
        <pt x="189" y="20" on="1"/>
        <pt x="189" y="10" on="0"/>
        <pt x="201" y="-1" on="0"/>
      </contour>
      <contour>
        <pt x="546" y="4" on="1"/>
        <pt x="538" y="4" on="0"/>
        <pt x="538" y="20" on="1"/>
        <pt x="538" y="35" on="0"/>
        <pt x="546" y="35" on="1"/>
        <pt x="554" y="35" on="0"/>
        <pt x="554" y="20" on="1"/>
        <pt x="554" y="4" on="0"/>
      </contour>
      <contour>
        <pt x="546" y="-1" on="1"/>
        <pt x="555" y="-1" on="0"/>
        <pt x="567" y="11" on="0"/>
        <pt x="567" y="20" on="1"/>
        <pt x="567" y="29" on="0"/>
        <pt x="555" y="40" on="0"/>
        <pt x="546" y="40" on="1"/>
        <pt x="537" y="40" on="0"/>
        <pt x="525" y="29" on="0"/>
        <pt x="525" y="20" on="1"/>
        <pt x="525" y="10" on="0"/>
        <pt x="537" y="-1" on="0"/>
      </contour>
      <contour>
        <pt x="125" y="74" on="1"/>
        <pt x="155" y="74" on="1"/>
        <pt x="155" y="81" on="1"/>
        <pt x="145" y="81" on="1"/>
        <pt x="145" y="97" on="1"/>
        <pt x="149" y="97" on="1"/>
        <pt x="154" y="97" on="0"/>
        <pt x="155" y="89" on="1"/>
        <pt x="162" y="89" on="1"/>
        <pt x="162" y="112" on="1"/>
        <pt x="155" y="112" on="1"/>
        <pt x="154" y="104" on="0"/>
        <pt x="149" y="104" on="1"/>
        <pt x="145" y="104" on="1"/>
        <pt x="145" y="122" on="1"/>
        <pt x="157" y="122" on="1"/>
        <pt x="162" y="122" on="0"/>
        <pt x="166" y="117" on="0"/>
        <pt x="168" y="109" on="1"/>
        <pt x="176" y="109" on="1"/>
        <pt x="176" y="129" on="1"/>
        <pt x="125" y="129" on="1"/>
        <pt x="125" y="122" on="1"/>
        <pt x="132" y="122" on="1"/>
        <pt x="132" y="81" on="1"/>
        <pt x="125" y="81" on="1"/>
      </contour>
      <contour>
        <pt x="195" y="73" on="1"/>
        <pt x="204" y="73" on="0"/>
        <pt x="216" y="85" on="0"/>
        <pt x="216" y="94" on="1"/>
        <pt x="216" y="103" on="0"/>
        <pt x="204" y="114" on="0"/>
        <pt x="195" y="114" on="1"/>
        <pt x="186" y="114" on="0"/>
        <pt x="174" y="103" on="0"/>
        <pt x="174" y="94" on="1"/>
        <pt x="174" y="84" on="0"/>
        <pt x="186" y="73" on="0"/>
      </contour>
      <contour>
        <pt x="644" y="-100" on="1"/>
        <pt x="50" y="-100" on="1"/>
        <pt x="50" y="700" on="1"/>
        <pt x="644" y="700" on="1"/>
      </contour>
      <contour>
        <pt x="498" y="-1" on="1"/>
        <pt x="520" y="-1" on="0"/>
        <pt x="522" y="22" on="1"/>
        <pt x="514" y="22" on="1"/>
        <pt x="512" y="6" on="0"/>
        <pt x="500" y="6" on="1"/>
        <pt x="484" y="6" on="0"/>
        <pt x="484" y="28" on="1"/>
        <pt x="484" y="50" on="0"/>
        <pt x="498" y="50" on="1"/>
        <pt x="508" y="50" on="0"/>
        <pt x="513" y="34" on="1"/>
        <pt x="521" y="34" on="1"/>
        <pt x="521" y="56" on="1"/>
        <pt x="513" y="56" on="1"/>
        <pt x="512" y="50" on="1"/>
        <pt x="505" y="57" on="0"/>
        <pt x="496" y="57" on="1"/>
        <pt x="485" y="57" on="0"/>
        <pt x="469" y="41" on="0"/>
        <pt x="469" y="27" on="1"/>
        <pt x="469" y="-1" on="0"/>
      </contour>
      <contour>
        <pt x="372" y="80" on="1"/>
        <pt x="364" y="80" on="0"/>
        <pt x="364" y="93" on="1"/>
        <pt x="364" y="106" on="0"/>
        <pt x="372" y="106" on="1"/>
        <pt x="379" y="106" on="0"/>
        <pt x="379" y="93" on="1"/>
        <pt x="379" y="80" on="0"/>
      </contour>
      <contour>
        <pt x="276" y="0" on="1"/>
        <pt x="299" y="0" on="1"/>
        <pt x="299" y="7" on="1"/>
        <pt x="294" y="7" on="1"/>
        <pt x="294" y="32" on="1"/>
        <pt x="308" y="32" on="1"/>
        <pt x="308" y="7" on="1"/>
        <pt x="303" y="7" on="1"/>
        <pt x="303" y="0" on="1"/>
        <pt x="326" y="0" on="1"/>
        <pt x="326" y="7" on="1"/>
        <pt x="320" y="7" on="1"/>
        <pt x="320" y="59" on="1"/>
        <pt x="310" y="57" on="1"/>
        <pt x="306" y="59" on="0"/>
        <pt x="301" y="59" on="1"/>
        <pt x="293" y="59" on="0"/>
        <pt x="282" y="50" on="0"/>
        <pt x="282" y="40" on="1"/>
        <pt x="282" y="39" on="1"/>
        <pt x="275" y="39" on="1"/>
        <pt x="275" y="32" on="1"/>
        <pt x="282" y="32" on="1"/>
        <pt x="282" y="7" on="1"/>
        <pt x="276" y="7" on="1"/>
      </contour>
      <contour>
        <pt x="368" y="0" on="1"/>
        <pt x="394" y="0" on="1"/>
        <pt x="394" y="7" on="1"/>
        <pt x="386" y="7" on="1"/>
        <pt x="386" y="23" on="1"/>
        <pt x="390" y="32" on="0"/>
        <pt x="393" y="32" on="1"/>
        <pt x="393" y="31" on="1"/>
        <pt x="393" y="25" on="0"/>
        <pt x="399" y="25" on="1"/>
        <pt x="406" y="25" on="0"/>
        <pt x="406" y="32" on="1"/>
        <pt x="406" y="40" on="0"/>
        <pt x="398" y="40" on="1"/>
        <pt x="390" y="40" on="0"/>
        <pt x="386" y="29" on="1"/>
        <pt x="386" y="39" on="1"/>
        <pt x="368" y="39" on="1"/>
        <pt x="368" y="32" on="1"/>
        <pt x="374" y="32" on="1"/>
        <pt x="374" y="7" on="1"/>
        <pt x="368" y="7" on="1"/>
      </contour>
      <contour>
        <pt x="352" y="73" on="1"/>
        <pt x="358" y="73" on="1"/>
        <pt x="362" y="81" on="1"/>
        <pt x="367" y="73" on="0"/>
        <pt x="376" y="73" on="1"/>
        <pt x="385" y="73" on="0"/>
        <pt x="392" y="87" on="0"/>
        <pt x="392" y="94" on="1"/>
        <pt x="392" y="114" on="0"/>
        <pt x="377" y="114" on="1"/>
        <pt x="367" y="114" on="0"/>
        <pt x="364" y="105" on="1"/>
        <pt x="364" y="132" on="1"/>
        <pt x="346" y="132" on="1"/>
        <pt x="346" y="125" on="1"/>
        <pt x="352" y="125" on="1"/>
      </contour>
      <contour>
        <pt x="400" y="75" on="1"/>
        <pt x="393" y="75" on="0"/>
        <pt x="393" y="68" on="1"/>
        <pt x="393" y="59" on="0"/>
        <pt x="404" y="59" on="1"/>
        <pt x="416" y="59" on="0"/>
        <pt x="422" y="75" on="1"/>
        <pt x="435" y="106" on="1"/>
        <pt x="440" y="106" on="1"/>
        <pt x="440" y="113" on="1"/>
        <pt x="423" y="113" on="1"/>
        <pt x="423" y="106" on="1"/>
        <pt x="428" y="106" on="1"/>
        <pt x="420" y="86" on="1"/>
        <pt x="411" y="106" on="1"/>
        <pt x="417" y="106" on="1"/>
        <pt x="417" y="113" on="1"/>
        <pt x="392" y="113" on="1"/>
        <pt x="392" y="106" on="1"/>
        <pt x="397" y="106" on="1"/>
        <pt x="399" y="101" on="0"/>
        <pt x="403" y="93" on="1"/>
        <pt x="406" y="87" on="0"/>
        <pt x="411" y="77" on="0"/>
        <pt x="413" y="73" on="1"/>
        <pt x="411" y="65" on="0"/>
        <pt x="405" y="65" on="1"/>
        <pt x="407" y="67" on="0"/>
        <pt x="405" y="75" on="0"/>
      </contour>
      <contour>
        <pt x="247" y="428" on="1"/>
        <pt x="247" y="441" on="0"/>
        <pt x="262" y="457" on="0"/>
        <pt x="274" y="457" on="1"/>
        <pt x="287" y="457" on="0"/>
        <pt x="303" y="436" on="0"/>
        <pt x="303" y="419" on="1"/>
        <pt x="303" y="406" on="0"/>
        <pt x="293" y="382" on="0"/>
        <pt x="285" y="369" on="1"/>
        <pt x="268" y="386" on="0"/>
        <pt x="247" y="411" on="0"/>
      </contour>
      <contour>
        <pt x="302" y="74" on="1"/>
        <pt x="309" y="74" on="1"/>
        <pt x="310" y="78" on="1"/>
        <pt x="312" y="76" on="0"/>
        <pt x="318" y="73" on="0"/>
        <pt x="323" y="73" on="1"/>
        <pt x="337" y="73" on="0"/>
        <pt x="337" y="86" on="1"/>
        <pt x="337" y="92" on="0"/>
        <pt x="329" y="97" on="0"/>
        <pt x="320" y="99" on="0"/>
        <pt x="313" y="101" on="0"/>
        <pt x="313" y="104" on="1"/>
        <pt x="313" y="108" on="0"/>
        <pt x="318" y="108" on="1"/>
        <pt x="323" y="108" on="0"/>
        <pt x="328" y="101" on="1"/>
        <pt x="335" y="101" on="1"/>
        <pt x="335" y="114" on="1"/>
        <pt x="329" y="114" on="1"/>
        <pt x="327" y="109" on="1"/>
        <pt x="324" y="114" on="0"/>
        <pt x="316" y="114" on="1"/>
        <pt x="309" y="114" on="0"/>
        <pt x="302" y="107" on="0"/>
        <pt x="302" y="102" on="1"/>
        <pt x="302" y="96" on="0"/>
        <pt x="309" y="91" on="0"/>
        <pt x="318" y="88" on="0"/>
        <pt x="326" y="86" on="0"/>
        <pt x="326" y="83" on="1"/>
        <pt x="326" y="79" on="0"/>
        <pt x="321" y="79" on="1"/>
        <pt x="315" y="79" on="0"/>
        <pt x="309" y="88" on="1"/>
        <pt x="302" y="88" on="1"/>
      </contour>
      <contour>
        <pt x="261" y="219" on="1"/>
        <pt x="238" y="219" on="0"/>
        <pt x="209" y="250" on="0"/>
        <pt x="209" y="273" on="1"/>
        <pt x="209" y="297" on="0"/>
        <pt x="225" y="313" on="1"/>
        <pt x="239" y="300" on="0"/>
        <pt x="278" y="257" on="0"/>
        <pt x="299" y="231" on="1"/>
        <pt x="284" y="219" on="0"/>
      </contour>
      <contour>
        <pt x="274" y="122" on="1"/>
        <pt x="274" y="113" on="1"/>
        <pt x="267" y="113" on="1"/>
        <pt x="267" y="106" on="1"/>
        <pt x="274" y="106" on="1"/>
        <pt x="274" y="86" on="1"/>
        <pt x="274" y="73" on="0"/>
        <pt x="286" y="73" on="1"/>
        <pt x="297" y="73" on="0"/>
        <pt x="300" y="86" on="1"/>
        <pt x="295" y="88" on="1"/>
        <pt x="294" y="81" on="0"/>
        <pt x="290" y="81" on="1"/>
        <pt x="286" y="81" on="0"/>
        <pt x="286" y="86" on="1"/>
        <pt x="286" y="106" on="1"/>
        <pt x="299" y="106" on="1"/>
        <pt x="299" y="113" on="1"/>
        <pt x="286" y="113" on="1"/>
        <pt x="286" y="124" on="1"/>
      </contour>
      <contour>
        <pt x="428" y="306" on="1"/>
        <pt x="435" y="295" on="0"/>
        <pt x="457" y="281" on="0"/>
        <pt x="471" y="281" on="1"/>
        <pt x="492" y="281" on="0"/>
        <pt x="521" y="312" on="0"/>
        <pt x="521" y="335" on="1"/>
        <pt x="521" y="358" on="0"/>
        <pt x="492" y="387" on="0"/>
        <pt x="471" y="387" on="1"/>
        <pt x="436" y="387" on="0"/>
        <pt x="411" y="349" on="1"/>
        <pt x="409" y="369" on="0"/>
        <pt x="382" y="387" on="0"/>
        <pt x="362" y="386" on="1"/>
        <pt x="371" y="401" on="0"/>
        <pt x="371" y="420" on="1"/>
        <pt x="371" y="433" on="0"/>
        <pt x="359" y="460" on="0"/>
        <pt x="335" y="481" on="0"/>
        <pt x="299" y="494" on="0"/>
        <pt x="276" y="494" on="1"/>
        <pt x="251" y="494" on="0"/>
        <pt x="211" y="480" on="0"/>
        <pt x="182" y="456" on="0"/>
        <pt x="167" y="425" on="0"/>
        <pt x="167" y="409" on="1"/>
        <pt x="167" y="387" on="0"/>
        <pt x="182" y="357" on="0"/>
        <pt x="198" y="340" on="1"/>
        <pt x="116" y="312" on="0"/>
        <pt x="116" y="249" on="1"/>
        <pt x="116" y="229" on="0"/>
        <pt x="133" y="195" on="0"/>
        <pt x="163" y="170" on="0"/>
        <pt x="202" y="156" on="0"/>
        <pt x="225" y="156" on="1"/>
        <pt x="288" y="156" on="0"/>
        <pt x="329" y="201" on="1"/>
        <pt x="354" y="175" on="0"/>
        <pt x="391" y="156" on="0"/>
        <pt x="414" y="156" on="1"/>
        <pt x="446" y="156" on="0"/>
        <pt x="492" y="206" on="0"/>
        <pt x="494" y="250" on="1"/>
        <pt x="487" y="252" on="1"/>
        <pt x="479" y="239" on="0"/>
        <pt x="460" y="223" on="0"/>
        <pt x="444" y="223" on="1"/>
        <pt x="429" y="223" on="0"/>
        <pt x="401" y="242" on="0"/>
        <pt x="382" y="264" on="1"/>
        <pt x="393" y="279" on="0"/>
        <pt x="417" y="299" on="0"/>
      </contour>
      <contour>
        <pt x="219" y="74" on="1"/>
        <pt x="241" y="74" on="1"/>
        <pt x="241" y="81" on="1"/>
        <pt x="237" y="81" on="1"/>
        <pt x="237" y="96" on="1"/>
        <pt x="237" y="106" on="0"/>
        <pt x="244" y="106" on="1"/>
        <pt x="250" y="106" on="0"/>
        <pt x="250" y="99" on="1"/>
        <pt x="250" y="81" on="1"/>
        <pt x="246" y="81" on="1"/>
        <pt x="246" y="74" on="1"/>
        <pt x="268" y="74" on="1"/>
        <pt x="268" y="81" on="1"/>
        <pt x="262" y="81" on="1"/>
        <pt x="262" y="100" on="1"/>
        <pt x="262" y="114" on="0"/>
        <pt x="250" y="114" on="1"/>
        <pt x="241" y="114" on="0"/>
        <pt x="236" y="103" on="1"/>
        <pt x="236" y="113" on="1"/>
        <pt x="219" y="113" on="1"/>
        <pt x="219" y="106" on="1"/>
        <pt x="225" y="106" on="1"/>
        <pt x="225" y="81" on="1"/>
        <pt x="219" y="81" on="1"/>
      </contour>
      <contour>
        <pt x="446" y="33" on="1"/>
        <pt x="446" y="26" on="1"/>
        <pt x="452" y="26" on="1"/>
        <pt x="450" y="21" on="0"/>
        <pt x="446" y="17" on="1"/>
        <pt x="443" y="20" on="0"/>
        <pt x="438" y="26" on="0"/>
        <pt x="434" y="30" on="1"/>
        <pt x="445" y="35" on="0"/>
        <pt x="445" y="42" on="1"/>
        <pt x="445" y="47" on="0"/>
        <pt x="438" y="54" on="0"/>
        <pt x="431" y="54" on="1"/>
        <pt x="423" y="54" on="0"/>
        <pt x="414" y="46" on="0"/>
        <pt x="414" y="40" on="1"/>
        <pt x="414" y="34" on="0"/>
        <pt x="420" y="28" on="1"/>
        <pt x="407" y="24" on="0"/>
        <pt x="407" y="13" on="1"/>
        <pt x="407" y="-1" on="0"/>
        <pt x="425" y="-1" on="1"/>
        <pt x="434" y="-1" on="0"/>
        <pt x="440" y="5" on="1"/>
        <pt x="445" y="-1" on="0"/>
        <pt x="452" y="-1" on="1"/>
        <pt x="462" y="-1" on="0"/>
        <pt x="465" y="11" on="1"/>
        <pt x="460" y="12" on="1"/>
        <pt x="459" y="7" on="0"/>
        <pt x="456" y="7" on="1"/>
        <pt x="453" y="7" on="0"/>
        <pt x="450" y="12" on="1"/>
        <pt x="453" y="15" on="0"/>
        <pt x="457" y="21" on="0"/>
        <pt x="459" y="26" on="1"/>
        <pt x="464" y="26" on="1"/>
        <pt x="464" y="33" on="1"/>
      </contour>
      <contour>
        <pt x="429" y="6" on="1"/>
        <pt x="419" y="6" on="0"/>
        <pt x="419" y="16" on="1"/>
        <pt x="419" y="21" on="0"/>
        <pt x="423" y="25" on="1"/>
        <pt x="427" y="21" on="0"/>
        <pt x="433" y="14" on="0"/>
        <pt x="437" y="9" on="1"/>
        <pt x="433" y="6" on="0"/>
      </contour>
      <contour>
        <pt x="294" y="42" on="1"/>
        <pt x="294" y="49" on="0"/>
        <pt x="297" y="54" on="0"/>
        <pt x="300" y="54" on="1"/>
        <pt x="302" y="54" on="0"/>
        <pt x="303" y="53" on="1"/>
        <pt x="302" y="51" on="0"/>
        <pt x="302" y="49" on="1"/>
        <pt x="302" y="44" on="0"/>
        <pt x="308" y="44" on="1"/>
        <pt x="308" y="39" on="1"/>
        <pt x="294" y="39" on="1"/>
      </contour>
      <contour>
        <pt x="425" y="43" on="1"/>
        <pt x="425" y="48" on="0"/>
        <pt x="430" y="48" on="1"/>
        <pt x="436" y="48" on="0"/>
        <pt x="436" y="42" on="1"/>
        <pt x="436" y="36" on="0"/>
        <pt x="431" y="33" on="1"/>
        <pt x="425" y="39" on="0"/>
      </contour>
      <contour>
        <pt x="312" y="342" on="1"/>
        <pt x="342" y="362" on="0"/>
        <pt x="354" y="376" on="1"/>
        <pt x="371" y="359" on="0"/>
        <pt x="367" y="321" on="0"/>
        <pt x="353" y="296" on="1"/>
        <pt x="343" y="307" on="0"/>
        <pt x="324" y="330" on="0"/>
      </contour>
      <contour>
        <pt x="366" y="18" on="1"/>
        <pt x="368" y="40" on="0"/>
        <pt x="347" y="40" on="1"/>
        <pt x="339" y="40" on="0"/>
        <pt x="327" y="28" on="0"/>
        <pt x="327" y="19" on="1"/>
        <pt x="327" y="-1" on="0"/>
        <pt x="348" y="-1" on="1"/>
        <pt x="362" y="-1" on="0"/>
        <pt x="366" y="13" on="1"/>
        <pt x="359" y="13" on="1"/>
        <pt x="358" y="6" on="0"/>
        <pt x="350" y="6" on="1"/>
        <pt x="340" y="6" on="0"/>
        <pt x="340" y="18" on="1"/>
      </contour>
      <contour>
        <pt x="347" y="35" on="1"/>
        <pt x="354" y="35" on="0"/>
        <pt x="354" y="23" on="1"/>
        <pt x="340" y="23" on="1"/>
        <pt x="340" y="35" on="0"/>
      </contour>
      <contour>
        <pt x="124" y="0" on="1"/>
        <pt x="153" y="0" on="1"/>
        <pt x="153" y="7" on="1"/>
        <pt x="145" y="7" on="1"/>
        <pt x="145" y="25" on="1"/>
        <pt x="167" y="25" on="1"/>
        <pt x="167" y="7" on="1"/>
        <pt x="159" y="7" on="1"/>
        <pt x="159" y="0" on="1"/>
        <pt x="188" y="0" on="1"/>
        <pt x="188" y="7" on="1"/>
        <pt x="180" y="7" on="1"/>
        <pt x="180" y="48" on="1"/>
        <pt x="188" y="48" on="1"/>
        <pt x="188" y="55" on="1"/>
        <pt x="159" y="55" on="1"/>
        <pt x="159" y="48" on="1"/>
        <pt x="167" y="48" on="1"/>
        <pt x="167" y="32" on="1"/>
        <pt x="145" y="32" on="1"/>
        <pt x="145" y="48" on="1"/>
        <pt x="153" y="48" on="1"/>
        <pt x="153" y="55" on="1"/>
        <pt x="124" y="55" on="1"/>
        <pt x="124" y="48" on="1"/>
        <pt x="132" y="48" on="1"/>
        <pt x="132" y="7" on="1"/>
        <pt x="124" y="7" on="1"/>
      </contour>
      <contour>
        <pt x="576" y="13" on="1"/>
        <pt x="569" y="13" on="0"/>
        <pt x="569" y="6" on="1"/>
        <pt x="569" y="-1" on="0"/>
        <pt x="576" y="-1" on="1"/>
        <pt x="583" y="-1" on="0"/>
        <pt x="583" y="6" on="1"/>
        <pt x="583" y="13" on="0"/>
      </contour>
    </TTGlyph>
    <TTGlyph name="hungarumlaut" xMin="109" yMin="489" xMax="314" yMax="645">
      <contour>
        <pt x="132" y="498" on="1"/>
        <pt x="109" y="513" on="1"/>
        <pt x="176" y="645" on="1"/>
        <pt x="216" y="620" on="1"/>
      </contour>
      <contour>
        <pt x="230" y="489" on="1"/>
        <pt x="207" y="503" on="1"/>
        <pt x="274" y="637" on="1"/>
        <pt x="314" y="611" on="1"/>
      </contour>
    </TTGlyph>
    <TTGlyph name="hyphen" xMin="33" yMin="244" xMax="173" yMax="293">
      <contour>
        <pt x="33" y="244" on="1"/>
        <pt x="33" y="293" on="1"/>
        <pt x="173" y="293" on="1"/>
        <pt x="173" y="244" on="1"/>
      </contour>
    </TTGlyph>
    <TTGlyph name="hyphen.cap" xMin="33" yMin="347" xMax="173" yMax="396">
      <component glyphName="hyphen" x="0" y="103" flags="0x204"/>
    </TTGlyph>
    <TTGlyph name="i" xMin="36" yMin="0" xMax="106" yMax="617">
      <contour>
        <pt x="106" y="579" on="1"/>
        <pt x="106" y="565" on="0"/>
        <pt x="86" y="542" on="0"/>
        <pt x="71" y="542" on="1"/>
        <pt x="56" y="542" on="0"/>
        <pt x="36" y="565" on="0"/>
        <pt x="36" y="579" on="1"/>
        <pt x="36" y="594" on="0"/>
        <pt x="56" y="617" on="0"/>
        <pt x="71" y="617" on="1"/>
        <pt x="86" y="617" on="0"/>
        <pt x="106" y="594" on="0"/>
      </contour>
      <contour>
        <pt x="46" y="0" on="1"/>
        <pt x="46" y="444" on="1"/>
        <pt x="95" y="444" on="1"/>
        <pt x="95" y="0" on="1"/>
      </contour>
    </TTGlyph>
    <TTGlyph name="i.dot" xMin="36" yMin="0" xMax="106" yMax="617">
      <contour>
        <pt x="106" y="579" on="1"/>
        <pt x="106" y="565" on="0"/>
        <pt x="86" y="542" on="0"/>
        <pt x="71" y="542" on="1"/>
        <pt x="56" y="542" on="0"/>
        <pt x="36" y="565" on="0"/>
        <pt x="36" y="579" on="1"/>
        <pt x="36" y="594" on="0"/>
        <pt x="56" y="617" on="0"/>
        <pt x="71" y="617" on="1"/>
        <pt x="86" y="617" on="0"/>
        <pt x="106" y="594" on="0"/>
      </contour>
      <contour>
        <pt x="46" y="0" on="1"/>
        <pt x="46" y="444" on="1"/>
        <pt x="95" y="444" on="1"/>
        <pt x="95" y="0" on="1"/>
      </contour>
    </TTGlyph>
    <TTGlyph name="iacute" xMin="38" yMin="0" xMax="183" yMax="605">
      <component glyphName="acute" x="-84" y="0" flags="0x4"/>
      <component glyphName="dotlessi" x="0" y="0" flags="0x4"/>
    </TTGlyph>
    <TTGlyph name="ibreve" xMin="-16" yMin="0" xMax="161" yMax="584">
      <component glyphName="dotlessi" x="0" y="0" flags="0x204"/>
      <component glyphName="breve" x="-128" y="0" flags="0x4"/>
    </TTGlyph>
    <TTGlyph name="icircumflex" xMin="-27" yMin="0" xMax="171" yMax="597">
      <component glyphName="circumflex" x="-130" y="0" flags="0x4"/>
      <component glyphName="dotlessi" x="0" y="0" flags="0x4"/>
    </TTGlyph>
    <TTGlyph name="idieresis" xMin="-15" yMin="0" xMax="160" yMax="558">
      <component glyphName="dieresis" x="-128" y="0" flags="0x4"/>
      <component glyphName="dotlessi" x="0" y="0" flags="0x4"/>
    </TTGlyph>
    <TTGlyph name="igrave" xMin="-44" yMin="0" xMax="101" yMax="605">
      <component glyphName="dotlessi" x="0" y="0" flags="0x204"/>
      <component glyphName="grave" x="-176" y="0" flags="0x4"/>
    </TTGlyph>
    <TTGlyph name="imacron" xMin="-25" yMin="0" xMax="170" yMax="538">
      <component glyphName="dotlessi" x="0" y="0" flags="0x204"/>
      <component glyphName="macron" x="-128" y="0" flags="0x4"/>
    </TTGlyph>
    <TTGlyph name="iogonek" xMin="5" yMin="-188" xMax="116" yMax="617">
      <contour>
        <pt x="116" y="-164" on="1"/>
        <pt x="107" y="-175" on="0"/>
        <pt x="80" y="-188" on="0"/>
        <pt x="63" y="-188" on="1"/>
        <pt x="37" y="-188" on="0"/>
        <pt x="5" y="-152" on="0"/>
        <pt x="5" y="-120" on="1"/>
        <pt x="5" y="-96" on="0"/>
        <pt x="24" y="-41" on="0"/>
        <pt x="53" y="0" on="1"/>
        <pt x="46" y="0" on="1"/>
        <pt x="46" y="444" on="1"/>
        <pt x="95" y="444" on="1"/>
        <pt x="95" y="0" on="1"/>
        <pt x="89" y="0" on="1"/>
        <pt x="61" y="-41" on="0"/>
        <pt x="44" y="-92" on="0"/>
        <pt x="44" y="-113" on="1"/>
        <pt x="44" y="-131" on="0"/>
        <pt x="59" y="-152" on="0"/>
        <pt x="71" y="-152" on="1"/>
        <pt x="88" y="-152" on="0"/>
        <pt x="101" y="-139" on="1"/>
      </contour>
      <contour>
        <pt x="106" y="579" on="1"/>
        <pt x="106" y="565" on="0"/>
        <pt x="86" y="542" on="0"/>
        <pt x="71" y="542" on="1"/>
        <pt x="56" y="542" on="0"/>
        <pt x="36" y="565" on="0"/>
        <pt x="36" y="579" on="1"/>
        <pt x="36" y="594" on="0"/>
        <pt x="56" y="617" on="0"/>
        <pt x="71" y="617" on="1"/>
        <pt x="86" y="617" on="0"/>
        <pt x="106" y="594" on="0"/>
      </contour>
    </TTGlyph>
</ttFont>
